<svg width="408" height="95" viewBox="0 0 408 95" fill="none" xmlns="http://www.w3.org/2000/svg">
<path opacity="0.2" d="M7.07855 61.2801C3.69576 63.6474 0 60.2319 0 56.1031C0 52.0235 3.66846 48.9016 7.01675 46.5709C8.01529 45.8759 8.93459 45.0253 9.7832 44.0468C11.4041 42.1466 12.9092 40.1312 14.588 38.2885C20.4347 31.7241 28.076 31.7241 33.9228 38.2885C35.5437 40.1312 36.9909 42.089 38.6118 43.9317C44.3428 50.381 52.042 50.4386 57.8309 43.9893C59.5097 42.1466 60.9569 40.0736 62.6356 38.2309C68.4245 31.7816 76.0658 31.7816 81.8547 38.2885C83.5914 40.1888 84.9807 42.4345 86.8331 44.162C88.6277 45.8319 90.7117 47.4442 93.0272 48.1928C97.6005 49.69 101.768 48.308 105.068 44.7954C107.21 42.4921 109.062 39.8433 111.262 37.54C116.646 31.9544 123.882 32.012 129.208 37.5975C130.481 38.9219 131.523 40.4191 132.739 41.8011C133.781 43.0103 134.823 44.3348 135.981 45.4288C140.901 49.9203 147.732 49.9203 152.479 45.2561C154.795 42.9528 156.647 40.2464 158.847 37.8855C164.346 31.8968 171.814 31.8968 177.371 37.8855C179.05 39.6705 180.439 41.6859 182.06 43.5286C188.254 50.6689 196.185 50.6113 202.263 43.4134C203.884 41.5132 205.389 39.4402 207.068 37.6551C212.336 32.0696 219.688 32.012 225.014 37.5975C226.808 39.4402 228.313 41.5708 229.992 43.5286C236.128 50.7265 244.001 50.6689 250.195 43.5286C251.758 41.6859 253.205 39.6705 254.884 37.8855C260.21 32.0696 267.678 32.012 273.119 37.7127C274.914 39.6129 276.477 41.8011 278.213 43.7589C284.118 50.4961 291.875 50.5537 297.838 43.8165C299.459 41.9738 300.906 40.016 302.527 38.1734C308.142 31.8968 315.783 31.8392 321.456 38.0582C323.135 39.9009 324.582 41.9738 326.261 43.8165C332.108 50.4386 339.865 50.4386 345.77 43.8165C347.448 41.9163 349.011 39.8433 350.69 37.8855C352.6 35.6973 354.916 34.1426 357.926 33.6819C362.673 32.9333 366.436 34.6608 369.504 38.1734C371.588 40.5919 373.498 43.1831 375.756 45.3712C380.503 49.9779 387.449 49.9203 392.254 45.3137C393.759 43.8741 395.091 42.2042 396.364 40.5343C397.726 38.7288 399.198 37.107 400.9 35.8551C404.253 33.3885 408 36.7806 408 40.9434C408 44.9924 404.39 48.1124 401.089 50.4573C400.231 51.0666 399.429 51.7944 398.68 52.6267C396.943 54.527 395.438 56.5999 393.701 58.5578C387.681 65.4101 379.924 65.3526 373.961 58.4426C372.514 56.8303 371.241 55.0452 369.851 53.4329C363.773 46.4653 356.016 46.5229 349.938 53.4905C348.432 55.2179 347.101 57.1182 345.538 58.8457C339.749 65.295 332.108 65.295 326.319 58.8457C324.698 57.003 323.251 55.0452 321.63 53.2025C315.783 46.4653 308.084 46.5229 302.179 53.2025C300.616 54.9876 299.227 56.8879 297.664 58.6729C291.817 65.2374 284.118 65.1798 278.329 58.6153C276.592 56.6575 275.03 54.4694 273.235 52.5115C267.909 46.7532 260.384 46.6957 255 52.3964C253.205 54.239 251.7 56.3696 250.022 58.3274C244.001 65.295 236.128 65.295 230.108 58.3274C228.603 56.5999 227.271 54.6997 225.708 52.9722C219.862 46.4653 212.162 46.5229 206.316 53.0298C204.637 54.93 203.132 57.0606 201.395 58.9608C195.78 65.0071 188.312 65.0071 182.755 58.9033C181.076 57.0606 179.629 54.9876 177.95 53.145C171.93 46.4077 164.173 46.4653 158.152 53.3753C156.358 55.4483 154.795 57.8668 152.711 59.6518C150.858 61.2066 148.6 62.5886 146.285 63.1644C142.291 64.2585 138.586 62.8765 135.691 59.8822C133.434 57.5213 131.523 54.8724 129.324 52.5115C123.998 46.7532 116.472 46.7532 111.089 52.3964C109.352 54.239 107.905 56.2544 106.284 58.1547C100.148 65.3526 92.2747 65.3526 86.1385 58.1547C84.6913 56.4848 83.3598 54.6421 81.8547 52.9722C76.0658 46.5229 68.4245 46.5229 62.6356 52.9722C60.7832 55.0452 59.1044 57.2909 57.252 59.3639C55.3995 61.4369 53.1419 62.8765 50.3053 63.3372C45.9058 64.0282 42.2588 62.7037 39.3065 59.4215C37.1646 57.0606 35.3121 54.4694 33.1124 52.166C28.0182 46.8684 20.7242 46.8684 15.5721 52.0509C14.1249 53.548 12.7934 55.1604 11.5199 56.8303C10.1861 58.5993 8.73408 60.1215 7.07855 61.2801Z" fill="#A5D26B"/>
<path opacity="0.2" d="M7.07855 91.6839C3.69576 94.0512 0 90.6357 0 86.5069C0 82.4273 3.66846 79.3054 7.01675 76.9747C8.01529 76.2797 8.93459 75.4291 9.7832 74.4506C11.4041 72.5504 12.9092 70.535 14.588 68.6923C20.4347 62.1279 28.076 62.1279 33.9228 68.6923C35.5437 70.535 36.9909 72.4928 38.6118 74.3355C44.3428 80.7848 52.042 80.8424 57.8309 74.3931C59.5097 72.5504 60.9569 70.4774 62.6356 68.6348C68.4245 62.1855 76.0658 62.1855 81.8547 68.6923C83.5914 70.5926 84.9807 72.8383 86.8331 74.5658C88.6277 76.2357 90.7117 77.848 93.0272 78.5966C97.6005 80.0938 101.768 78.7118 105.068 75.1992C107.21 72.8959 109.062 70.2471 111.262 67.9438C116.646 62.3582 123.882 62.4158 129.208 68.0013C130.481 69.3258 131.523 70.8229 132.739 72.2049C133.781 73.4142 134.823 74.7386 135.981 75.8326C140.901 80.3241 147.732 80.3241 152.479 75.6599C154.795 73.3566 156.647 70.6502 158.847 68.2893C164.346 62.3006 171.814 62.3006 177.371 68.2893C179.05 70.0743 180.439 72.0897 182.06 73.9324C188.254 81.0727 196.185 81.0151 202.263 73.8172C203.884 71.917 205.389 69.844 207.068 68.0589C212.336 62.4734 219.688 62.4158 225.014 68.0013C226.808 69.844 228.313 71.9746 229.992 73.9324C236.128 81.1303 244.001 81.0727 250.195 73.9324C251.758 72.0897 253.205 70.0743 254.884 68.2893C260.21 62.4734 267.678 62.4158 273.119 68.1165C274.914 70.0168 276.477 72.2049 278.213 74.1627C284.118 80.8999 291.875 80.9575 297.838 74.2203C299.459 72.3777 300.906 70.4198 302.527 68.5772C308.142 62.3006 315.783 62.243 321.456 68.462C323.135 70.3047 324.582 72.3777 326.261 74.2203C332.108 80.8424 339.865 80.8424 345.77 74.2203C347.448 72.3201 349.011 70.2471 350.69 68.2893C352.6 66.1011 354.916 64.5464 357.926 64.0857C362.673 63.3371 366.436 65.0646 369.504 68.5772C371.588 70.9957 373.498 73.5869 375.756 75.7751C380.503 80.3817 387.449 80.3241 392.254 75.7175C393.759 74.2779 395.091 72.608 396.364 70.9381C397.726 69.1326 399.198 67.5108 400.9 66.2589C404.253 63.7923 408 67.1844 408 71.3472C408 75.3962 404.39 78.5162 401.089 80.8611C400.231 81.4704 399.429 82.1983 398.68 83.0305C396.943 84.9308 395.438 87.0037 393.701 88.9616C387.681 95.814 379.924 95.7564 373.961 88.8464C372.514 87.2341 371.241 85.449 369.851 83.8367C363.773 76.8691 356.016 76.9267 349.938 83.8943C348.432 85.6218 347.101 87.522 345.538 89.2495C339.749 95.6988 332.108 95.6988 326.319 89.2495C324.698 87.4068 323.251 85.449 321.63 83.6063C315.783 76.8691 308.084 76.9267 302.179 83.6063C300.616 85.3914 299.227 87.2917 297.664 89.0767C291.817 95.6412 284.118 95.5836 278.329 89.0192C276.592 87.0613 275.03 84.8732 273.235 82.9154C267.909 77.157 260.384 77.0995 255 82.8002C253.205 84.6428 251.7 86.7734 250.022 88.7312C244.001 95.6988 236.128 95.6988 230.108 88.7312C228.603 87.0037 227.271 85.1035 225.708 83.376C219.862 76.8691 212.162 76.9267 206.316 83.4336C204.637 85.3338 203.132 87.4644 201.395 89.3647C195.78 95.4109 188.312 95.4109 182.755 89.3071C181.076 87.4644 179.629 85.3914 177.95 83.5488C171.93 76.8116 164.173 76.8691 158.152 83.7791C156.358 85.8521 154.795 88.2706 152.711 90.0557C150.858 91.6104 148.6 92.9924 146.285 93.5682C142.291 94.6623 138.586 93.2803 135.691 90.286C133.434 87.9251 131.523 85.2763 129.324 82.9154C123.998 77.157 116.472 77.157 111.089 82.8002C109.352 84.6428 107.905 86.6583 106.284 88.5585C100.148 95.7564 92.2747 95.7564 86.1385 88.5585C84.6913 86.8886 83.3598 85.0459 81.8547 83.376C76.0658 76.9267 68.4245 76.9267 62.6356 83.376C60.7832 85.449 59.1044 87.6947 57.252 89.7677C55.3995 91.8407 53.1419 93.2803 50.3053 93.741C45.9058 94.432 42.2588 93.1076 39.3065 89.8253C37.1646 87.4644 35.3121 84.8732 33.1124 82.5699C28.0182 77.2722 20.7242 77.2722 15.5721 82.4547C14.1249 83.9518 12.7934 85.5642 11.5199 87.2341C10.1861 89.0031 8.73408 90.5253 7.07855 91.6839Z" fill="#A5D26B"/>
<path opacity="0.2" d="M7.07855 28.9148C3.69576 31.2822 0 27.8667 0 23.7378C0 19.6582 3.66846 16.5364 7.01675 14.2057C8.01529 13.5106 8.93459 12.66 9.7832 11.6816C11.4041 9.78136 12.9092 7.76596 14.588 5.9233C20.4347 -0.641168 28.076 -0.641168 33.9228 5.9233C35.5437 7.76596 36.9909 9.72378 38.6118 11.5664C44.3428 18.0157 52.042 18.0733 57.8309 11.624C59.5097 9.78136 60.9569 7.70837 62.6356 5.86572C68.4245 -0.583585 76.0658 -0.583585 81.8547 5.9233C83.5914 7.82354 84.9807 10.0693 86.8331 11.7968C88.6277 13.4667 90.7117 15.079 93.0272 15.8276C97.6005 17.3247 101.768 15.9427 105.068 12.4302C107.21 10.1269 109.062 7.47804 111.262 5.17472C116.646 -0.410836 123.882 -0.353253 129.208 5.2323C130.481 6.55671 131.523 8.05387 132.739 9.43586C133.781 10.6451 134.823 11.9695 135.981 13.0636C140.901 17.5551 147.732 17.5551 152.479 12.8908C154.795 10.5875 156.647 7.88112 158.847 5.52022C164.346 -0.468418 171.814 -0.468418 177.371 5.52022C179.05 7.30529 180.439 9.3207 182.06 11.1634C188.254 18.3037 196.185 18.2461 202.263 11.0482C203.884 9.14795 205.389 7.07496 207.068 5.28989C212.336 -0.29567 219.688 -0.353253 225.014 5.2323C226.808 7.07496 228.313 9.20553 229.992 11.1634C236.128 18.3612 244.001 18.3037 250.195 11.1634C251.758 9.3207 253.205 7.30529 254.884 5.52022C260.21 -0.29567 267.678 -0.353252 273.119 5.34747C274.914 7.24771 276.477 9.43586 278.213 11.3937C284.118 18.1309 291.875 18.1885 297.838 11.4513C299.459 9.60861 300.906 7.65079 302.527 5.80813C308.142 -0.468418 315.783 -0.526002 321.456 5.69297C323.135 7.53562 324.582 9.60861 326.261 11.4513C332.108 18.0733 339.865 18.0733 345.77 11.4513C347.448 9.55103 349.011 7.47804 350.69 5.52022C352.6 3.33206 354.916 1.77732 357.926 1.31666C362.673 0.568076 366.436 2.29557 369.504 5.80813C371.588 8.22662 373.498 10.8179 375.756 13.006C380.503 17.6127 387.449 17.5551 392.254 12.9484C393.759 11.5089 395.091 9.83895 396.364 8.16904C397.726 6.3636 399.198 4.74179 400.9 3.48988C404.253 1.02325 408 4.41533 408 8.57818C408 12.6272 404.39 15.7472 401.089 18.0921C400.231 18.7014 399.429 19.4292 398.68 20.2615C396.943 22.1617 395.438 24.2347 393.701 26.1925C387.681 33.0449 379.924 32.9873 373.961 26.0774C372.514 24.465 371.241 22.68 369.851 21.0676C363.773 14.1001 356.016 14.1577 349.938 21.1252C348.432 22.8527 347.101 24.753 345.538 26.4804C339.749 32.9297 332.108 32.9297 326.319 26.4804C324.698 24.6378 323.251 22.68 321.63 20.8373C315.783 14.1001 308.084 14.1577 302.179 20.8373C300.616 22.6224 299.227 24.5226 297.664 26.3077C291.817 32.8722 284.118 32.8146 278.329 26.2501C276.592 24.2923 275.03 22.1041 273.235 20.1463C267.909 14.388 260.384 14.3304 255 20.0311C253.205 21.8738 251.7 24.0044 250.022 25.9622C244.001 32.9297 236.128 32.9297 230.108 25.9622C228.603 24.2347 227.271 22.3345 225.708 20.607C219.862 14.1001 212.162 14.1577 206.316 20.6646C204.637 22.5648 203.132 24.6954 201.395 26.5956C195.78 32.6418 188.312 32.6418 182.755 26.538C181.076 24.6954 179.629 22.6224 177.95 20.7797C171.93 14.0425 164.173 14.1001 158.152 21.0101C156.358 23.083 154.795 25.5015 152.711 27.2866C150.858 28.8414 148.6 30.2233 146.285 30.7992C142.291 31.8933 138.586 30.5113 135.691 27.5169C133.434 25.156 131.523 22.5072 129.324 20.1463C123.998 14.388 116.472 14.388 111.089 20.0311C109.352 21.8738 107.905 23.8892 106.284 25.7894C100.148 32.9873 92.2747 32.9873 86.1385 25.7894C84.6913 24.1195 83.3598 22.2769 81.8547 20.607C76.0658 14.1577 68.4245 14.1577 62.6356 20.607C60.7832 22.68 59.1044 24.9257 57.252 26.9987C55.3995 29.0717 53.1419 30.5113 50.3053 30.9719C45.9058 31.6629 42.2588 30.3385 39.3065 27.0563C37.1646 24.6954 35.3121 22.1041 33.1124 19.8008C28.0182 14.5032 20.7242 14.5032 15.5721 19.6856C14.1249 21.1828 12.7934 22.7951 11.5199 24.465C10.1861 26.2341 8.73408 27.7563 7.07855 28.9148Z" fill="#A5D26B"/>
</svg>
