<svg width="274" height="272" viewBox="0 0 274 272" fill="none" xmlns="http://www.w3.org/2000/svg">
<path d="M215.582 20.4686C214.685 12.7734 206.9 5.88628 200.526 2.39781C195.973 -0.0902845 186.636 -2.36037 186.469 5.66824C186.29 14.7229 196.396 22.8797 203.886 26.4195C209.144 28.8948 216.429 27.7277 215.582 20.4686Z" fill="#F2E950"/>
<path d="M273.222 116.722C270.695 110.63 262.577 100.472 255.766 98.9333C253.009 98.3177 249.803 99.1513 248.43 101.793C246.699 105.154 248.687 108.86 250.957 111.374C254.304 115.08 258.396 118.184 262.32 121.236C264.629 123.032 267.604 125.841 270.772 124.34C273.632 122.993 274.363 119.454 273.222 116.722Z" fill="#F2E950"/>
<path d="M199.938 109.001C193.795 95.5731 179.046 82.0553 167.875 74.7577C163.117 71.654 157.512 69.7302 153.165 66.0237C148.689 62.2146 146.495 56.6356 144.52 51.2618C141.276 42.4381 136.517 30.4208 125.154 30.5875C120.909 30.6517 116.407 33.6784 115.779 38.039C115.407 40.6425 116.138 43.2846 117.023 45.7598C123.012 62.3942 136.53 73.4495 150.369 83.5558C154.691 86.7108 158.487 90.3661 161.309 94.9447C163.963 99.2411 165.861 103.922 167.901 108.527C171.287 116.119 175.391 124.225 183.214 128.059C193.256 132.997 205.004 126.443 202.003 114.772C201.541 112.862 200.823 110.925 199.938 109.001Z" fill="#92C155"/>
<path d="M38.4535 261.083C35.7473 257.286 32.2332 254.08 28.2317 251.72C25.0383 249.835 20.7161 247.808 17.0353 249.514C8.23717 253.593 16.1503 264.071 21.3574 266.841C25.4871 269.047 36.0808 274.459 40.3516 270.214C43.0449 267.521 40.1336 263.442 38.4535 261.083Z" fill="#F2E950"/>
<path d="M30.0033 126.444C28.1051 118.89 1.42861 89.9045 0.787346 108.475C0.50519 116.594 10.0857 124.52 15.4594 129.381C20.6408 134.062 33.5174 140.436 30.0033 126.444Z" fill="#F2E950"/>
</svg>
