<svg width="258" height="232" viewBox="0 0 258 232" fill="none" xmlns="http://www.w3.org/2000/svg">
<path d="M257.166 93.8888C256.332 81.5125 242.481 67.9946 235.042 61.287C220.267 47.9744 202.915 36.9062 192.013 19.8487C189.064 15.2316 186.806 10.14 183.241 5.92046C177.803 -0.492166 168.851 -2.15948 163.426 5.33047C156.513 14.8596 160.309 28.1722 166.081 37.2397C175.584 52.1555 190.192 62.2874 204.48 72.1628C216.215 80.2684 225.744 87.3223 234.555 98.5187C238.646 103.713 249.932 110.985 254.947 102.982C256.755 100.122 257.384 97.0438 257.166 93.8888Z" fill="black"/>
<path d="M87.9905 214.574C84.874 208.008 79.7439 201.993 75.0242 196.529C70.2532 190.989 64.9307 185.846 58.7233 181.947C51.7463 177.574 44.577 177.74 37.3436 174.919C28.725 171.558 23.0306 163.658 14.7198 159.759C12.1676 158.567 9.28195 157.81 6.5117 158.361C-1.64516 159.977 0.496654 169.276 2.02286 175.021C5.66523 188.77 13.1936 197.889 26.9808 202.544C35.5224 205.43 44.6668 206.956 52.5543 211.522C60.1854 215.947 64.0457 224.27 71.3818 228.9C75.7552 231.658 82.3089 232.825 86.6439 229.349C91.2866 225.604 90.2606 219.333 87.9905 214.574Z" fill="black"/>
</svg>
