<svg width="792" height="487" viewBox="0 0 792 487" fill="none" xmlns="http://www.w3.org/2000/svg">
<path d="M436.019 116.119C439.689 119.486 443.507 122.692 447.463 125.709C451.483 123.115 468.288 111.503 471.955 108.431C482.732 99.3932 490.441 91.284 494.978 84.9871C498.489 80.1045 504.707 70.4356 500.363 66.809C501.695 64.4326 503.728 61.3203 500.805 59.4241C500.353 59.1273 499.9 58.9582 499.45 58.8664C499.887 57.5614 499.752 56.2141 498.463 54.9985C495.115 51.823 489.623 57.2129 487.048 58.9552C475.053 67.0418 462.7 74.5867 450.03 81.569C439.442 87.4033 428.635 92.8147 417.645 97.8332C423.49 104.339 429.822 110.416 436.019 116.119Z" fill="#FFA67D"/>
<path d="M487.317 74.7965C492.163 70.3156 496.214 65.2026 499.506 59.4747C499.876 58.8401 498.832 58.3578 498.475 58.9938C495.244 64.6394 491.231 69.6544 486.457 74.067C485.9 74.5513 486.786 75.2838 487.317 74.7965Z" fill="#2B244A"/>
<path d="M492.634 79.3963C495.84 75.6808 498.501 71.606 500.626 67.186C500.948 66.5202 499.904 66.0378 499.595 66.7051C497.516 71.0539 494.908 75.0196 491.774 78.6669C491.272 79.2218 492.146 79.9528 492.634 79.3963Z" fill="#2B244A"/>
<path d="M665.337 408.86C662.215 403.779 655.441 401.643 650.142 400.13C642.367 397.901 608.735 391.897 603.069 391.212C593.998 390.096 586.754 391.591 578.472 395.254C574.973 396.797 568.251 400.261 564.165 402.541C577.851 409.965 596.225 411.546 605.178 423.9C607.214 423.463 609.279 423.107 611.385 422.832C627.633 420.755 644.698 422.795 660.53 417.967C664.995 416.59 668.515 414 665.337 408.86Z" fill="#C7513C"/>
<path d="M662.611 416.819C664.392 411.411 659.533 408.031 655.256 405.884C648.756 402.629 641.595 400.729 634.511 399.26C618.946 396.016 602.795 393.829 586.992 392.157C586.259 392.083 586.061 393.212 586.795 393.286C599.83 394.655 612.841 396.763 625.794 398.827C632 399.82 638.179 401.04 644.199 402.843C649.637 404.474 664.183 408.429 661.581 416.326C661.346 417.015 662.388 417.51 662.611 416.819Z" fill="#2B244A"/>
<path d="M745.193 479.649C745.324 473.699 740.581 468.258 736.459 464.594C730.325 459.117 724.524 454.818 717.824 450.118C714.326 447.667 711.096 444.902 708.448 441.541C705.857 438.251 703.742 434.607 700.926 431.482C688.822 418.063 668.997 421.482 652.865 417.838C653.981 420.082 655.204 422.289 656.091 424.519C658.218 429.789 660.087 435.17 662.105 440.492C663.948 445.345 665.511 450.19 666.681 455.104C667.123 455.156 667.553 455.195 667.995 455.247C676.565 456.163 684.525 458.337 692.301 462.064C707.065 469.142 720.29 480.122 736.2 484.661C740.694 485.95 745.065 485.688 745.193 479.649Z" fill="#F5E3D9"/>
<path d="M745.193 479.649C745.325 473.686 740.803 468.221 737.174 464.065C731.856 457.967 706.871 434.672 702.492 431.015C692.512 422.674 682.802 420.791 667.063 419.767C678.667 429.85 685.711 444.371 686.526 459.599C688.475 460.329 690.399 461.159 692.326 462.067C707.09 469.145 720.317 480.112 736.238 484.666C740.707 485.952 745.077 485.69 745.193 479.649Z" fill="#C7513C"/>
<path d="M694.164 452.953C694.291 456.194 694.368 459.429 694.38 462.669C694.383 463.399 695.522 463.291 695.521 462.549C695.509 459.309 695.432 456.074 695.305 452.833C695.263 452.111 694.136 452.22 694.164 452.953Z" fill="#2B244A"/>
<path d="M701.355 456.841C701.483 460.082 701.559 463.317 701.571 466.557C701.574 467.287 702.713 467.179 702.712 466.437C702.7 463.197 702.623 459.962 702.496 456.721C702.467 456 701.327 456.108 701.355 456.841Z" fill="#2B244A"/>
<path d="M89.0322 132.182C84.2796 128.007 82.3279 126.009 77.9403 121.455C73.8537 116.631 70.1656 111.469 66.9375 105.991C65.1912 103.018 63.5831 99.9599 62.1243 96.8296C61.0219 94.4713 60.2354 91.7153 58.5987 89.652C57.14 87.8146 54.6525 86.8791 52.6969 87.8246C51.8338 85.9299 50.8286 81.6758 48.4872 80.9113C45.9245 80.0693 44.4685 82.5205 44.908 85.2866C43.561 83.9105 41.6966 83.5483 40.7169 85.7617C40.0297 87.3442 40.3544 89.8918 40.3912 91.5219C40.4653 94.3469 40.7065 97.1662 41.1431 99.9575C41.8952 104.834 43.2408 109.564 45.0396 114.143C43.6018 112.884 42.1609 111.651 40.6732 110.488C39.1618 109.31 37.012 107.903 35.2561 109.538C31.6551 112.912 38.7672 121.04 40.5453 123.53C47.341 133.029 55.8328 141.181 65.4984 147.641C70.9996 154.567 76.7706 161.269 82.7735 167.742C85.0917 156.522 85.5313 143.12 89.0322 132.182Z" fill="#FFA67D"/>
<path d="M44.5073 85.5583C46.313 92.5573 48.6255 99.3861 51.2165 106.133C51.4809 106.817 52.5522 106.419 52.2878 105.735C49.6968 98.9885 47.3844 92.1597 45.5786 85.1607C45.3945 84.4475 44.3216 84.8578 44.5073 85.5583Z" fill="#2B244A"/>
<path d="M52.3663 88.4636C53.8789 93.9429 55.4718 99.3933 57.1166 104.837C57.3275 105.541 58.4003 105.13 58.1879 104.439C56.5416 99.0083 54.9502 93.5453 53.4376 88.066C53.2409 87.3514 52.1696 87.749 52.3663 88.4636Z" fill="#2B244A"/>
<path d="M44.4691 113.448C46.4003 116.481 48.33 119.526 50.2612 122.559C50.6608 123.182 51.5853 122.511 51.1969 121.902C49.2657 118.869 47.336 115.824 45.4048 112.791C45.0067 112.155 44.0695 112.824 44.4691 113.448Z" fill="#2B244A"/>
<path d="M438.322 87.7698C380.045 109.28 323.693 138.609 273.404 164.102C271.674 164.984 269.945 165.854 268.214 166.737C268.022 166.842 267.915 166.995 267.868 167.169C245.693 176.799 220.972 183.387 196.823 184.628C169.689 177.373 107.523 144.529 86.8685 130.248C83.6512 135.242 81.2212 140.074 78.8953 145.43C76.0736 151.943 73.5819 158.803 72.249 166.146C74.4143 168.285 81.8637 175.622 86.4815 180.177C87.6232 186.623 89.3852 192.913 92.434 198.716C98.4071 210.076 109.019 216.648 120.534 221.447C126.925 224.113 133.495 226.352 139.864 229.093C147.026 232.171 154.487 234.99 160.64 239.766C174.94 250.86 190.855 258.805 210.364 261.494C222.209 280.003 234.677 300.698 253.547 312.22C258.191 315.05 269.889 315.824 269.889 315.824C269.889 315.824 278.301 319.473 282.813 321.033C283.588 321.305 286.492 319.269 285.718 318.997C285.681 318.98 285.632 318.962 285.595 318.957C303.053 305.183 321.132 292.212 339.776 280.089C340.094 280.434 341.221 280.427 341.306 279.823C342.218 273.863 340.083 268.669 338.582 262.448C336.865 255.345 334.292 248.767 332.867 241.582C331.308 233.691 328.716 226.202 325.053 219.212C348.143 211.586 383.506 200.104 396.075 188.041C405.465 179.043 402.795 173.388 410.787 163.328C415.271 157.691 420.553 153.313 427.119 150.304C432.846 147.681 439.21 146.261 444.367 142.611C453.983 135.803 457.654 127.419 460.871 118.444C466.054 114.028 468.61 111.375 474.425 106.279C461.462 95.5743 451.813 90.6906 438.322 87.7698Z" fill="#F5E3D9"/>
<path d="M202.868 248.864C204.672 253.29 206.913 257.486 209.592 261.44C210.006 262.052 210.943 261.383 210.528 260.783C207.903 256.913 205.703 252.798 203.94 248.454C203.662 247.781 202.591 248.179 202.868 248.864Z" fill="#2B244A"/>
<path d="M217.963 193.949C222.413 190.752 226.851 187.554 231.301 184.358C231.903 183.93 231.233 182.993 230.644 183.422C226.194 186.619 221.756 189.817 217.306 193.013C216.705 193.441 217.362 194.377 217.963 193.949Z" fill="#2B244A"/>
<path d="M219.798 180.456C218.889 184.765 217.968 189.072 217.06 193.38C216.91 194.105 218.04 194.29 218.188 193.578C219.097 189.27 220.018 184.963 220.927 180.654C221.077 179.93 219.959 179.746 219.798 180.456Z" fill="#2B244A"/>
<path d="M247.624 192.338C241.923 188.922 236.209 185.516 230.508 182.1C229.875 181.717 229.393 182.761 230.028 183.131C235.728 186.547 241.442 189.953 247.143 193.369C247.763 193.75 248.246 192.706 247.624 192.338Z" fill="#2B244A"/>
<path d="M243.026 180.412C244.305 184.621 245.57 188.842 246.85 193.052C247.061 193.756 248.132 193.358 247.921 192.655C246.642 188.445 245.376 184.224 244.097 180.014C243.886 179.31 242.815 179.708 243.026 180.412Z" fill="#2B244A"/>
<path d="M230.571 173.057C230.379 181.035 230.737 189.014 230.777 196.981C230.817 203.757 231.18 210.508 233.899 216.822C236.319 222.422 240.026 227.317 243.326 232.407C247.103 238.219 249.787 244.401 252.085 250.921C254.267 257.12 256.258 263.424 259.276 269.274C262.283 275.097 266.47 280.049 270.737 284.972C281.143 296.948 291.577 308.902 301.997 320.866C302.481 321.423 303.417 320.766 302.933 320.21C292.84 308.616 282.747 297.023 272.654 285.43C268.114 280.219 263.559 275.031 260.348 268.863C257.318 263.012 255.342 256.697 253.158 250.51C251.109 244.699 248.799 239.035 245.556 233.786C242.207 228.357 238.173 223.308 235.469 217.508C232.417 210.975 231.957 203.97 231.916 196.873C231.878 188.894 231.52 180.914 231.711 172.949C231.722 172.208 230.581 172.329 230.571 173.057Z" fill="#2B244A"/>
<path d="M653.716 417.9C627.272 414.747 600.624 411.377 575.083 403.531C553.518 396.912 533.103 386.87 516.091 371.882C500.319 357.989 487.425 341.199 471.797 327.169C463.99 320.149 449.472 310.142 434.699 302.819C422.609 296.826 394.702 284.768 350.532 280.073C350.532 280.073 345.256 275.133 340.8 271.045C314.352 294.018 302.957 304.275 269.899 315.851L280.838 327.327L280.84 327.314C287.356 346.816 298.249 376.784 319.28 398.676C349.037 429.655 390.028 444.086 431.441 449.567C465.595 454.085 506.3 451.302 540.161 444.712C581.96 454.707 629.083 461.366 671.845 463.142C669.401 446.863 663.224 431.395 653.716 417.9Z" fill="#2B244A"/>
<path d="M217.824 168.612L219.33 182.232C219.33 182.232 228.897 187.797 244.496 180.408L243.089 166.275L217.824 168.612Z" fill="#FFA67D"/>
<path d="M257.539 155.74C259.953 152.225 261.166 142.87 253.668 136.591C246.893 130.909 236.725 127.922 226.675 134.396C216.612 140.881 214.44 144.4 209.909 150.864C206.364 155.922 203.525 162.151 209.023 167.272C215.283 173.085 225.364 173.783 230.779 172.595C236.168 171.418 248.285 169.196 257.539 155.74Z" fill="#FFA67D"/>
<path d="M262.49 152.756C263.062 151.493 263.148 150.12 262.823 148.763C262.266 146.444 260.612 144.852 258.63 143.759C258.709 143.526 258.762 143.289 258.784 142.997C258.929 140.159 254.835 136.908 252.294 135.019C253.589 134.251 254.28 132.848 253.861 131.096C253.067 127.763 248.988 126.856 246.129 126.465C241.442 125.832 230.653 126.138 229.721 132.799C229.141 136.929 232.031 139.973 234.512 143.225C232.477 145.915 230.682 149.068 230.527 152.096C230.312 156.385 233.723 156.662 236.62 158.132C236.591 158.167 236.551 158.175 236.509 158.209C233.77 161.225 233.966 165.715 236.825 168.59C240.015 171.798 244.678 171.878 248.632 170.273C248.7 170.243 251.1 169.222 251.31 166.482C256.229 166.235 261.266 164.785 260.783 159.581C260.565 157.213 260.137 157.047 261.576 154.197C261.841 153.69 262.247 153.291 262.49 152.756Z" fill="#2B244A"/>
<path d="M218.194 172.086L218.583 175.486C221.152 175.522 224.023 174.634 226.181 173.06C226.559 172.785 226.297 172.191 225.828 172.263C223.322 172.669 220.546 172.647 218.194 172.086Z" fill="#2B244A"/>
<path d="M220.246 138.945C220.246 138.945 212.988 140.989 211.889 141.831C210.803 142.675 211.204 144.041 213.039 147.242C214.859 150.454 220.246 138.945 220.246 138.945Z" fill="#FFA67D"/>
<path d="M223.266 153.73C222.599 157.952 225.483 161.905 229.692 162.571C233.914 163.239 237.867 160.354 238.533 156.145C239.201 151.923 236.316 147.971 232.107 147.305C227.885 146.637 223.934 149.509 223.266 153.73Z" fill="#FFA67D"/>
<path d="M222.379 136.408C221.294 138.314 223.758 138.697 224.985 140.98C226.118 143.073 227.342 144.089 228.269 143.29C229.381 142.334 229.172 139.57 226.9 137.137C224.777 134.862 223.171 135.017 222.379 136.408Z" fill="#2B244A"/>
<path d="M232.506 152.127C233.651 153.914 234.336 156.441 232.404 158.054C231.836 158.525 232.493 159.46 233.061 158.99C234.112 158.117 234.652 156.798 234.762 155.442C234.893 153.908 234.241 152.717 233.442 151.47C233.042 150.847 232.118 151.518 232.506 152.127Z" fill="#2B244A"/>
<path d="M219.427 142.509C220.14 144.053 221.696 144.532 223.258 144.858C223.982 145.008 224.168 143.878 223.456 143.73C222.357 143.497 221.031 143.237 220.511 142.113C220.181 141.446 219.11 141.844 219.427 142.509Z" fill="#2B244A"/>
<path d="M211.146 149.078C210.746 149.645 210.33 150.235 209.897 150.862C209.42 151.535 208.966 152.237 208.535 152.954C211.329 153.785 213.315 153.662 215.931 152.552C213.708 151.11 212.792 150.528 211.146 149.078Z" fill="white"/>
<path d="M365.947 371.217C385.402 385.791 405.929 398.88 427.78 409.552C449.171 420.004 471.616 428.046 494.525 434.454C509.318 438.591 524.29 442.085 539.329 445.228C540.053 445.378 540.239 444.248 539.527 444.099C491.488 434.042 444.607 419.743 402.264 394.387C389.979 387.026 378.154 378.914 366.692 370.333C366.103 369.905 365.359 370.776 365.947 371.217Z" fill="#8D84B8"/>
<path d="M282.323 327.107C310.025 320.527 332.698 302.393 350.488 280.759C350.953 280.187 350.08 279.456 349.615 280.028C331.931 301.521 309.454 319.512 281.925 326.035C281.201 326.205 281.611 327.278 282.323 327.107Z" fill="#8D84B8"/>
<path d="M635.593 416.567C644.347 430.165 650.406 446.079 654.507 461.671C654.691 462.385 655.764 461.974 655.578 461.274C651.466 445.565 645.348 429.605 636.528 415.91C636.129 415.287 635.193 415.944 635.593 416.567Z" fill="#8D84B8"/>
<path d="M87.1145 179.919C88.9204 165.899 94.4751 152.541 100.863 140.038C101.196 139.386 100.165 138.905 99.8319 139.557C93.3973 152.132 87.8134 165.626 85.9844 179.733C85.8989 180.453 87.0149 180.65 87.1145 179.919Z" fill="#2B244A"/>
<path d="M420.403 95.6136C433.978 102.679 448.145 108.535 459.907 118.572C460.465 119.048 461.196 118.175 460.638 117.699C448.806 107.602 434.557 101.685 420.884 94.5826C420.234 94.2365 419.751 95.2801 420.403 95.6136Z" fill="#2B244A"/>
<path d="M738.614 484.833C743.059 481.251 740.755 475.755 738.323 471.651C734.625 465.388 729.642 459.919 724.499 454.828C713.192 443.653 700.818 433.044 688.448 423.062C687.876 422.597 687.145 423.471 687.717 423.935C697.915 432.161 707.707 441.005 717.458 449.767C722.409 454.208 727.193 458.873 731.45 463.987C735.045 468.318 744.256 478.821 737.97 483.898C737.389 484.367 738.046 485.303 738.614 484.833Z" fill="#2B244A"/>
<path d="M472.982 79.6353C475.645 78.6587 478.321 77.6836 480.985 76.7071C483.313 75.8571 491.267 72.5901 489.31 78.1822C488.398 80.7878 484.59 83.4333 482.277 84.7972C481.644 85.17 482.313 86.1072 482.934 85.7329C485.564 84.1762 492.222 79.5266 490.809 75.6849C490.073 73.6901 487.734 73.4507 485.915 73.7851C481.439 74.6104 476.84 77.0084 472.57 78.5751C471.888 78.8269 472.287 79.8856 472.982 79.6353Z" fill="#2B244A"/>
<path d="M332.891 241.585C331.332 233.694 328.74 226.205 325.062 219.227C322.881 219.812 320.681 220.332 318.475 220.8C315.863 221.347 312.192 222.076 313.709 224.279C316.002 227.611 320.347 233.49 321.774 237.321C323.841 242.879 325.14 248.857 329.517 253.179C331.786 255.42 334.476 257.02 337.41 257.97C335.844 252.51 333.999 247.234 332.891 241.585Z" fill="#2B244A"/>
</svg>
