<svg width="376" height="274" viewBox="0 0 376 274" fill="none" xmlns="http://www.w3.org/2000/svg">
<path d="M372.08 1.41198C369.094 -0.711254 365.06 0.045121 361.928 1.42522C353.727 5.04799 350.702 12.8642 343.695 17.6414C338.573 21.1448 333.862 31.1372 341.837 34.8396C345.553 36.5647 349.494 34.4548 352.506 32.305C357.071 29.0538 361.358 25.3249 365.525 21.596C368.975 18.504 373.234 15.1334 374.615 10.502C375.57 7.30392 374.933 3.44232 372.08 1.41198Z" fill="#F2E950"/>
<path d="M27.2988 245.708C19.6419 248.535 0.692012 262.256 7.07498 270.298C11.7461 276.19 21.6061 272.899 27.8829 268.905C34.4649 264.711 45.4659 257.651 43.4621 249.557C41.9095 243.346 33.1377 243.545 27.2988 245.708Z" fill="#F2E950"/>
<path d="M135.698 65.1089C129.634 55.0899 115.727 54.1344 105.946 58.4472C97.5331 62.1629 90.9512 68.997 84.7805 75.6189C70.3027 91.145 59.8459 124.692 42.0771 136.874C23.8173 149.388 -18.6476 168.364 10.3877 190.34C21.6143 198.846 43.8022 195.157 54.2989 182.802C66.0961 168.922 73.4346 141.28 82.8697 129.244C94.866 113.943 99.8953 111.05 120.278 97.7668C131.107 90.7204 144.006 78.8303 135.698 65.1089Z" fill="#F2E950"/>
<path d="M293.825 184.142C287.296 182.961 283.872 190.817 280.541 195.117C268.744 210.351 290.003 207.843 297.089 197.453C299.969 193.233 300.194 185.297 293.825 184.142Z" fill="#FBFF4B"/>
</svg>
