<svg width="311" height="110" viewBox="0 0 311 110" fill="none" xmlns="http://www.w3.org/2000/svg">
<path d="M306.238 3.3711C298.064 -2.50761 287.753 3.35784 282.392 10.0593C278.756 14.611 276.035 19.8129 272.651 24.5371C268.803 29.9115 264.331 34.8613 259.394 39.267C253.701 44.3495 247.411 48.5429 240.71 52.1789C229.032 58.5221 212.205 68.1828 210.162 82.8066C208.277 96.3289 228.276 99.328 237.605 96.5943C255.108 91.4455 268.006 73.4909 277.441 58.9468C281.091 53.3335 284.7 47.6803 288.814 42.3855C292.915 37.104 297.705 32.7646 302.482 28.1333C308.6 22.1883 315.527 10.046 306.238 3.3711Z" fill="#D2395A"/>
<path d="M45.055 74.4459C44.3782 73.2649 43.4362 72.1767 42.1888 71.1815C31.4399 62.7151 14.9847 76.2108 7.85857 83.8147C0.825357 91.2991 -4.92079 104.078 8.70772 108.657C18.7135 112.014 27.7107 108.152 34.9828 101.424C35.3809 101.053 35.7792 100.681 36.164 100.283C41.7375 94.5503 49.7394 82.5806 45.055 74.4459Z" fill="#D2395A"/>
</svg>
