<svg width="622" height="527" viewBox="0 0 622 527" fill="none" xmlns="http://www.w3.org/2000/svg">
<path d="M222.788 164.601C219.179 158.059 210.633 156.546 204.17 159.373C200.932 160.792 198.119 162.982 195.345 165.158C186.693 171.926 178.705 178.893 173.198 188.554C167.77 198.108 165.222 214.311 179.143 217.748C192.081 220.946 205.643 208.937 213.101 199.701C220.055 191.075 228.972 175.801 222.788 164.601Z" fill="#D2395A"/>
<path d="M349.971 42.4586C348.604 37.814 343.083 35.0671 338.638 34.5496C338.319 34.5098 338.067 34.669 337.921 34.8946C337.523 34.9344 337.112 35.2927 337.205 35.8102C338.067 40.2027 339.726 44.2766 342.168 48.0321C342.181 48.0587 342.208 48.0719 342.221 48.0852C342.181 48.4037 342.327 48.7487 342.739 48.8416C346.733 49.7572 351.311 47.0103 349.971 42.4586Z" fill="#2B244A"/>
<path d="M311.237 50.9391C310.613 47.0111 313.347 38.6509 322.185 36.3817C330.16 34.3248 338.773 35.0414 344.638 44.5428C350.504 54.031 352.056 58.7154 353.277 65.9742C354.233 71.6539 354.127 78.0368 347.425 80.1335C339.821 82.5222 331.063 79.0454 326.989 75.8871C322.915 72.7022 313.626 65.9742 311.237 50.9391Z" fill="#FFA67D"/>
<path d="M343.895 39.9251C343.802 39.2616 343.032 39.3014 342.687 39.7128C341.652 36.0635 339.529 32.8123 336.357 30.5829C334.765 29.4682 332.615 28.38 330.664 29.2293C329.324 29.8132 328.687 30.9943 328.753 32.3213C327.97 31.7639 326.192 30.8616 323.591 31.4189C320.977 31.9895 319.796 35.0019 319.796 35.0019C317.712 34.3782 315.629 33.927 313.506 33.635C309.206 33.0511 302.903 33.582 300.09 37.4171C298.072 40.1507 298.803 43.3621 300.979 45.3128C298.856 46.7726 297.21 48.8958 296.308 51.5498C296.162 51.9877 296.427 52.293 296.772 52.3859C295.471 53.3148 293.906 53.9783 293.508 55.6238C293.149 57.1233 294.012 58.3575 295.246 59.1271C297.582 60.5868 300.687 61.0248 303.235 62.0598C306.672 63.4665 309.777 65.603 313.267 66.8504C317.965 68.5357 323.605 68.0712 327.174 64.2627C328.753 62.5906 329.815 60.3214 329.948 58.0124C330.133 54.9337 327.97 51.4967 329.059 48.5508C332.27 49.5593 336.052 49.4266 337.14 45.8304C341.042 47.1043 344.518 44.1716 343.895 39.9251Z" fill="#2B244A"/>
<path d="M349.19 76.3912C345.767 76.2319 342.356 75.8338 339.012 75.0243C333.333 73.6177 328.131 70.9769 324.03 66.8764C323.844 66.3854 323.672 65.8944 323.513 65.4034C323.34 64.8328 322.73 64.793 322.371 65.0584C322.199 64.8593 322.013 64.6736 321.841 64.4612C321.27 63.7314 320.275 64.7532 320.832 65.4698C321.456 66.2527 322.106 66.9958 322.796 67.6992C324.123 71.1361 326.061 74.2679 328.529 76.922C333.014 79.7353 340.684 82.2168 347.412 80.1068C349.827 79.3504 351.393 78.0499 352.349 76.3912C351.247 76.3381 350.106 76.431 349.19 76.3912Z" fill="#2B244A"/>
<path d="M196.513 123.235C196.513 123.235 184.331 125.411 197.229 104.338C210.141 83.2651 210.34 61.8204 217.281 58.9806C224.234 56.1407 235.275 62.4573 235.275 62.4573C235.275 62.4573 233.019 108.757 217.904 113.972C202.803 119.201 196.513 123.235 196.513 123.235Z" fill="#2B244A"/>
<path d="M239.737 38.4647C215.373 37.0846 191.221 43.5472 168.211 51.297C154.184 56.0212 140.304 61.2099 126.118 65.4298C111.773 69.6895 97.1222 72.7284 82.233 74.3076C73.3685 75.2498 64.4641 75.6611 55.5597 75.5948C55.5597 75.5948 35.4289 74.9047 19.4383 71.8128C16.8771 71.3218 4.98708 68.535 4.90745 74.0156C3.58043 73.7237 2.24005 73.8697 1.16516 74.9711C-0.772287 76.9483 0.395504 79.8147 1.84196 81.6327C2.46566 82.4157 3.12914 83.1588 3.80592 83.902C3.1026 91.5987 11.808 97.8887 17.2222 102.042C25.3569 108.293 38.4678 114.185 44.0147 116.082C52.1494 118.869 61.0006 119.387 69.2414 119.068C82.8301 118.55 96.3923 115.843 109.716 113.256C138.95 107.576 161.894 98.6849 196.317 92.7532C206.654 90.975 220.217 91.7712 230.581 93.2309C235.504 72.8213 236.844 59.352 239.737 38.4647Z" fill="#FFA67D"/>
<path d="M362.595 103.329C361.241 103.714 359.901 104.126 358.547 104.511C339.558 71.8127 307.165 48.205 269.995 40.6277C258.424 38.2656 246.6 37.4694 234.829 38.186C234.524 38.1993 233.861 38.531 233.662 38.6903C221.586 48.0192 219.064 63.5719 217.551 77.8241C215.826 94.0138 219.621 107.894 202.821 119.201C199.623 121.35 195.722 123.301 195.722 123.301C204.295 125.292 213.783 126.751 222.488 127.932C221.201 129.313 219.914 130.693 218.626 132.059C214.99 135.881 211.195 139.544 206.882 142.596C202.49 145.715 197.726 148.262 193.227 151.222C186.247 155.826 179.294 161.931 177.237 170.384C174.914 179.885 179.731 189.161 184.867 196.831C184.947 196.951 185.053 197.017 185.159 197.07C185 197.628 185.783 198.251 186.366 197.76C226.602 164.187 272.344 137.301 321.271 118.524C333.294 113.906 345.516 109.832 357.871 106.209C358.282 106.926 358.693 107.629 359.091 108.346C359.529 109.155 360.764 108.438 360.312 107.629C359.981 107.019 359.622 106.408 359.277 105.798C360.511 105.439 361.746 105.055 362.98 104.71C363.842 104.457 363.471 103.091 362.595 103.329Z" fill="#92C155"/>
<path d="M233.685 150.332C233.287 151.155 232.889 151.978 232.478 152.787C219.858 147.864 205.393 148.408 193.397 154.99C186.895 158.56 181.414 163.722 177.353 169.84C177.3 170.012 177.247 170.198 177.207 170.384C174.885 179.885 179.702 189.161 184.838 196.831C184.917 196.951 185.023 197.017 185.13 197.07C184.957 197.627 185.74 198.251 186.324 197.76C198.678 187.462 211.537 177.788 224.847 168.778C227.886 164.2 230.646 159.462 233.141 154.579C233.314 154.645 233.486 154.712 233.672 154.791C234.495 155.163 235.225 153.929 234.389 153.557C234.189 153.477 233.977 153.398 233.778 153.318C234.163 152.562 234.535 151.792 234.906 151.049C235.304 150.226 234.083 149.51 233.685 150.332Z" fill="#2B244A"/>
<path d="M4.19296 84.6987C10.1247 89.8475 16.7598 93.8684 24.0584 96.7613C24.6954 97.0134 24.974 95.9784 24.337 95.7395C17.2109 92.9262 10.722 88.9717 4.94945 83.9423C4.43191 83.4911 3.67542 84.2475 4.19296 84.6987Z" fill="#2B244A"/>
<path d="M4.81346 74.6651C10.9178 79.4955 17.2345 84.0737 24.1615 87.6434C24.772 87.9619 25.3159 87.0329 24.7055 86.7277C17.8581 83.1846 11.6079 78.6727 5.56996 73.9087C5.03915 73.4973 4.28266 74.2405 4.81346 74.6651Z" fill="#2B244A"/>
<path d="M41.8928 91.4792C44.4009 97.7162 49.4566 103.29 56.3041 104.511C56.9808 104.63 57.2595 103.608 56.5827 103.489C50.1201 102.334 45.2897 97.1058 42.9143 91.2005C42.6622 90.5768 41.6274 90.8422 41.8928 91.4792Z" fill="#2B244A"/>
<path d="M42.4401 90.8151C38.3661 91.0274 34.3053 90.563 30.4172 89.2757C28.4532 88.6255 26.184 87.8028 24.4854 86.5554C22.8134 85.3212 21.4466 82.906 23.8883 81.3534C24.5253 80.9553 25.587 80.743 26.277 80.5439C34.0534 78.3145 42.3338 78.089 50.2959 76.8416C50.9727 76.7354 50.6808 75.7136 50.0173 75.8197C43.4087 76.8548 36.7073 77.306 30.1518 78.5667C27.7632 79.0179 22.6939 79.4425 21.4465 82.07C19.8143 85.5336 24.5518 87.962 26.8741 89.0369C31.7443 91.2796 37.1187 92.1687 42.4533 91.89C43.1169 91.8502 43.1301 90.7753 42.4401 90.8151Z" fill="#2B244A"/>
<path d="M620.901 8.15553C620.304 6.44368 618.898 5.46169 617.239 5.48823C617.955 4.01524 618.101 2.51569 617.04 1.16213C615.832 -0.363947 613.868 -0.125072 612.223 0.405736C609.21 1.38773 606.264 2.83418 603.358 4.09485C598.143 6.35079 592.994 8.72616 587.885 11.2077C580.573 11.6987 573.434 13.3176 566.666 16.0115C547.331 22.912 531.54 37.3765 516.107 50.6202C506.632 58.7416 496.865 66.717 485.837 72.6488C473.841 79.1114 470.033 79.4431 456.577 81.0488C436.247 83.4905 421.901 100.742 424.582 107.218C428.045 115.578 428.258 128.769 428.895 137.726C461.805 136.306 486.355 131.316 512.205 119.134C525.356 112.937 535.428 103.529 544.691 92.4877C549.415 86.8479 553.993 81.0754 559.182 75.8469C564.821 70.154 571.244 65.39 577.747 60.7188C585.921 54.8534 609.648 33.5016 613.337 29.0959C615.925 26.004 617.159 22.2352 615.248 18.9575C616.376 17.8428 617.438 16.6618 618.42 15.4011C619.906 13.4504 621.804 10.7698 620.901 8.15553Z" fill="#FFA67D"/>
<path d="M459.422 122.226C459.78 108.691 466.734 93.3769 456.874 81.4735C456.622 81.1683 456.052 81.0887 455.932 81.102C436.438 83.5835 418.683 88.5465 395.473 89.5153C395.221 89.1039 406.527 144.64 406.076 175.307C406.076 175.4 406.102 175.48 406.129 175.559C405.824 175.984 405.996 176.727 406.66 176.687C424.163 175.719 441.335 172.016 457.657 165.646C457.657 165.646 460.072 163.059 461.253 158.56C464.027 148.05 459.064 136.293 459.422 122.226Z" fill="#92C155"/>
<path d="M205.446 125.398C212.068 121.988 217.641 117.091 221.463 110.655C225.856 103.263 226.838 94.996 227.448 86.5827C228.085 77.7846 229.12 69.3314 232.451 61.1039C235.848 52.7171 240.997 45.0602 247.95 39.2213C248.481 38.7834 247.725 38.027 247.194 38.4649C235.596 48.192 228.828 62.9883 227.103 77.8642C225.975 87.5249 226.546 97.7164 222.339 106.74C218.69 114.57 212.532 120.541 204.902 124.469C204.292 124.788 204.836 125.717 205.446 125.398Z" fill="#2B244A"/>
<path d="M446.649 83.1718C454.704 96.3093 449.157 111.49 447.565 125.477C445.919 139.995 454.306 153.876 448.188 168.022C447.923 168.645 448.839 169.189 449.104 168.566C451.97 161.931 452.222 155.163 450.975 148.116C449.621 140.406 447.698 133.413 448.626 125.491C450.285 111.305 455.726 95.9643 447.565 82.6543C447.22 82.0439 446.291 82.5879 446.649 83.1718Z" fill="#2B244A"/>
<path d="M335.349 95.3677C307.906 103.317 295.977 107.457 270.086 118.153C246.81 127.774 222.725 139.08 204.558 156.663C188.103 172.587 178.986 193.713 180.897 216.458C182.702 237.797 193.716 257.888 211.923 270.043C231.324 283.008 256.883 286.512 279.097 279.054C279.402 279.372 279.946 279.452 280.172 278.934C280.225 278.828 280.265 278.722 280.318 278.616C280.981 278.377 281.645 278.178 282.295 277.913C283.131 277.581 282.773 276.241 281.923 276.572C281.658 276.679 281.379 276.758 281.101 276.864C301.67 231.321 318.045 183.8 335.641 137.063C340.83 123.328 337.871 99.4947 335.349 95.3677Z" fill="#F5E3D9"/>
<path d="M288.702 229.808C283.885 233.019 278.816 235.859 273.547 238.261C270.27 239.761 266.913 241.088 263.489 242.242C261.75 242.839 256.455 244.511 255.58 244.857C254.677 245.215 254.027 246.077 254.943 246.529C255.407 246.754 255.633 246.9 256.522 246.754C258.658 246.396 260.795 246.011 262.918 245.573C266.236 244.896 269.527 244.047 272.738 242.959C275.591 242.003 278.391 240.889 281.138 239.628C283.752 238.42 286.619 237.173 288.968 235.501C289.06 235.448 289.419 235.209 289.883 234.904C289.551 233.205 289.153 231.507 288.702 229.808Z" fill="#2B244A"/>
<path d="M288.702 229.729C283.885 232.94 278.816 235.78 273.547 238.182C270.27 239.681 266.913 241.008 263.489 242.163C261.75 242.76 256.455 244.432 255.58 244.777C254.677 245.135 254.027 245.998 254.943 246.449C255.407 246.675 255.633 246.821 256.522 246.675C258.658 246.316 260.795 245.931 262.918 245.494C266.236 244.817 269.527 243.967 272.738 242.879C275.591 241.924 278.391 240.809 281.138 239.548C283.752 238.341 286.619 237.093 288.968 235.421C289.06 235.368 289.419 235.129 289.883 234.824C289.551 233.112 289.153 231.414 288.702 229.729Z" fill="#2B244A"/>
<path d="M281.247 235.408C274.413 215.118 272.9 193.116 276.257 171.99C277.916 161.572 280.743 151.315 284.896 141.601C288.545 133.068 293.11 124.217 299.52 117.422C305.744 110.827 313.56 103.303 322.079 99.8394C322.703 99.5872 322.438 98.5522 321.801 98.8176C314.383 101.83 307.747 107.961 302.028 113.415C295.353 119.771 290.509 127.415 286.462 135.682C276.828 155.322 272.727 177.629 273.616 199.432C274.121 211.76 276.284 223.995 280.225 235.7C280.437 236.337 281.459 236.058 281.247 235.408Z" fill="#2B244A"/>
<path d="M381.914 216.219C369.799 206.227 355.201 205.338 341.228 209.053C341.095 208.788 340.816 208.589 340.445 208.708C325.848 213.379 311.914 219.842 298.936 227.95C299.188 227.393 289.58 313.53 291.743 320.921C286.395 336.142 268.533 364.355 250.977 397.888C244.182 406.925 232.266 421.138 225.644 428.808C219.394 436.067 214.391 444.321 213.343 454.021C212.055 466.004 215.399 473.993 213.581 485.989C211.923 496.937 207.716 508.071 209.322 519.284C209.72 522.098 210.768 525.442 213.674 526.596C217.47 528.122 221.039 525.017 223.375 522.363C231.045 513.631 237.853 503.944 244.673 494.549C251.362 485.352 257.838 475.984 264.075 466.482C264.513 465.819 264.937 465.142 265.362 464.478C298.139 422.982 325.595 386.038 351.884 348.032C366.693 326.627 383.241 304.732 391.827 279.89C398.913 259.401 400.426 231.507 381.914 216.219Z" fill="#FFA67D"/>
<path d="M383.082 217.241C349.216 234.558 319.093 258.604 293.256 286.644C291.823 303.471 290.894 318.081 291.73 320.934C287.536 332.891 275.633 352.823 262.217 377.08C280.954 361.753 299.692 346.413 318.151 330.767C343.019 309.668 366.11 286.591 383.255 258.047C387.727 250.615 391.217 242.627 394.136 234.465C392.013 227.976 388.456 222.045 383.082 217.241Z" fill="#2B244A"/>
<path d="M414.838 92.0497C402.55 81.1416 387.091 78.7795 372.56 83.0392C341.242 92.2222 333.439 96.1767 332.789 96.6279C301.684 117.94 280.504 162.74 282.07 200.6C282.402 208.668 285.255 222.894 287.245 230.697C282.508 247.51 276.205 267.615 269.012 282.915C263.983 293.624 254.428 294.858 242.83 302.303C234.404 307.717 234.204 313.795 232.745 323.894C230.94 336.368 233.979 348.934 231.63 361.408C229.494 372.794 224.676 384.273 225.924 396.057C226.242 399.016 227.211 402.546 230.197 403.873C234.098 405.598 237.96 402.506 240.495 399.812C248.842 390.975 256.326 381.102 263.81 371.534C271.149 362.165 278.261 352.624 285.149 342.91C285.626 342.233 286.091 341.543 286.569 340.866C325.198 296.265 349.589 267.522 378.492 228.759C394.774 206.93 412.901 184.662 422.801 159.011C431.002 137.819 433.629 108.717 414.838 92.0497Z" fill="#FFA67D"/>
<path d="M337.3 157.949C316.373 178.93 299.414 203.679 287.232 230.644C286.263 226.822 285.812 225.216 284.816 219.815C286.926 207.726 289.992 194.721 294.703 184.609C302.24 168.446 313.4 153.491 328.568 143.777C332.762 141.083 341.865 135.337 346.271 140.831C351.181 147.002 340.923 154.327 337.3 157.949Z" fill="#2B244A"/>
<path d="M233.435 110.018C229.998 108.545 227.49 112.579 225.778 114.742C222.487 118.883 218.851 122.758 214.949 126.327C214.777 126.486 214.604 126.646 214.432 126.778C217.152 127.19 219.833 127.575 222.447 127.933C222.858 127.575 223.257 127.216 223.655 126.858C225.844 124.854 240.375 113.004 233.435 110.018Z" fill="#2B244A"/>
<path d="M354.114 54.2698C353.729 53.1684 345.157 47.4091 344.944 47.4224C344.347 47.0774 344.4 47.9267 344.599 48.8158C345.396 52.2926 346.524 55.6367 347.97 58.9012C348.103 59.2064 348.315 59.3391 348.554 59.3656C348.793 59.485 349.058 59.485 349.364 59.2993C351.168 58.2509 354.724 56.0082 354.114 54.2698Z" fill="#FFA67D"/>
<path d="M329.113 50.0898L329.086 48.6035C325.609 48.6566 322.77 51.523 322.77 54.9998C322.77 58.5164 325.663 61.396 329.166 61.396C332.682 61.396 335.562 58.5031 335.562 54.9998C335.588 51.7088 332.404 50.3817 329.113 50.0898Z" fill="#FFA67D"/>
<path d="M328.196 57.6802C326.935 56.0479 326.975 53.9645 328.421 52.4649C328.899 51.974 328.143 51.2176 327.665 51.7086C325.926 53.5398 325.727 56.2071 327.28 58.2242C327.678 58.755 328.607 58.2242 328.196 57.6802Z" fill="#2B244A"/>
<path d="M588.533 11.9908C590.404 12.0837 593.058 12.2164 594.637 13.3842C599.282 16.7681 592.435 21.5056 590.179 22.7662C586.53 24.7833 582.774 26.243 578.647 26.8535C577.97 26.9596 578.262 27.9814 578.926 27.8753C584.712 27.0127 593.456 24.226 596.363 18.6657C599.388 12.9065 592.979 11.1548 588.52 10.9292C587.857 10.9027 587.857 11.9643 588.533 11.9908Z" fill="#2B244A"/>
<path d="M595.791 24.6108C604.138 20.0459 613.466 14.7378 617.686 5.76712C617.978 5.14342 617.063 4.61262 616.771 5.22305C612.617 14.0477 603.461 19.2099 595.26 23.6952C594.649 24.0137 595.193 24.9293 595.791 24.6108Z" fill="#2B244A"/>
<path d="M597.61 32.7049C604.444 29.2414 610.881 25.4063 615.751 19.355C616.175 18.8242 615.432 18.0678 614.994 18.5986C610.19 24.5702 603.807 28.3523 597.066 31.776C596.456 32.0944 597 33.0101 597.61 32.7049Z" fill="#2B244A"/>
<path d="M578.461 27.5033C579.205 32.8644 578.223 38.0398 575.635 42.7906C575.303 43.3877 576.232 43.9318 576.551 43.3346C579.284 38.3185 580.266 32.891 579.483 27.2379C579.39 26.5345 578.368 26.8265 578.461 27.5033Z" fill="#2B244A"/>
<path d="M345.141 47.4488C344.929 49.4924 342.859 48.4308 340.696 49.4925C338.705 50.4745 337.219 50.5673 336.954 49.4659C336.622 48.1389 338.294 46.1616 341.333 45.5512C344.159 44.9806 345.287 45.9626 345.141 47.4488Z" fill="#2B244A"/>
<path d="M343.07 50.3151C341.517 50.7796 342.366 52.9559 342.91 53.7787C343.255 54.3095 343.839 54.8934 344.542 54.6678C345.564 54.3493 345.219 52.9294 344.967 52.1995C344.688 51.3767 344.091 50.0099 343.07 50.3151Z" fill="#2B244A"/>
<path d="M345.141 47.4488C344.929 49.4924 342.859 48.4308 340.696 49.4925C338.705 50.4745 337.219 50.5673 336.954 49.4659C336.622 48.1389 338.294 46.1616 341.333 45.5512C344.159 44.9806 345.287 45.9626 345.141 47.4488Z" fill="#2B244A"/>
<path d="M343.07 50.3151C341.517 50.7796 342.366 52.9559 342.91 53.7787C343.255 54.3095 343.839 54.8934 344.542 54.6678C345.564 54.3493 345.219 52.9294 344.967 52.1995C344.688 51.3767 344.091 50.0099 343.07 50.3151Z" fill="#2B244A"/>
<path d="M348.221 64.1291C346.814 63.6647 345.646 62.8154 344.718 61.6476C344.147 60.931 343.152 61.9396 343.709 62.6561C344.771 64.0097 346.204 64.9652 347.836 65.496C348.712 65.7746 349.083 64.4078 348.221 64.1291Z" fill="#2B244A"/>
</svg>
