<svg width="2385" height="673" viewBox="0 0 2385 673" fill="none" xmlns="http://www.w3.org/2000/svg">
<path d="M2115.3 325.163L2167.14 348.255L2166.27 387.033" stroke="#E0D847" stroke-width="2.835" stroke-miterlimit="10"/>
<path d="M1924.46 293.788L1974.57 319.058L1971.95 357.836" stroke="#E0D847" stroke-width="2.835" stroke-miterlimit="10"/>
<path d="M1822.5 472.426L1832.09 510.332" stroke="#E0D847" stroke-width="2.835" stroke-miterlimit="10"/>
<path d="M1905.29 178.763L1958.88 161.771L1984.15 191.834" stroke="#E0D847" stroke-width="2.835" stroke-miterlimit="10"/>
<path d="M1778.5 224.515L1754.1 254.578" stroke="#E0D847" stroke-width="2.835" stroke-miterlimit="10"/>
<path d="M2151.46 55.4639L2202 30.1931L2231.63 55.0282" stroke="#E0D847" stroke-width="2.835" stroke-miterlimit="10"/>
<path d="M1986.32 475.044L1943.63 511.643L1908.77 494.214" stroke="#E0D847" stroke-width="2.835" stroke-miterlimit="10"/>
<path d="M2364.95 217.11L2383.25 249.788" stroke="#E0D847" stroke-width="2.835" stroke-miterlimit="10"/>
<path d="M2276.5 140.864L2276.06 179.641" stroke="#E0D847" stroke-width="2.835" stroke-miterlimit="10"/>
<path d="M2095.69 248.912L2070.86 278.975" stroke="#E0D847" stroke-width="2.835" stroke-miterlimit="10"/>
<path d="M2252.98 248.043L2228.14 278.106" stroke="#E0D847" stroke-width="2.835" stroke-miterlimit="10"/>
<path d="M1820.76 361.762L1853.88 382.676" stroke="#E0D847" stroke-width="2.835" stroke-miterlimit="10"/>
<path d="M1687.44 449.334L1694.84 393.565L1732.31 383.108" stroke="#E0D847" stroke-width="2.835" stroke-miterlimit="10"/>
<path d="M2110.5 153.499L2128.37 186.177" stroke="#E0D847" stroke-width="2.835" stroke-miterlimit="10"/>
<path d="M529.519 400.565L483.604 359.565L497.383 319.221" stroke="#E0D847" stroke-width="2.835" stroke-miterlimit="10"/>
<path d="M720.695 231.549L721.301 188.665" stroke="#E0D847" stroke-width="2.835" stroke-miterlimit="10"/>
<path d="M517.176 527.88L455.57 530.669L437.33 491.642" stroke="#E0D847" stroke-width="2.835" stroke-miterlimit="10"/>
<path d="M696.938 506.711L731.325 481.784" stroke="#E0D847" stroke-width="2.835" stroke-miterlimit="10"/>
<path d="M515.422 190.955L571.053 164.299L603.037 192.66" stroke="#E0D847" stroke-width="2.835" stroke-miterlimit="10"/>
<path d="M41.0355 356.751L30.9238 316.933" stroke="#E0D847" stroke-width="2.835" stroke-miterlimit="10"/>
<path d="M113.104 462.648L124.575 421.686" stroke="#E0D847" stroke-width="2.835" stroke-miterlimit="10"/>
<path d="M335.354 399.499L370.202 374.697" stroke="#E0D847" stroke-width="2.835" stroke-miterlimit="10"/>
<path d="M168.451 355.766L203.3 330.963" stroke="#E0D847" stroke-width="2.835" stroke-miterlimit="10"/>
<path d="M691.118 349.294L661.971 317.735" stroke="#E0D847" stroke-width="2.835" stroke-miterlimit="10"/>
<path d="M857.24 294.361L833.559 351.348L790.89 351.789" stroke="#E0D847" stroke-width="2.835" stroke-miterlimit="10"/>
<path d="M292.572 496.389L282.922 456.694" stroke="#E0D847" stroke-width="2.835" stroke-miterlimit="10"/>
<path d="M1342.17 453.086L1386.27 488.811L1375.39 526.042" stroke="#E0D847" stroke-width="2.835" stroke-miterlimit="10"/>
<path d="M1125.95 343.387L1167.81 380.765L1155.25 417.545" stroke="#E0D847" stroke-width="2.835" stroke-miterlimit="10"/>
<path d="M1129.06 189.33L1185.22 186.787L1201.85 222.366" stroke="#E0D847" stroke-width="2.835" stroke-miterlimit="10"/>
<path d="M1468.29 132.827L1450.42 186.435L1411.91 189.824" stroke="#E0D847" stroke-width="2.835" stroke-miterlimit="10"/>
<path d="M1138.79 534.479L1088.08 558.78L1058.92 532.924" stroke="#E0D847" stroke-width="2.835" stroke-miterlimit="10"/>
<path d="M1571.28 383.329L1580.5 419.629" stroke="#E0D847" stroke-width="2.835" stroke-miterlimit="10"/>
<path d="M1505.57 286.787L1495.12 324.131" stroke="#E0D847" stroke-width="2.835" stroke-miterlimit="10"/>
<path d="M1302.96 344.359L1271.19 366.97" stroke="#E0D847" stroke-width="2.835" stroke-miterlimit="10"/>
<path d="M1455.12 384.229L1423.35 406.841" stroke="#E0D847" stroke-width="2.835" stroke-miterlimit="10"/>
<path d="M1008.19 382.206L1034.76 410.977" stroke="#E0D847" stroke-width="2.835" stroke-miterlimit="10"/>
<path d="M856.742 432.286L878.331 380.333L917.231 379.931" stroke="#E0D847" stroke-width="2.835" stroke-miterlimit="10"/>
<path d="M1341.97 256.03L1350.76 292.217" stroke="#E0D847" stroke-width="2.835" stroke-miterlimit="10"/>
</svg>
