<svg width="2621" height="793" viewBox="0 0 2621 793" fill="none" xmlns="http://www.w3.org/2000/svg">
<path d="M2329.04 326.022L2385.29 351.076L2384.35 393.146" stroke="#6B65A7" stroke-width="2.835" stroke-miterlimit="10"/>
<path d="M2121.99 291.982L2176.36 319.399L2173.52 361.47" stroke="#6B65A7" stroke-width="2.835" stroke-miterlimit="10"/>
<path d="M2011.38 485.792L2021.78 526.917" stroke="#6B65A7" stroke-width="2.835" stroke-miterlimit="10"/>
<path d="M2101.2 167.188L2159.34 148.753L2186.76 181.369" stroke="#6B65A7" stroke-width="2.835" stroke-miterlimit="10"/>
<path d="M1963.63 216.825L1937.16 249.442" stroke="#6B65A7" stroke-width="2.835" stroke-miterlimit="10"/>
<path d="M2368.27 33.4171L2423.11 6.00012L2455.25 32.9444" stroke="#6B65A7" stroke-width="2.835" stroke-miterlimit="10"/>
<path d="M2189.12 488.632L2142.79 528.339L2104.97 509.431" stroke="#6B65A7" stroke-width="2.835" stroke-miterlimit="10"/>
<path d="M2599.89 208.793L2619.75 244.246" stroke="#6B65A7" stroke-width="2.835" stroke-miterlimit="10"/>
<path d="M2503.93 126.07L2503.46 168.141" stroke="#6B65A7" stroke-width="2.835" stroke-miterlimit="10"/>
<path d="M2307.77 243.295L2280.83 275.911" stroke="#6B65A7" stroke-width="2.835" stroke-miterlimit="10"/>
<path d="M2478.42 242.352L2451.47 274.969" stroke="#6B65A7" stroke-width="2.835" stroke-miterlimit="10"/>
<path d="M2009.49 365.729L2045.41 388.419" stroke="#6B65A7" stroke-width="2.835" stroke-miterlimit="10"/>
<path d="M1864.84 460.739L1872.87 400.233L1913.53 388.888" stroke="#6B65A7" stroke-width="2.835" stroke-miterlimit="10"/>
<path d="M2323.84 139.779L2343.22 175.232" stroke="#6B65A7" stroke-width="2.835" stroke-miterlimit="10"/>
<path d="M398.868 312.982L346.38 270.467L359.326 226.16" stroke="#6B65A7" stroke-width="2.835" stroke-miterlimit="10"/>
<path d="M608.579 407.828L558.765 363.345L573.714 319.575" stroke="#6B65A7" stroke-width="2.835" stroke-miterlimit="10"/>
<path d="M815.992 224.457L816.648 177.93" stroke="#6B65A7" stroke-width="2.835" stroke-miterlimit="10"/>
<path d="M595.188 545.956L528.35 548.982L508.561 506.64" stroke="#6B65A7" stroke-width="2.835" stroke-miterlimit="10"/>
<path d="M790.217 522.988L827.524 495.945" stroke="#6B65A7" stroke-width="2.835" stroke-miterlimit="10"/>
<path d="M274.234 611.866L208.352 625.348L181.944 587.674" stroke="#6B65A7" stroke-width="2.835" stroke-miterlimit="10"/>
<path d="M593.288 180.415L653.644 151.496L688.343 182.266" stroke="#6B65A7" stroke-width="2.835" stroke-miterlimit="10"/>
<path d="M78.6091 360.293L67.6387 317.093" stroke="#6B65A7" stroke-width="2.835" stroke-miterlimit="10"/>
<path d="M156.798 475.183L169.243 430.742" stroke="#6B65A7" stroke-width="2.835" stroke-miterlimit="10"/>
<path d="M397.924 406.671L435.732 379.762" stroke="#6B65A7" stroke-width="2.835" stroke-miterlimit="10"/>
<path d="M216.848 359.224L254.656 332.315" stroke="#6B65A7" stroke-width="2.835" stroke-miterlimit="10"/>
<path d="M783.904 352.202L752.281 317.962" stroke="#6B65A7" stroke-width="2.835" stroke-miterlimit="10"/>
<path d="M964.136 292.604L938.444 354.431L892.15 354.91" stroke="#6B65A7" stroke-width="2.835" stroke-miterlimit="10"/>
<path d="M351.509 511.79L341.039 468.724" stroke="#6B65A7" stroke-width="2.835" stroke-miterlimit="10"/>
<path d="M1446.85 432.261L1494.7 471.02L1482.9 511.413" stroke="#6B65A7" stroke-width="2.835" stroke-miterlimit="10"/>
<path d="M1255.67 345.793L1301.08 386.345L1287.45 426.249" stroke="#6B65A7" stroke-width="2.835" stroke-miterlimit="10"/>
<path d="M1098.66 504.37L1098.06 546.785" stroke="#6B65A7" stroke-width="2.835" stroke-miterlimit="10"/>
<path d="M1259.04 178.651L1319.97 175.892L1338.01 214.494" stroke="#6B65A7" stroke-width="2.835" stroke-miterlimit="10"/>
<path d="M1113.31 190.992L1079.3 215.646" stroke="#6B65A7" stroke-width="2.835" stroke-miterlimit="10"/>
<path d="M1560.47 159.78L1620.53 147.49L1644.6 181.835" stroke="#6B65A7" stroke-width="2.835" stroke-miterlimit="10"/>
<path d="M1269.6 553.114L1214.58 579.479L1182.95 551.427" stroke="#6B65A7" stroke-width="2.835" stroke-miterlimit="10"/>
<path d="M1738.82 389.127L1748.82 428.511" stroke="#6B65A7" stroke-width="2.835" stroke-miterlimit="10"/>
<path d="M1667.53 284.387L1656.19 324.902" stroke="#6B65A7" stroke-width="2.835" stroke-miterlimit="10"/>
<path d="M1447.71 346.848L1413.24 371.379" stroke="#6B65A7" stroke-width="2.835" stroke-miterlimit="10"/>
<path d="M1612.79 390.104L1578.32 414.636" stroke="#6B65A7" stroke-width="2.835" stroke-miterlimit="10"/>
<path d="M1127.9 387.908L1156.73 419.124" stroke="#6B65A7" stroke-width="2.835" stroke-miterlimit="10"/>
<path d="M963.593 442.242L987.016 385.877L1029.22 385.44" stroke="#6B65A7" stroke-width="2.835" stroke-miterlimit="10"/>
<path d="M1490.03 251.016L1499.57 290.277" stroke="#6B65A7" stroke-width="2.835" stroke-miterlimit="10"/>
</svg>
