<svg width="26" height="27" viewBox="0 0 26 27" fill="none" xmlns="http://www.w3.org/2000/svg">
<path d="M6.50065 11.3317C6.50065 7.63321 9.39965 4.83171 13.0007 4.83171C16.6017 4.83171 19.5007 7.63321 19.5007 11.3317C19.5007 14.5622 17.8031 17.29 15.9928 19.2725C15.087 20.2587 14.0846 21.1515 13.0007 21.9375C11.9167 21.1514 10.9143 20.2586 10.0085 19.2725C8.19823 17.29 6.50065 14.5611 6.50065 11.3317ZM12.4308 24.1692L13.0007 23.2484L12.4319 24.1692C12.6029 24.2747 12.7998 24.3305 13.0007 24.3305C13.2015 24.3305 13.3984 24.2747 13.5694 24.1692L13.0007 23.2484L13.5705 24.1692H13.5716L13.5737 24.1681L13.5802 24.1638L13.6019 24.1497C13.7159 24.0779 13.8283 24.0035 13.9388 23.9265C14.162 23.7738 14.4762 23.5495 14.8499 23.2592C15.8331 22.4955 16.7503 21.6504 17.5918 20.7329C19.5732 18.5651 21.6673 15.3346 21.6673 11.3317C21.6673 6.41446 17.776 2.66504 13.0007 2.66504C8.22532 2.66504 4.33398 6.41446 4.33398 11.3317C4.33398 15.3346 6.42807 18.5651 8.40948 20.7329C9.25063 21.6504 10.1675 22.4954 11.1503 23.2592C11.5314 23.5548 11.9235 23.836 12.3257 24.102C12.3572 24.1237 12.3821 24.1389 12.3994 24.1497L12.4211 24.1638L12.4276 24.1681H12.4297V24.1692H12.4308ZM10.834 11.3317C10.834 10.7571 11.0623 10.206 11.4686 9.79964C11.8749 9.39331 12.426 9.16504 13.0007 9.16504C13.5753 9.16504 14.1264 9.39331 14.5327 9.79964C14.939 10.206 15.1673 10.7571 15.1673 11.3317C15.1673 11.9063 14.939 12.4574 14.5327 12.8638C14.1264 13.2701 13.5753 13.4984 13.0007 13.4984C12.426 13.4984 11.8749 13.2701 11.4686 12.8638C11.0623 12.4574 10.834 11.9063 10.834 11.3317ZM13.0007 6.99837C11.8514 6.99837 10.7492 7.45492 9.93652 8.26758C9.12386 9.08023 8.66732 10.1824 8.66732 11.3317C8.66732 12.481 9.12386 13.5832 9.93652 14.3958C10.7492 15.2085 11.8514 15.665 13.0007 15.665C14.1499 15.665 15.2521 15.2085 16.0648 14.3958C16.8774 13.5832 17.334 12.481 17.334 11.3317C17.334 10.1824 16.8774 9.08023 16.0648 8.26758C15.2521 7.45492 14.1499 6.99837 13.0007 6.99837Z" fill="white"/>
</svg>
