<svg width="26" height="27" viewBox="0 0 26 27" fill="none" xmlns="http://www.w3.org/2000/svg">
<path d="M21.1249 24.061H20.9868C5.02118 23.1429 2.7543 9.67166 2.43743 5.56041C2.41189 5.24076 2.44969 4.91921 2.54864 4.61418C2.64759 4.30916 2.80575 4.02666 3.01407 3.78286C3.22239 3.53907 3.47677 3.33878 3.76262 3.19347C4.04848 3.04815 4.3602 2.96067 4.67993 2.93604H9.1568C9.48226 2.93572 9.8003 3.03314 10.0698 3.21567C10.3392 3.3982 10.5476 3.65743 10.6681 3.95979L11.9031 6.99854C12.022 7.29392 12.0515 7.61772 11.9879 7.92973C11.9244 8.24174 11.7705 8.52821 11.5456 8.75354L9.81493 10.5004C10.0853 12.0366 10.821 13.4528 11.9225 14.5572C13.024 15.6616 14.4382 16.401 15.9737 16.6754L17.7368 14.9285C17.9655 14.706 18.2547 14.5558 18.5682 14.4966C18.8818 14.4373 19.2058 14.4717 19.4999 14.5954L22.5631 15.8223C22.8609 15.9465 23.1149 16.1566 23.2929 16.4257C23.4709 16.6948 23.5647 17.0109 23.5624 17.3335V21.6235C23.5624 22.27 23.3056 22.89 22.8485 23.3471C22.3914 23.8042 21.7714 24.061 21.1249 24.061ZM4.87493 4.56104C4.65944 4.56104 4.45278 4.64664 4.3004 4.79901C4.14803 4.95139 4.06243 5.15805 4.06243 5.37354V5.43854C4.43618 10.2485 6.83305 21.6235 21.0762 22.436C21.1829 22.4426 21.2899 22.4281 21.391 22.3932C21.4921 22.3584 21.5854 22.3039 21.6654 22.233C21.7454 22.162 21.8106 22.076 21.8573 21.9798C21.904 21.8835 21.9312 21.779 21.9374 21.6723V17.3335L18.8743 16.1067L16.5424 18.4223L16.1524 18.3735C9.08368 17.4879 8.12493 10.4192 8.12493 10.346L8.07618 9.95604L10.3837 7.62416L9.16493 4.56104H4.87493Z" fill="white"/>
</svg>
