<svg width="532" height="10" viewBox="0 0 532 10" fill="none" xmlns="http://www.w3.org/2000/svg">
<path d="M80.5556 9.12045C76.2702 9.12045 74.1316 7.01481 72.0625 4.97659C70.0833 3.02957 68.2146 1.18962 64.4444 1.18962C60.6743 1.18962 58.8056 3.02957 56.8264 4.97659C54.7573 7.01481 52.6187 9.12045 48.3333 9.12045C44.0479 9.12045 41.9093 7.01481 39.8402 4.97659C37.8611 3.02957 35.9924 1.18962 32.2222 1.18962C28.4521 1.18962 26.5833 3.02957 24.6042 4.97659C22.5351 7.01481 20.3965 9.12045 16.1111 9.12045C11.8257 9.12045 9.68711 7.01481 7.61802 4.97659C5.63889 3.02957 3.77016 1.18962 0 1.18962L0 0C4.28539 0 6.42401 2.10563 8.4931 4.14385C10.4722 6.09087 12.3409 7.93083 16.1111 7.93083C19.8813 7.93083 21.75 6.09087 23.7291 4.14385C25.7982 2.10563 27.9368 0 32.2222 0C36.5076 0 38.6462 2.10563 40.7153 4.14385C42.6945 6.09087 44.5632 7.93083 48.3333 7.93083C52.1035 7.93083 53.9722 6.09087 55.9514 4.14385C58.0205 2.10563 60.159 0 64.4444 0C68.7298 0 70.8684 2.10563 72.9375 4.14385C74.9167 6.09087 76.7854 7.93083 80.5556 7.93083V9.12045Z" fill="black"/>
<path d="M145.001 9.12045C140.715 9.12045 138.577 7.01481 136.508 4.97659C134.529 3.02957 132.66 1.18962 128.89 1.18962C125.12 1.18962 123.251 3.02957 121.272 4.97659C119.203 7.01481 117.064 9.12045 112.779 9.12045C108.493 9.12045 106.355 7.01481 104.286 4.97659C102.306 3.02957 100.438 1.18962 96.6675 1.18962C92.8974 1.18962 91.0287 3.02957 89.0495 4.97659C86.9804 7.01481 84.8418 9.12045 80.5564 9.12045C76.271 9.12045 74.1324 7.01481 72.0633 4.97659C70.0842 3.02957 68.2155 1.18962 64.4453 1.18962V0C68.7307 0 70.8693 2.10563 72.9384 4.14385C74.9175 6.09087 76.7863 7.93083 80.5564 7.93083C84.3266 7.93083 86.1953 6.09087 88.1744 4.14385C90.2435 2.10563 92.3822 0 96.6675 0C100.953 0 103.092 2.10563 105.161 4.14385C107.14 6.09087 109.008 7.93083 112.779 7.93083C116.549 7.93083 118.418 6.09087 120.397 4.14385C122.466 2.10563 124.604 0 128.89 0C133.175 0 135.314 2.10563 137.383 4.14385C139.362 6.09087 141.231 7.93083 145.001 7.93083V9.12045Z" fill="black"/>
<path d="M338.556 9.12045C334.27 9.12045 332.132 7.01481 330.062 4.97659C328.083 3.02957 326.215 1.18962 322.444 1.18962C318.674 1.18962 316.806 3.02957 314.826 4.97659C312.757 7.01481 310.619 9.12045 306.333 9.12045C302.048 9.12045 299.909 7.01481 297.84 4.97659C295.861 3.02957 293.992 1.18962 290.222 1.18962C286.452 1.18962 284.583 3.02957 282.604 4.97659C280.535 7.01481 278.397 9.12045 274.111 9.12045C269.826 9.12045 267.687 7.01481 265.618 4.97659C263.639 3.02957 261.77 1.18962 258 1.18962V0C262.285 0 264.424 2.10563 266.493 4.14385C268.472 6.09087 270.341 7.93083 274.111 7.93083C277.881 7.93083 279.75 6.09087 281.729 4.14385C283.798 2.10563 285.937 0 290.222 0C294.508 0 296.646 2.10563 298.715 4.14385C300.694 6.09087 302.563 7.93083 306.333 7.93083C310.104 7.93083 311.972 6.09087 313.951 4.14385C316.02 2.10563 318.159 0 322.444 0C326.73 0 328.868 2.10563 330.938 4.14385C332.917 6.09087 334.785 7.93083 338.556 7.93083V9.12045Z" fill="black"/>
<path d="M403.001 9.12045C398.715 9.12045 396.577 7.01481 394.508 4.97659C392.529 3.02957 390.66 1.18962 386.89 1.18962C383.12 1.18962 381.251 3.02957 379.272 4.97659C377.203 7.01481 375.064 9.12045 370.779 9.12045C366.493 9.12045 364.355 7.01481 362.286 4.97659C360.306 3.02957 358.438 1.18962 354.668 1.18962C350.897 1.18962 349.029 3.02957 347.05 4.97659C344.98 7.01481 342.842 9.12045 338.556 9.12045C334.271 9.12045 332.132 7.01481 330.063 4.97659C328.084 3.02957 326.215 1.18962 322.445 1.18962V0C326.731 0 328.869 2.10563 330.938 4.14385C332.918 6.09087 334.786 7.93083 338.556 7.93083C342.327 7.93083 344.195 6.09087 346.174 4.14385C348.244 2.10563 350.382 0 354.668 0C358.953 0 361.092 2.10563 363.161 4.14385C365.14 6.09087 367.008 7.93083 370.779 7.93083C374.549 7.93083 376.418 6.09087 378.397 4.14385C380.466 2.10563 382.604 0 386.89 0C391.175 0 393.314 2.10563 395.383 4.14385C397.362 6.09087 399.231 7.93083 403.001 7.93083V9.12045Z" fill="black"/>
<path d="M209.556 9.12045C205.27 9.12045 203.132 7.01481 201.062 4.97659C199.083 3.02957 197.215 1.18962 193.444 1.18962C189.674 1.18962 187.806 3.02957 185.826 4.97659C183.757 7.01481 181.619 9.12045 177.333 9.12045C173.048 9.12045 170.909 7.01481 168.84 4.97659C166.861 3.02957 164.992 1.18962 161.222 1.18962C157.452 1.18962 155.583 3.02957 153.604 4.97659C151.535 7.01481 149.397 9.12045 145.111 9.12045C140.826 9.12045 138.687 7.01481 136.618 4.97659C134.639 3.02957 132.77 1.18962 129 1.18962V0C133.285 0 135.424 2.10563 137.493 4.14385C139.472 6.09087 141.341 7.93083 145.111 7.93083C148.881 7.93083 150.75 6.09087 152.729 4.14385C154.798 2.10563 156.937 0 161.222 0C165.508 0 167.646 2.10563 169.715 4.14385C171.694 6.09087 173.563 7.93083 177.333 7.93083C181.104 7.93083 182.972 6.09087 184.951 4.14385C187.02 2.10563 189.159 0 193.444 0C197.73 0 199.868 2.10563 201.938 4.14385C203.917 6.09087 205.785 7.93083 209.556 7.93083V9.12045Z" fill="black"/>
<path d="M274.001 9.12045C269.715 9.12045 267.577 7.01481 265.508 4.97659C263.529 3.02957 261.66 1.18962 257.89 1.18962C254.12 1.18962 252.251 3.02957 250.272 4.97659C248.203 7.01481 246.064 9.12045 241.779 9.12045C237.493 9.12045 235.355 7.01481 233.286 4.97659C231.306 3.02957 229.438 1.18962 225.668 1.18962C221.897 1.18962 220.029 3.02957 218.05 4.97659C215.98 7.01481 213.842 9.12045 209.556 9.12045C205.271 9.12045 203.132 7.01481 201.063 4.97659C199.084 3.02957 197.215 1.18962 193.445 1.18962V0C197.731 0 199.869 2.10563 201.938 4.14385C203.918 6.09087 205.786 7.93083 209.556 7.93083C213.327 7.93083 215.195 6.09087 217.174 4.14385C219.244 2.10563 221.382 0 225.668 0C229.953 0 232.092 2.10563 234.161 4.14385C236.14 6.09087 238.008 7.93083 241.779 7.93083C245.549 7.93083 247.418 6.09087 249.397 4.14385C251.466 2.10563 253.604 0 257.89 0C262.175 0 264.314 2.10563 266.383 4.14385C268.362 6.09087 270.231 7.93083 274.001 7.93083V9.12045Z" fill="black"/>
<path d="M467.556 9.12045C463.27 9.12045 461.132 7.01481 459.062 4.97659C457.083 3.02957 455.215 1.18962 451.444 1.18962C447.674 1.18962 445.806 3.02957 443.826 4.97659C441.757 7.01481 439.619 9.12045 435.333 9.12045C431.048 9.12045 428.909 7.01481 426.84 4.97659C424.861 3.02957 422.992 1.18962 419.222 1.18962C415.452 1.18962 413.583 3.02957 411.604 4.97659C409.535 7.01481 407.397 9.12045 403.111 9.12045C398.826 9.12045 396.687 7.01481 394.618 4.97659C392.639 3.02957 390.77 1.18962 387 1.18962V0C391.285 0 393.424 2.10563 395.493 4.14385C397.472 6.09087 399.341 7.93083 403.111 7.93083C406.881 7.93083 408.75 6.09087 410.729 4.14385C412.798 2.10563 414.937 0 419.222 0C423.508 0 425.646 2.10563 427.715 4.14385C429.694 6.09087 431.563 7.93083 435.333 7.93083C439.104 7.93083 440.972 6.09087 442.951 4.14385C445.02 2.10563 447.159 0 451.444 0C455.73 0 457.868 2.10563 459.938 4.14385C461.917 6.09087 463.785 7.93083 467.556 7.93083V9.12045Z" fill="black"/>
<path d="M532.001 9.12045C527.715 9.12045 525.577 7.01481 523.508 4.97659C521.529 3.02957 519.66 1.18962 515.89 1.18962C512.12 1.18962 510.251 3.02957 508.272 4.97659C506.203 7.01481 504.064 9.12045 499.779 9.12045C495.493 9.12045 493.355 7.01481 491.286 4.97659C489.306 3.02957 487.438 1.18962 483.668 1.18962C479.897 1.18962 478.029 3.02957 476.05 4.97659C473.98 7.01481 471.842 9.12045 467.556 9.12045C463.271 9.12045 461.132 7.01481 459.063 4.97659C457.084 3.02957 455.215 1.18962 451.445 1.18962V0C455.731 0 457.869 2.10563 459.938 4.14385C461.918 6.09087 463.786 7.93083 467.556 7.93083C471.327 7.93083 473.195 6.09087 475.174 4.14385C477.244 2.10563 479.382 0 483.668 0C487.953 0 490.092 2.10563 492.161 4.14385C494.14 6.09087 496.008 7.93083 499.779 7.93083C503.549 7.93083 505.418 6.09087 507.397 4.14385C509.466 2.10563 511.604 0 515.89 0C520.175 0 522.314 2.10563 524.383 4.14385C526.362 6.09087 528.231 7.93083 532.001 7.93083V9.12045Z" fill="black"/>
</svg>
