<svg width="88" height="85" viewBox="0 0 88 85" fill="none" xmlns="http://www.w3.org/2000/svg">
<path opacity="0.2" d="M41.6111 0C7.0867 0.000105162 -5.25434 45.1497 1.99649 63.0298C10.4044 83.7631 23.3902 87.3929 54.8163 83.7631C90.7171 79.6164 97.3186 37.7345 75.4425 33.1768C54.4672 28.8069 84.1136 -0.000129462 41.6111 0Z" fill="#92C155"/>
<path d="M41.4998 15.5001C29.8998 13.1001 29.3331 21.1668 30.4998 25.5001C23.4996 27.5002 24.5 35 33 34.5C33 40 36.5 45.5 47 41C54.5 44.5 59 43.5 61.5 35C71 34 69 27.5 63.5 25.5001C64.5 14.5002 60 15 52 15C46.5 9 46 11 41.4998 15.5001Z" fill="#92C155"/>
<path d="M59.9867 66.4683H53.9629V75.739H56.1288V72.3045H59.9867C60.4016 72.3045 60.739 72.642 60.739 73.0567V75.739H62.9049V73.0567C62.9049 72.3617 62.6599 71.7234 62.2527 71.2216C62.6599 70.7198 62.9049 70.0814 62.9049 69.3865C62.9049 67.7773 61.5959 66.4683 59.9867 66.4683ZM59.9867 70.1386H56.1288V68.6342H59.9867C60.4016 68.6342 60.739 68.9716 60.739 69.3863C60.739 69.801 60.4016 70.1386 59.9867 70.1386Z" fill="black"/>
<path d="M25.5413 66.4683C23.0761 66.4683 21.0703 68.4739 21.0703 70.9391V75.8888H23.2362V73.0731H27.8465V75.8888H30.0124V70.9391C30.0124 68.4739 28.0066 66.4683 25.5413 66.4683ZM23.2378 70.9072C23.2551 69.651 24.2809 68.634 25.5413 68.634C26.8018 68.634 27.8275 69.651 27.8449 70.9072H23.2378Z" fill="black"/>
<path d="M69.3968 66.4683C66.9316 66.4683 64.9258 68.4739 64.9258 70.9391V75.8888H67.0917V73.0731H71.7019V75.8888H73.8678V70.9391C73.8678 68.4739 71.8621 66.4683 69.3968 66.4683ZM67.0933 70.9072C67.1106 69.651 68.1364 68.634 69.3968 68.634C70.6572 68.634 71.683 69.651 71.7003 70.9072H67.0933Z" fill="black"/>
<path d="M49.7742 71.5155C49.7742 72.7866 48.7402 73.8206 47.4691 73.8206C46.198 73.8206 45.164 72.7866 45.164 71.5155V66.4214H42.998V71.5155C42.998 73.9809 45.0038 75.9865 47.4691 75.9865C49.9343 75.9865 51.9401 73.9809 51.9401 71.5155V66.4214H49.7742V71.5155Z" fill="black"/>
<path d="M77.8397 66.6477H75.6738V75.9749H83.966V73.809H77.8397V66.6477Z" fill="black"/>
<path d="M16.8836 72.506L12.7176 66.4935H10.1074V75.9143H12.2733V69.6554L16.6697 76.0002H19.0495V66.3589H16.8836V72.506Z" fill="black"/>
<path d="M32.2148 68.7841H35.4234V75.8887H37.5894V68.7841H40.7978V66.6182H32.2148V68.7841Z" fill="black"/>
<path d="M17.8875 58.0183C14.1673 52.3504 12.2011 45.7563 12.2011 38.949C12.2011 21.8829 24.9046 7.09169 41.7505 4.54313L41.4265 2.40161C32.7731 3.71069 24.8323 8.09176 19.0667 14.7381C13.2427 21.452 10.0352 30.0503 10.0352 38.949C10.0352 46.1798 12.1243 53.1849 16.0766 59.2067L17.8875 58.0183Z" fill="black"/>
<path d="M45.9313 4.16613L45.8659 2.00122C45.1249 2.0236 44.3762 2.06851 43.6406 2.13479L43.835 4.29189C44.5278 4.22952 45.2332 4.18721 45.9313 4.16613Z" fill="black"/>
<path d="M81.799 38.9489C81.799 45.7428 79.84 52.3261 76.1336 57.9865L77.9456 59.173C81.8835 53.1589 83.9651 46.1655 83.9651 38.9489C83.9651 30.0434 80.7532 21.4401 74.9211 14.7239C69.1473 8.07493 61.197 3.6966 52.5347 2.39575L52.2129 4.5377C69.0799 7.07067 81.799 21.8643 81.799 38.9489Z" fill="black"/>
<path d="M74.931 59.708C74.5151 60.2667 74.0765 60.8207 73.627 61.3545L75.2839 62.7495C75.7611 62.1826 76.2269 61.5945 76.6686 61.0013L74.931 59.708Z" fill="black"/>
<path d="M50.3201 2.1314C49.5835 2.0657 48.8348 2.02151 48.0942 2L48.0312 4.16505C48.7288 4.18527 49.4342 4.22685 50.1277 4.28865L50.3201 2.1314Z" fill="black"/>
<path d="M17.3555 61.0339C17.7895 61.6158 18.2472 62.1929 18.7158 62.7494L20.3727 61.3544C19.9313 60.8303 19.5003 60.2866 19.0917 59.7388L17.3555 61.0339Z" fill="black"/>
<path d="M44.8351 43.4435C45.5902 43.1909 46.3178 42.8512 47.0011 42.4249C47.6842 42.851 48.4121 43.1895 49.167 43.442V53.0996C49.167 57.7573 52.9563 61.5466 57.614 61.5466V59.3807C54.1506 59.3807 51.3329 56.563 51.3329 53.0996V51.3935L57.6051 47.5235L56.4677 45.6801L51.3327 48.8484V43.9195C51.7297 43.9642 52.1295 43.9878 52.5303 43.9878C54.253 43.9878 55.9912 43.5743 57.5758 42.7361C60.3077 41.291 62.0246 38.8566 62.3395 36.07C63.985 36.1248 65.6051 35.6073 66.857 34.5987C68.2322 33.4908 69.0209 31.8951 69.0209 30.221C69.0209 27.7814 67.3825 25.6554 64.9769 24.7851C65.834 22.0392 65.1838 19.1605 63.1353 16.8808C60.5854 14.0433 56.6522 12.922 52.8783 13.8843C51.8599 11.8062 49.5898 10.4312 47.0008 10.4312C44.4109 10.4312 42.14 11.8074 41.122 13.8867C37.3837 12.951 33.367 14.0929 30.8552 16.8883C28.8115 19.1625 28.1651 22.0383 29.0242 24.7853C26.6189 25.6555 24.9805 27.7816 24.9805 30.221C24.9805 31.8951 25.7694 33.4909 27.1448 34.599C28.3967 35.6076 30.0203 36.1235 31.6619 36.07C31.9771 38.8564 33.6942 41.2906 36.4268 42.7361C38.3798 43.7692 40.5657 44.1559 42.6688 43.9195V48.6704L37.8226 45.6803L36.6852 47.5236L42.6686 51.2155V53.0997C42.6686 56.5632 39.8509 59.3809 36.3875 59.3809V61.5468C41.0452 61.5468 44.8346 57.7574 44.8346 53.0997V43.4435H44.8351ZM37.4401 40.8216C35.0212 39.5419 33.6873 37.3818 33.7803 34.8949L33.8324 33.499L32.4676 33.7963C31.0546 34.1039 29.5731 33.7735 28.5043 32.9124C27.629 32.2071 27.147 31.2514 27.147 30.2208C27.147 28.4397 28.6202 26.9146 30.6503 26.5944L32.0946 26.3665L31.4555 25.0512C30.3349 22.7455 30.7035 20.2979 32.4667 18.3357C34.2649 16.3347 37.7288 14.9093 41.413 16.2361L42.5328 16.6392L42.8288 15.4867C43.2589 13.8123 45.0138 12.5969 47.0012 12.5969C48.9886 12.5969 50.7435 13.8123 51.1736 15.4867L51.4696 16.6392L52.5894 16.2361C55.8273 15.07 59.3346 15.8914 61.5247 18.3284C63.2678 20.2683 63.65 22.7815 62.5468 25.0514L61.9078 26.3665L63.3521 26.5944C65.3822 26.9145 66.8554 28.4397 66.8554 30.2208C66.8554 31.2514 66.3736 32.2071 65.4987 32.9121C64.4296 33.7735 62.9481 34.1038 61.5348 33.7963L60.17 33.499L60.2221 34.8949C60.3152 37.3822 58.9816 39.5424 56.5634 40.8214C53.6856 42.3436 50.1847 42.1176 47.6438 40.2451L47.0013 39.7718L46.3589 40.2451C43.818 42.1174 40.3172 42.3433 37.4401 40.8216Z" fill="black"/>
<path d="M44.263 30.2884V32.4543C46.5689 32.4543 48.4447 30.5785 48.4447 28.2726C48.4447 27.0752 47.9302 25.9333 47.033 25.1399C46.4562 24.6299 45.7549 24.2946 45.0109 24.1594C44.9353 23.1982 44.566 22.2759 43.9356 21.518C43.0363 20.4369 41.7146 19.8169 40.3097 19.8169C37.7093 19.8169 35.5938 21.9324 35.5938 24.5328H37.7597C37.7597 23.1267 38.9036 21.9828 40.3097 21.9828C41.0693 21.9828 41.7839 22.3182 42.2704 22.903C42.7559 23.4867 42.9547 24.2514 42.8158 25.0011L42.5469 26.4537L44.0131 26.2732C44.5973 26.201 45.16 26.3751 45.5983 26.7624C46.0307 27.1449 46.2789 27.6955 46.2789 28.2726C46.2788 29.384 45.3746 30.2884 44.263 30.2884Z" fill="black"/>
</svg>
