<svg width="89" height="89" viewBox="0 0 89 89" fill="none" xmlns="http://www.w3.org/2000/svg">
<path opacity="0.2" d="M-1.81888e-06 46.8889C0.000104852 81.4133 45.1497 93.7543 63.0298 86.5035C83.7631 78.0956 87.3929 65.1098 83.7631 33.6837C79.6164 -2.21713 37.7345 -8.81857 33.1768 13.0575C28.8069 34.0328 -0.000133139 4.38635 -1.81888e-06 46.8889Z" fill="#92C155"/>
<path d="M52.694 45.9998L47.694 43.4998L45.6934 44.2146L39.1934 46.4998H35.1934L36.6934 44.2146L39.1934 41.4998L43.1934 39.9998L38.6934 39.4998L34.1934 37.9998L30.6934 35.9998L29.6934 33.9998L34.6934 34.4998L38.1934 34.9998L37.1934 31.9998L35.1934 26.9998L34.6934 22.9998L37.9004 24.9998L41.694 30.9998L44.694 35.4998L44.194 27.9998L45.194 21.4998L47.194 16.9998L48.694 21.4998L49.694 29.4998L50.194 34.4998L53.694 28.4998L56.694 25.4998L59.694 22.9998L58.194 30.4998L55.694 34.9998H58.694L64.194 33.9998L63.194 36.4998L57.694 38.9998L51.194 39.9998L53.194 40.4998L57.194 43.9998L59.194 46.9998L52.694 45.9998Z" fill="#92C155"/>
<path d="M55.4692 53.7876C54.933 54.3673 55.2579 54.6846 55.1618 59.4996C55.1618 59.8063 55.2836 60.1004 55.5004 60.3172C55.7173 60.5341 56.0114 60.6559 56.318 60.6559C56.6247 60.6559 56.9188 60.5341 57.1356 60.3172C57.3525 60.1004 57.4743 59.8063 57.4743 59.4996V55.0471C59.5213 53.0997 64.4238 50.4766 67.7794 50.4766C72.3286 50.4766 75.9118 55.2431 76.9017 56.704C77.0746 56.9557 77.3401 57.1287 77.6401 57.1854C77.9402 57.2421 78.2505 57.1778 78.5033 57.0065C78.7561 56.8352 78.9309 56.5709 78.9895 56.2712C79.0481 55.9716 78.9858 55.6609 78.8162 55.407C77.3407 53.2292 73.3114 48.1641 67.7794 48.1641C63.4394 48.1641 57.5899 51.4946 55.4692 53.7876Z" fill="black"/>
<path d="M60.9423 61.8123C51.8928 61.8123 47.4213 68.9997 47.2354 69.3056C47.1261 69.4868 47.0684 69.6944 47.0684 69.906C47.0684 70.1176 47.1261 70.3252 47.2354 70.5064C47.4213 70.8124 51.8928 77.9998 60.9423 77.9998C69.9918 77.9998 74.4633 70.8124 74.6492 70.5064C74.784 70.2839 74.84 70.0224 74.8082 69.7642C74.7906 69.6258 69.4903 61.8123 60.9423 61.8123ZM67.8798 71.0623H71.2702C65.4192 77.3012 56.3331 77.1759 50.6137 71.0623H63.2548C63.5615 71.0623 63.8556 70.9404 64.0724 70.7236C64.2892 70.5068 64.4111 70.2127 64.4111 69.906C64.4111 69.5993 64.2892 69.3053 64.0724 69.0884C63.8556 68.8716 63.5615 68.7498 63.2548 68.7498H50.6144C56.465 62.5112 65.5513 62.6361 71.2708 68.7498H67.8798C67.5731 68.7498 67.2791 68.8716 67.0622 69.0884C66.8454 69.3053 66.7236 69.5993 66.7236 69.906C66.7236 70.2127 66.8454 70.5068 67.0622 70.7236C67.2791 70.9404 67.5731 71.0623 67.8798 71.0623Z" fill="black"/>
<path d="M88.5255 65.8367C85.1521 60.2912 77.6583 57.8648 71.4193 60.6769C71.2809 60.7394 71.1561 60.8284 71.0521 60.9391C70.9481 61.0497 70.8669 61.1798 70.8131 61.3218C70.7594 61.4638 70.7341 61.615 70.7388 61.7668C70.7435 61.9186 70.7781 62.0679 70.8405 62.2064C70.9029 62.3448 70.992 62.4696 71.1026 62.5736C71.2132 62.6776 71.3433 62.7588 71.4853 62.8126C71.6273 62.8663 71.7785 62.8916 71.9303 62.8869C72.0821 62.8822 72.2315 62.8476 72.3699 62.7852C76.3467 60.993 81.4096 61.5746 85.1063 65.2808H78.2873C77.9806 65.2808 77.6865 65.4027 77.4697 65.6195C77.2529 65.8363 77.1311 66.1304 77.1311 66.4371C77.1311 66.7437 77.2529 67.0378 77.4697 67.2547C77.6865 67.4715 77.9806 67.5933 78.2873 67.5933H85.1048C83.6773 69.0242 81.1905 70.8344 77.616 71.0424C76.0955 71.1307 76.2166 73.4416 77.7504 73.3509C84.0012 72.9877 88.6936 67.8888 88.6936 66.4372C88.6926 66.2256 88.6345 66.0181 88.5255 65.8367Z" fill="black"/>
<path d="M43.5959 66.4373H21.6272V64.1248H48.2209C48.5276 64.1248 48.8217 64.0029 49.0385 63.7861C49.2554 63.5693 49.3772 63.2752 49.3772 62.9685C49.3772 62.6618 49.2554 62.3678 49.0385 62.1509C48.8217 61.9341 48.5276 61.8123 48.2209 61.8123H22.3417L25.8105 54.8748H32.0334C32.3401 54.8748 32.6342 54.7529 32.851 54.5361C33.0679 54.3193 33.1897 54.0252 33.1897 53.7185C33.1897 53.4118 33.0679 53.1178 32.851 52.9009C32.6342 52.6841 32.3401 52.5623 32.0334 52.5623H26.2522C26.2233 19.3322 26.3263 21.3062 26.1695 20.9141L22.1787 10.9373H29.7209C30.0276 10.9373 30.3217 10.8154 30.5385 10.5986C30.7554 10.3818 30.8772 10.0877 30.8772 9.78101C30.8772 9.47435 30.7554 9.18025 30.5385 8.96341C30.3217 8.74657 30.0276 8.62476 29.7209 8.62476H21.6272V6.31226H63.2522V8.62476H38.9709C38.6643 8.62476 38.3702 8.74657 38.1533 8.96341C37.9365 9.18025 37.8147 9.47435 37.8147 9.78101C37.8147 10.0877 37.9365 10.3818 38.1533 10.5986C38.3702 10.8154 38.6643 10.9373 38.9709 10.9373H63.6257L67.3256 20.1873H64.4084C64.1018 20.1873 63.8077 20.3091 63.5908 20.5259C63.374 20.7428 63.2522 21.0368 63.2522 21.3435C63.2522 21.6502 63.374 21.9443 63.5908 22.1611C63.8077 22.3779 64.1018 22.4998 64.4084 22.4998H67.8772V44.4685C67.8772 44.7752 67.999 45.0693 68.2158 45.2861C68.4327 45.5029 68.7268 45.6248 69.0334 45.6248C69.3401 45.6248 69.6342 45.5029 69.851 45.2861C70.0679 45.0693 70.1897 44.7752 70.1897 44.4685C70.1787 19.9892 70.2303 21.2059 70.0982 20.8923L65.5647 9.55828V5.15601C65.5647 4.84935 65.4429 4.55525 65.226 4.33841C65.0092 4.12157 64.7151 3.99976 64.4084 3.99976H20.4709C20.1643 3.99976 19.8702 4.12157 19.6533 4.33841C19.4365 4.55525 19.3147 4.84935 19.3147 5.15601V9.55828C14.5741 21.4867 14.6897 20.9338 14.6897 21.3435C14.733 55.7139 14.5801 53.7726 14.8118 54.2356L19.3147 63.2414V67.5935C19.3147 67.9002 19.4365 68.1943 19.6533 68.4111C19.8702 68.6279 20.1643 68.7498 20.4709 68.7498H43.5959C43.9026 68.7498 44.1967 68.6279 44.4135 68.4111C44.6304 68.1943 44.7522 67.9002 44.7522 67.5935C44.7522 67.2868 44.6304 66.9928 44.4135 66.7759C44.1967 66.5591 43.9026 66.4373 43.5959 66.4373ZM17.0022 53.4455V21.5662L20.4709 12.8944L23.9397 21.5662V53.4455L20.4709 60.383L17.0022 53.4455Z" fill="black"/>
<path d="M47.0645 52.5623C47.3711 52.5623 47.6652 52.4404 47.8821 52.2236C48.0989 52.0068 48.2207 51.7127 48.2207 51.406V45.2045C51.2244 47.3846 55.8719 48.1107 59.2574 47.7771C59.9934 47.704 60.6202 46.9193 60.0836 45.9445C58.9314 43.822 57.2865 42.0071 55.2872 40.6526C62.3367 39.5448 66.0429 35.4784 65.5152 33.7295C65.4364 33.4681 65.2676 33.2431 65.0388 33.0942C64.8099 32.9453 64.5358 32.8821 64.2649 32.916L57.4689 33.7654C59.3593 30.401 60.5386 26.6843 60.9337 22.8455C60.9545 22.6362 60.9179 22.4252 60.8279 22.2351C60.7378 22.0451 60.5976 21.8832 60.4224 21.7668C60.2471 21.6505 60.0435 21.5841 59.8334 21.5748C59.6233 21.5655 59.4146 21.6137 59.2298 21.7141C56.531 23.1851 53.7305 26.2506 50.8759 30.8513C50.8836 24.9935 49.7392 20.9741 48.1923 16.4631C47.9218 15.2686 46.2077 15.2671 45.9376 16.4631C44.5031 20.6508 43.2458 24.6973 43.2542 30.8512C40.3993 26.2503 37.5988 23.185 34.9003 21.7138C34.7155 21.6134 34.5068 21.5652 34.2967 21.5745C34.0866 21.5838 33.883 21.6502 33.7078 21.7665C33.5325 21.8829 33.3924 22.0448 33.3023 22.2348C33.2122 22.4249 33.1756 22.6359 33.1964 22.8452C33.5915 26.684 34.7708 30.4007 36.6611 33.7651L29.8653 32.9157C29.0134 32.8097 27.7385 33.7061 29.3408 35.8628C30.2713 37.1153 32.8708 39.7141 38.843 40.6527C36.797 42.0209 35.2255 43.8251 34.0205 45.9917C33.9115 46.1581 33.8472 46.3497 33.8338 46.5481C33.8204 46.7466 33.8584 46.9451 33.9441 47.1246C34.0298 47.3041 34.1604 47.4584 34.3231 47.5728C34.4859 47.6871 34.6754 47.7575 34.8733 47.7773C35.1866 47.808 41.5252 48.3886 45.9101 45.2065V51.406C45.9101 51.7123 46.0317 52.0062 46.2481 52.2229C46.4645 52.4397 46.7582 52.5618 47.0645 52.5623ZM37.0774 45.5048C38.3286 43.8329 40.511 41.7061 43.8445 40.9727C45.1886 40.677 44.9718 38.6873 43.5962 38.6873C39.7691 38.6873 35.0977 37.9957 32.2052 35.5379L38.8278 36.3658C39.0547 36.3934 39.2847 36.3533 39.4889 36.2504C39.693 36.1475 39.8621 35.9864 39.9748 35.7876C40.0876 35.5887 40.1389 35.3609 40.1224 35.1329C40.1059 34.9049 40.0222 34.6869 39.882 34.5064C39.8502 34.4655 37.1056 30.8886 35.9148 25.2837C37.947 27.1006 40.5997 30.3985 43.7284 36.363C44.3281 37.506 46.0749 36.9451 45.8977 35.6671C45.1879 30.5354 45.5858 25.3112 47.0645 20.3462C48.5434 25.311 48.9414 30.535 48.2317 35.6665C48.0544 36.9449 49.8016 37.505 50.4008 36.3625C53.5297 30.3979 56.1821 27.1 58.2145 25.2831C57.0238 30.8879 54.2793 34.4648 54.2486 34.5042C54.1076 34.6846 54.0233 34.9027 54.0063 35.131C53.9894 35.3592 54.0405 35.5874 54.1532 35.7866C54.2659 35.9858 54.4352 36.1471 54.6396 36.2501C54.844 36.3531 55.0744 36.3932 55.3016 36.3652L61.924 35.5373C59.0325 37.9944 54.362 38.6867 50.5332 38.6867C49.1571 38.6867 48.9417 40.6767 50.2848 40.9722C53.6184 41.7055 55.8007 43.8323 57.0519 45.5042C54.5301 45.4103 50.23 44.7827 47.9914 41.7802C47.8837 41.6359 47.7439 41.5187 47.583 41.438C47.4221 41.3573 47.2445 41.3152 47.0645 41.3152C46.8844 41.3152 46.7069 41.3573 46.546 41.438C46.3851 41.5187 46.2452 41.6359 46.1376 41.7802C43.8984 44.7839 39.5983 45.411 37.0769 45.5048H37.0774Z" fill="black"/>
<path d="M36.6621 54.8748C37.3007 54.8748 37.8184 54.3571 37.8184 53.7185C37.8184 53.0799 37.3007 52.5623 36.6621 52.5623C36.0235 52.5623 35.5059 53.0799 35.5059 53.7185C35.5059 54.3571 36.0235 54.8748 36.6621 54.8748Z" fill="black"/>
<path d="M34.3496 10.9373C34.9882 10.9373 35.5059 10.4196 35.5059 9.78101C35.5059 9.14243 34.9882 8.62476 34.3496 8.62476C33.711 8.62476 33.1934 9.14243 33.1934 9.78101C33.1934 10.4196 33.711 10.9373 34.3496 10.9373Z" fill="black"/>
</svg>
