<svg width="262" height="326" viewBox="0 0 262 326" fill="none" xmlns="http://www.w3.org/2000/svg">
<path d="M228.581 304.182C227.56 281.198 198.811 276.977 182.506 269.395C148.711 253.668 138.34 201.732 98.1368 197.917C92.5803 197.385 85.7775 198.293 82.1297 203.031C73.3653 214.42 92.635 227.858 100.536 233.226C129.185 252.732 145.696 279.156 169.981 303.072C179.677 312.621 191.885 321.598 205.874 322.914C217.874 324.057 229.164 317.27 228.581 304.182Z" fill="black"/>
<path d="M51.5828 129.535C47.243 124.04 43.0612 118.078 38.1929 113.045C32.9596 107.636 22.2878 108.57 21.9927 117.521C21.9045 120.096 22.8834 122.632 24.3062 124.772C27.3236 129.33 31.9271 132.821 36.253 136.061C39.6744 138.618 50.0121 146.425 54.1461 141.258C57.2285 137.4 54.0538 132.658 51.5828 129.535Z" fill="black"/>
<path d="M246.46 45.3045C240.861 39.9544 233.623 37.2002 232.987 44.9206C232.555 50.1816 243.24 63.5733 249.403 61.4762C256.26 59.1415 252.241 50.8427 246.46 45.3045Z" fill="black"/>
<path d="M185.459 25.7197C182.211 22.2362 169.204 9.74645 163.231 21.0189C156.546 33.6532 175.736 53.0473 186.101 55.8785C189.573 56.8284 194.606 55.6213 196.011 51.3334C197.497 46.7991 194.899 41.5109 193.392 37.9268C191.486 33.3865 188.798 29.291 185.459 25.7197Z" fill="black"/>
</svg>
