<svg width="409" height="326" viewBox="0 0 409 326" fill="none" xmlns="http://www.w3.org/2000/svg">
<path d="M106.254 106.048C101.404 97.3047 94.1676 89.7888 87.055 82.8508C77.2361 73.2615 48.6693 41.7449 32.7244 51.833C15.4366 62.7729 37.2235 94.79 47.3905 103.819C53.8969 109.61 61.4414 113.45 69.7226 116.046C77.98 118.627 85.5521 122.343 91.9739 128.2C97.2746 133.041 103.989 138.268 108.854 128.886C112.62 121.64 109.954 112.721 106.254 106.048Z" fill="#F2E950"/>
<path d="M398.918 107.613C395.964 98.6469 389.102 91.4313 381.774 85.7607C372.993 78.9701 362.923 73.9723 354.508 66.6875C350.107 62.8878 346.572 58.4869 343.466 53.5992C340.791 49.39 338.265 45.0065 334.804 41.3823C328.155 34.4225 317.873 32.395 309.411 37.4704C302.932 41.3606 299.861 48.6765 300.471 55.8279C301.758 71.2908 314.327 82.73 326.511 90.7311C341.022 100.263 355.553 109.516 369.902 119.438C372.611 121.309 375.332 123.194 378.041 125.065C380.573 126.812 383.182 129.093 386.118 130.133C389.078 131.189 392.069 130.686 394.561 128.78C400.983 123.859 401.243 114.661 398.918 107.613Z" fill="#F2E950"/>
<path d="M166.12 263.57C161.02 256.499 153.326 251.003 145.183 248C142.448 246.997 138.907 246.09 136.307 247.932C133.987 249.577 133.675 252.74 134.66 255.225C136.204 259.146 140.881 260.943 144.188 263.167C149.38 266.664 154.267 271.11 160.042 273.575C162.71 274.711 166.092 274.908 167.666 271.997C169.211 269.121 167.856 265.978 166.12 263.57Z" fill="#F2E950"/>
<path d="M285.851 279.94C277.088 273.856 258.313 267.133 254.141 282.434C248.949 301.467 295.565 325.437 307.743 311.931C316.691 302.011 292.273 284.389 285.851 279.94Z" fill="#F2E950"/>
</svg>
