<svg width="484" height="554" viewBox="0 0 484 554" fill="none" xmlns="http://www.w3.org/2000/svg">
<path d="M356.855 153.748C360.715 149.272 361.408 143.205 359.881 137.421C356.983 126.379 347.941 115.644 337.668 110.809C335.218 107.897 332.551 105.166 329.704 102.639C327.652 100.831 325.51 99.1249 323.291 97.5602C317.263 93.2766 310.671 89.8907 303.758 87.5565C296.833 85.2223 289.625 84.1065 282.507 82.7086C278.197 81.8621 273.824 80.913 269.617 79.5023C265.257 69.1395 255.946 59.777 245.942 56.3399C242.684 48.9525 239.696 41.2574 233.168 36.4222C227.999 32.6003 221.369 30.8946 215.88 34.7165C214.456 34.4728 213.007 34.6011 211.66 35.1013C211.16 34.7165 210.647 34.46 210.147 34.242C210.326 33.8187 210.519 33.4083 210.685 32.9851C210.865 32.9979 211.057 32.9979 211.237 32.9979C212.07 33.0364 211.968 31.6641 211.147 31.6256C204.132 31.2922 196.449 32.2925 191.473 38.0895C189.19 40.7572 187.959 44.143 186.343 47.2596C184.188 51.4278 181.277 53.9415 177.109 55.6601C171.337 58.0584 165.092 59.636 162.103 66.0486C159.513 71.6019 160.5 77.9248 164.091 82.606C163.771 82.7727 163.45 82.9523 163.117 83.119C162.373 83.4909 162.783 84.7863 163.54 84.4143C164.014 84.1835 164.489 83.9141 164.963 83.6705C165.015 83.7218 165.053 83.7859 165.104 83.8372C165.617 84.3887 166.323 83.6833 166.118 83.0677C168.862 81.6056 171.53 79.9896 174.108 78.2582C172.864 81.7723 172.453 85.5686 172.889 89.3264C170.145 90.6089 167.926 93.3407 167.233 96.6368C165.374 105.486 171.876 112.72 177.378 118.324C193.115 134.381 209.044 150.233 225.088 165.944C230.372 171.126 236.4 178.757 243.659 181.476C249.905 193.044 257.831 204.01 270.22 208.139C277.954 210.717 287.406 209.345 293.536 203.535C295.922 201.278 298.038 198.841 301.552 200.137C304.425 201.201 306.362 203.856 308.811 205.639C311.44 207.562 314.89 208.794 317.969 209.512C324.958 211.141 332.448 209.935 338.502 205.895C339.592 205.164 340.631 204.356 341.618 203.471C343.093 202.15 344.44 200.675 345.607 199.046C346.736 197.482 348.39 197.61 350.057 197.571C351.532 197.546 353.007 197.315 354.444 196.917C357.611 196.058 360.677 194.288 362.241 191.12C369.128 177.141 362.254 162.033 356.855 153.748Z" fill="#C7513C"/>
<path d="M347.211 131.573C350.969 130.79 349.328 123.172 348.956 120.799C347.763 112.989 345.583 105.255 343.274 97.7139C343.017 96.8674 341.709 97.3163 341.979 98.1628C342.812 100.895 327.512 108.077 322.292 109.167C321.42 109.346 346.352 131.752 347.211 131.573Z" fill="#2B244A"/>
<path d="M310.889 150.079C310.466 149.502 244.069 137.446 219.047 133.253C219.099 133.099 219.137 132.945 219.188 132.791C219.214 132.714 218.855 132.842 218.214 133.111C212.814 132.214 209.557 131.714 209.646 131.842C210.288 132.727 211.724 133.843 213.776 135.138C201.451 140.961 172.338 155.568 172.107 156.223C167.669 168.971 195.192 166.136 200.848 165.841C201.323 165.816 210.993 161.34 219.817 157.159C232.475 161.686 262.897 172.485 263.564 172.652L254.894 172.806C258.562 173.78 271.721 172.536 275.35 171.908C279.929 171.126 284.353 169.997 288.753 168.471C294.716 166.406 300.513 163.764 306.054 160.75C309.863 158.672 314.134 154.555 310.889 150.079Z" fill="#2B244A"/>
<path d="M440.145 517.061C439.824 504.813 440.619 497.759 435.489 489.333C432.078 483.716 412.147 460.002 406.017 453.307C390.537 436.442 372.197 422.577 355.819 406.636C338.594 389.86 325.307 370.43 315.676 348.409C306.262 326.927 300.093 304.188 294.617 281.436C293.757 277.87 292.937 274.305 292.116 270.739C289.782 271.022 287.46 271.278 285.126 271.509C264.618 273.471 243.662 271.445 223.924 277.87C226.784 289.374 231.542 308.433 232.376 311.023C237.121 325.76 243.239 340.06 250.318 353.821C269.21 390.54 295.437 426.464 329.168 450.844C347.893 464.375 368.516 475.2 386.304 490.026C395.859 497.99 404.042 507.186 411.249 517.305C418.355 527.27 424.562 537.838 431.526 547.919C433.347 550.561 436.246 554.1 439.837 553.998C443.595 553.882 443.838 549.907 443.813 547.034C443.736 536.94 442.453 526.86 440.145 517.061Z" fill="#FFA67D"/>
<path d="M334.229 501.491C330.279 493.385 326.342 485.293 322.392 477.187C322.469 477.11 322.61 477.008 322.571 476.867C319.57 463.503 314.555 457.193 306.578 451.357C296.767 444.175 283.941 438.904 272.668 434.376C245.402 423.449 216.378 416.267 190.907 401.223C180.903 395.324 174.157 391.155 176.158 378.343C181.327 345.177 203.784 319.847 219.43 291.285C221.906 286.758 224.176 282.128 226.151 277.383C219.597 277.37 213.056 276.972 206.554 275.997C198.974 274.869 191.792 272.637 184.597 270.175C170.72 269.905 156.151 270.085 149.148 272.022C140.773 286.578 132.796 301.379 126.14 316.807C119.509 332.146 113.93 348.075 110.98 364.556C108.197 380.049 106.543 398.414 113.34 413.087C122.318 432.427 143.184 442.764 162.191 449.715C174.683 454.281 187.419 458.257 200.218 461.912C227.523 469.71 255.328 475.635 283.416 479.752C289.572 485.524 295.818 491.205 302.179 496.746C307.065 501.004 312.016 505.197 317.018 509.314C320.763 512.392 324.88 516.65 329.907 517.458C332.998 517.959 335.974 516.509 336.974 513.444C338.269 509.404 335.948 505.018 334.229 501.491Z" fill="#FFA67D"/>
<path d="M267.899 152.644C268.502 152.529 268.823 151.644 268.13 151.4C267.989 151.349 267.835 151.297 267.694 151.246C267.54 150.772 266.963 150.656 266.617 150.874C241.62 142.204 214.828 139.832 188.703 144.051C188.485 143.961 188.216 144.013 188.011 144.154C187.998 144.154 187.998 144.154 187.985 144.154C187.177 144.282 187.203 145.475 187.908 145.513C190.524 154.991 193.667 164.302 197.258 173.447C196.501 173.524 196.616 174.768 197.45 174.806C197.566 174.806 197.681 174.819 197.796 174.819C198.143 175.691 198.463 176.563 198.822 177.422C199.156 178.23 200.464 177.794 200.118 176.974C199.836 176.281 199.579 175.588 199.297 174.896C222.921 175.999 246.366 179.449 269.31 185.22C269.348 186.362 269.413 187.49 269.438 188.632C269.464 189.517 270.836 189.427 270.811 188.542C270.528 176.537 269.541 164.559 267.899 152.644Z" fill="#FFA67D"/>
<path d="M481.888 12.49C483.158 10.3867 485.082 7.6421 482.504 5.84656C482.106 5.56441 481.709 5.39768 481.311 5.3079C481.747 4.15363 481.657 2.9224 480.529 1.79378C477.605 -1.15603 472.5 3.52519 470.14 5.02575C459.111 11.9642 447.76 18.4025 436.153 24.3277C412.991 36.1398 388.764 45.8742 363.87 53.4026C349.467 57.7503 334.86 61.3542 320.085 64.2014C319.418 64.3297 319.328 65.189 319.726 65.484C319.726 65.5096 319.713 65.5224 319.726 65.5353C321.303 81.3616 324.779 96.893 330.114 111.873C330.409 112.707 331.705 112.258 331.41 111.424C331.397 111.373 331.384 111.334 331.358 111.283C370.68 97.6497 408.412 79.5148 443.566 57.2373C452.775 51.4018 461.778 45.2585 470.615 38.8844C472.5 37.6788 474.347 36.4091 476.104 35.0112C477.463 33.9339 480.182 32.2666 480.747 30.5352C481.58 27.9829 477.989 27.7393 475.078 27.829C478.169 24.4432 485.697 15.8759 481.888 12.49Z" fill="#FFA67D"/>
<path d="M139.532 109.256C136.018 101.471 133.44 93.4556 131.427 85.1576C130.734 82.2848 129.849 79.2195 129.387 76.1543C101.557 75 74.1619 68.0487 49.1399 55.9417C41.4191 51.812 34.0445 47.041 27.2087 41.5646C24.8232 39.6537 22.5018 37.6529 20.2574 35.588C18.6542 34.1003 16.91 31.702 14.7041 31.0479C13.5754 30.7144 12.3571 30.9966 11.5491 31.6635C10.6641 30.7786 9.61243 29.9449 8.35556 30.1758C5.18772 30.7529 6.23942 34.0362 7.02176 36.473C6.09834 35.6778 4.99534 34.7159 3.69999 34.7416C3.2511 34.7416 2.7253 34.8698 2.17382 35.4726C1.34018 36.3832 1.23754 37.9479 1.58383 39.1406C2.62267 42.7189 9.02248 51.3503 10.8565 54.1205C5.85465 52.3506 -0.493837 50.2986 0.288503 54.8772C0.660435 57.0319 3.98216 60.3921 9.36876 63.8934C13.7037 66.7149 18.5132 69.3441 23.374 71.0883C31.8899 79.7454 59.6822 105.101 115.716 123.698C124.552 126.634 145.522 131.111 154.781 131.995C149.933 124.775 143.046 117.041 139.532 109.256Z" fill="#FFA67D"/>
<path d="M301.311 276.524C301.452 273.728 299.682 270.56 298.425 267.136C296.732 262.531 295.719 257.773 295.142 252.912C294.078 243.806 294.372 234.598 293.282 225.492C291.577 211.23 285.19 198.649 273.673 190.287C272.775 185.9 273.339 181.194 271.274 177.102C269.415 173.421 264.464 170.921 260.578 169.728C239.904 163.379 219.755 159.839 198.747 165.2C198.671 165.226 195.695 166.329 195.618 166.393C194.438 167.432 194.118 168.381 193.784 170.164C192.886 175.012 193.168 174.614 192.63 179.513C192.63 179.539 171.353 218.695 160.977 235.521L152.333 249.539C149.64 253.9 146.562 258.209 144.368 262.852C142.765 266.251 143.714 273.228 147.818 273.176C181.626 272.766 181.331 282.757 201.133 287.63C212.599 290.452 216.331 286.835 218.421 287.669C231.003 292.658 244.841 294.043 258.346 292.568C267.234 291.593 275.968 289.464 284.42 286.579C288.87 285.052 293.59 284.103 297.681 281.667C300.246 280.115 301.208 278.396 301.311 276.524Z" fill="#587EE0"/>
<path d="M249.085 180.732C248.995 188.978 251.15 196.981 255.023 204.24C258.088 209.999 262.974 218.707 270.092 219.81C270.747 219.913 271.016 218.913 270.362 218.823C263.269 217.72 258.345 208.55 255.395 202.714C251.932 195.866 250.047 188.414 250.124 180.732C250.124 180.065 249.085 180.065 249.085 180.732Z" fill="#2B244A"/>
<path d="M348.238 130.931C334.887 111.052 326.859 88.0563 324.935 64.1885C325.679 63.932 325.589 62.6879 324.755 62.8547C275.07 72.7301 224.398 77.3985 173.738 76.6162C159.066 76.3853 144.484 76.9753 129.85 75.8595C129.85 75.8466 128.452 75.4619 128.503 76.3468C130.081 100.138 136.455 119.863 149.152 140.05C149.408 140.627 150.191 141.833 150.255 141.922C151.871 144.449 154.68 143.179 157.027 142.448C160.784 141.294 164.542 140.14 168.3 138.985C169.198 146.232 170.339 153.439 171.763 160.609C171.93 161.468 173.251 160.416 173.315 160.365C193.348 146.437 218.575 150.567 241.135 153.965C252.639 155.697 264.323 157.274 275.981 156.274C287.857 155.248 299.515 150.643 311.52 152.747C311.584 152.772 311.635 152.772 311.699 152.772C311.738 152.785 311.789 152.785 311.827 152.798C312.661 152.952 311.93 151.169 311.404 150.105C308.416 144.834 306.21 140.935 303.235 135.664C317.701 135.676 332.13 134.42 346.392 131.867C346.661 131.816 348.726 131.662 348.238 130.931Z" fill="#F5E3D9"/>
<path d="M200.17 66.0612L203.902 76.9498C203.902 76.9498 212.457 81.7593 227.359 75.4749L221.934 59.0458L200.17 66.0612Z" fill="#FFA67D"/>
<path d="M232.554 46.9389C233.991 43.3735 233.221 34.9088 225.385 30.856C218.318 27.2008 208.789 26.5596 201.209 34.2419C193.643 41.9114 192.424 45.4384 189.705 52.0177C187.576 57.1606 186.307 63.1885 192.155 66.6128C198.798 70.4989 207.802 69.1266 212.329 67.0232C216.843 64.9199 227.052 60.585 232.554 46.9389Z" fill="#FFA67D"/>
<path d="M201.168 69.0492L202.181 71.9605C204.567 71.4604 206.657 70.1522 208.132 68.2412C208.337 67.9719 208.055 67.6256 207.747 67.7539C205.657 68.6388 203.451 69.0749 201.168 69.0492Z" fill="#2B244A"/>
<path d="M196.446 39.5006C196.446 39.5006 190.47 42.7197 189.675 43.6816C188.88 44.6435 189.508 45.7593 191.752 48.2218C193.984 50.6842 196.446 39.5006 196.446 39.5006Z" fill="#FFA67D"/>
<path d="M199.156 76.5392C201.042 86.6968 211.109 92.9043 221.203 91.6346C231.502 90.352 239.081 83.0673 243.647 74.2563C228.847 75.4747 214.008 76.2443 199.156 76.5392Z" fill="#FFA67D"/>
<path d="M165.131 126.301C166.08 130.816 167.029 135.343 167.991 139.857C168.132 140.511 169.119 140.229 168.978 139.588C168.029 135.074 167.08 130.546 166.118 126.032C165.99 125.378 165.002 125.66 165.131 126.301Z" fill="#2B244A"/>
<path d="M287.93 284.822C286.981 267.892 274.579 254.746 271.706 238.343C268.692 221.131 275.348 202.727 266.961 186.478C266.653 185.888 265.768 186.413 266.076 187.003C274.374 203.099 267.717 221.555 270.719 238.625C273.579 254.939 285.968 268.033 286.904 284.834C286.942 285.476 287.968 285.476 287.93 284.822Z" fill="#2B244A"/>
<path d="M218.125 287.566C215.97 287.13 212.071 290.298 201.132 287.604C197.489 286.706 194.527 285.642 191.91 284.488C191.923 284.424 191.949 284.359 191.961 284.295C196.181 271.316 198.284 258.055 196.027 236.932C193.77 215.809 200.272 205.548 200.272 205.548C200.413 213.333 201.491 221.118 203.453 228.557C204.466 232.417 205.723 236.201 206.403 240.164C207.185 244.691 207.185 249.334 207.172 253.951C207.172 261.03 207.198 269.033 207.224 276.485C207.224 278.255 208.686 282.23 218.125 287.566Z" fill="#2B244A"/>
<path d="M193.122 179.847C206.435 173.614 220.94 175.601 234.881 178.231C248.104 180.732 261.391 183.592 273.088 190.53C273.665 190.863 274.178 189.979 273.614 189.645C261.135 182.232 246.796 179.346 232.676 176.781C219.209 174.332 205.358 172.985 192.597 178.962C191.994 179.231 192.52 180.116 193.122 179.847Z" fill="#2B244A"/>
<path d="M296.964 124.801C299.106 128.174 301.094 131.637 302.915 135.189C303.223 135.779 304.108 135.254 303.8 134.664C301.966 131.111 299.991 127.648 297.849 124.275C297.503 123.724 296.605 124.237 296.964 124.801Z" fill="#2B244A"/>
<path d="M191.974 77.6549C197.142 89.826 209.698 97.4186 222.921 95.7898C235.541 94.2251 244.365 84.9653 250.508 74.5511C250.842 73.974 249.957 73.461 249.623 74.0253C243.826 83.8495 235.734 92.6219 223.96 94.597C210.763 96.8158 198.04 89.313 192.872 77.129C192.602 76.5262 191.717 77.0521 191.974 77.6549Z" fill="#2B244A"/>
<path d="M227.869 36.0375C231.255 38.4359 235.769 37.9742 239.322 36.2043C242.002 34.8576 244.375 32.19 243.105 29.0221C240.938 23.6355 234.243 24.9565 230.254 27.1368C228.42 28.1372 225.958 29.3428 225.65 31.6641C225.406 33.4597 226.471 35.05 227.869 36.0375Z" fill="#C7513C"/>
<path d="M232.244 64.8172L232.988 63.2013C236.643 60.1488 232.641 51.9407 235.271 45.387C236.707 41.8344 233.219 34.8959 225.382 30.856C218.405 27.2393 205.349 26.008 201.527 33.934C204.208 34.5112 206.324 34.4342 208.504 33.9212C207.453 39.2309 207.478 44.6559 208.761 49.9528C208.774 50.0169 208.799 50.081 208.812 50.1451C209.659 50.9147 210.685 51.5431 211.877 51.915C212.416 52.0818 212.98 52.2228 213.532 52.3639C211.133 60.3797 210.954 69.088 219.162 73.5897C226.408 77.5655 235.578 75.0133 243.068 70.4988C239.093 69.2291 235.591 67.2027 232.244 64.8172Z" fill="#C7513C"/>
<path d="M225.987 31.6254C228.988 33.4209 231.746 35.5371 234.246 37.9738C234.721 38.4356 235.452 37.7045 234.978 37.2428C232.4 34.7547 229.578 32.5744 226.5 30.7404C225.936 30.3941 225.423 31.2791 225.987 31.6254Z" fill="#2B244A"/>
<path d="M202.016 51.9024C202.26 55.7371 205.569 58.6613 209.403 58.4176C213.238 58.1739 216.162 54.865 215.919 51.0303C215.675 47.1955 212.366 44.2714 208.531 44.515C204.697 44.7587 201.772 48.0677 202.016 51.9024Z" fill="#FFA67D"/>
<path d="M334.228 501.491C330.278 493.386 326.341 485.28 322.403 477.188C322.48 477.098 322.609 476.995 322.57 476.854C319.569 463.503 314.554 457.18 306.577 451.345C296.766 444.175 283.953 438.904 272.667 434.364C269.884 433.248 266.344 431.927 262.266 430.44C261.855 445.573 260.983 460.707 259.637 475.802C267.537 477.277 275.463 478.573 283.402 479.74C289.558 485.511 295.804 491.193 302.178 496.733C307.052 500.991 312.002 505.185 317.004 509.302C320.749 512.393 324.866 516.651 329.893 517.459C332.984 517.946 335.96 516.497 336.947 513.432C338.268 509.405 335.947 505.018 334.228 501.491Z" fill="#F5E3D9"/>
<path d="M440.133 517.048C439.812 504.813 440.608 497.746 435.49 489.32C432.066 483.702 412.161 459.989 406.005 453.294C403.838 450.921 401.606 448.613 399.336 446.368C394.616 460.001 387.934 472.904 379.482 484.613C381.791 486.357 384.074 488.153 386.293 490C395.847 497.964 404.03 507.16 411.238 517.279C418.343 527.244 424.563 537.812 431.514 547.88C433.336 550.522 436.221 554.062 439.825 553.946C443.583 553.831 443.839 549.868 443.801 546.982C443.737 536.927 442.454 526.859 440.133 517.048Z" fill="#F5E3D9"/>
<path d="M334.667 500.799C331.91 492.103 320.277 459.373 312.3 453.525C305.849 448.818 292.382 442.739 284.636 439.353C286.521 451.486 287.137 457.757 286.765 468.556C281.673 468.723 274.914 472.25 272.785 478.098C276.338 478.688 279.877 479.24 283.417 479.753C289.573 485.524 295.819 491.206 302.193 496.746C307.067 501.004 312.018 505.198 317.019 509.315C320.764 512.406 324.881 516.664 329.909 517.472C333 517.959 335.975 516.51 336.963 513.445C338.271 509.405 335.86 504.531 334.667 500.799Z" fill="#2B244A"/>
<path d="M437.527 490.807C435.232 487.332 424.535 474.93 416.827 465.772C416.635 468.171 416.391 470.544 416.096 472.891C415.404 478.38 414.314 487.601 411.415 500.798C408.465 499.208 402.694 499.182 399.744 502.914C403.861 507.442 407.67 512.251 411.261 517.279C418.366 527.244 424.587 537.812 431.538 547.88C433.359 550.522 436.245 554.061 439.849 553.946C443.607 553.831 443.863 549.868 443.825 546.982C443.735 536.927 441.965 497.528 437.527 490.807Z" fill="#2B244A"/>
<path d="M413.182 519.164C414.99 517.215 416.799 515.252 418.607 513.303C419.056 512.816 418.325 512.085 417.876 512.572C416.068 514.521 414.259 516.484 412.451 518.433C412.002 518.92 412.733 519.651 413.182 519.164Z" fill="#F5E3D9"/>
<path d="M416.002 524.539C418.003 522.858 419.811 520.999 421.427 518.96C421.838 518.447 421.107 517.716 420.696 518.229C419.08 520.268 417.272 522.127 415.271 523.808C414.771 524.231 415.502 524.962 416.002 524.539Z" fill="#F5E3D9"/>
<path d="M424.423 535.914C427.835 531.746 427.001 526.487 424.744 521.947C421.063 514.547 416.151 507.596 411.854 500.542C411.508 499.978 410.623 500.49 410.97 501.068C414.24 506.441 417.523 511.815 420.794 517.189C423.987 522.434 428.425 529.424 423.705 535.183C423.282 535.696 424.013 536.427 424.423 535.914Z" fill="#F5E3D9"/>
<path d="M304.823 498.234C308.042 493.578 306.169 488.14 303.053 483.972C298.667 478.098 293.088 472.917 287.547 468.159C287.047 467.735 286.316 468.454 286.816 468.89C291.074 472.532 295.101 476.418 298.846 480.586C302.95 485.139 308.196 491.539 303.938 497.721C303.553 498.272 304.451 498.785 304.823 498.234Z" fill="#F5E3D9"/>
<path d="M292.293 486.716C293.614 483.407 294.935 480.098 296.256 476.79C296.5 476.174 295.513 475.905 295.269 476.52C293.948 479.829 292.627 483.138 291.306 486.447C291.062 487.063 292.05 487.332 292.293 486.716Z" fill="#F5E3D9"/>
<path d="M296.537 490.718C298.012 487.602 299.32 484.408 300.462 481.151C300.68 480.522 299.692 480.253 299.474 480.881C298.371 484.049 297.088 487.166 295.665 490.193C295.37 490.795 296.255 491.321 296.537 490.718Z" fill="#F5E3D9"/>
<path d="M306.388 451.229C310.928 461.528 315.917 471.608 320.803 481.753C323.394 487.153 325.882 492.616 327.857 498.272C329.755 503.697 332.679 511.02 331.089 516.753C330.91 517.394 331.91 517.664 332.077 517.023C333.462 512.046 331.487 506.313 330.012 501.542C328.229 495.733 325.856 490.115 323.291 484.613C318.02 473.276 312.326 462.143 307.273 450.703C307.016 450.1 306.118 450.626 306.388 451.229Z" fill="#F5E3D9"/>
<path d="M432.33 485.511C434.485 495.438 435.652 505.467 436.793 515.548C437.46 521.37 438.037 527.206 438.191 533.067C438.345 538.903 438.973 546.957 435.703 552.023C435.344 552.587 436.229 553.1 436.588 552.549C439.487 548.047 439.23 541.583 439.256 536.44C439.294 529.912 438.691 523.384 437.96 516.894C436.78 506.262 435.575 495.694 433.305 485.229C433.189 484.588 432.189 484.87 432.33 485.511Z" fill="#F5E3D9"/>
<path d="M197.539 37.5377C197.321 39.5128 199.501 38.9356 201.322 40.3849C203.002 41.7187 204.387 42.1034 204.862 41.1287C205.439 39.936 204.272 37.73 201.527 36.5373C198.962 35.4087 197.692 36.1012 197.539 37.5377Z" fill="#C7513C"/>
<path d="M198.799 41.1163C200.236 41.7447 199.158 43.7326 198.543 44.4508C198.145 44.9254 197.517 45.3999 196.876 45.1049C195.939 44.6689 196.427 43.3607 196.76 42.6809C197.132 41.9371 197.863 40.7059 198.799 41.1163Z" fill="#2B244A"/>
<path d="M190.253 52.6328C191.676 52.9663 193.087 52.9535 194.498 52.5687C195.139 52.402 194.87 51.4016 194.229 51.5812C192.997 51.9146 191.766 51.9403 190.535 51.6453C189.881 51.4914 189.612 52.4789 190.253 52.6328Z" fill="#2B244A"/>
<path d="M209.916 48.7474C211.66 49.9273 212.314 51.864 210.878 53.621C210.454 54.134 211.185 54.8651 211.609 54.352C213.481 52.0691 212.789 49.4528 210.442 47.8625C209.89 47.4777 209.377 48.3755 209.916 48.7474Z" fill="#2B244A"/>
<path d="M6.49192 37.5506C9.39043 41.4366 12.6993 44.9251 16.4571 47.9775C16.9701 48.3879 17.7012 47.6697 17.1882 47.2464C13.5073 44.2453 10.224 40.8338 7.38967 37.0247C6.99209 36.4989 6.09434 37.0119 6.49192 37.5506Z" fill="#2B244A"/>
<path d="M11.7791 33.5103C14.652 37.3323 17.8967 40.8079 21.5135 43.9245C22.0136 44.3605 22.7447 43.6295 22.2445 43.1934C18.6919 40.1282 15.4856 36.7295 12.664 32.9845C12.2793 32.4715 11.3815 32.9845 11.7791 33.5103Z" fill="#2B244A"/>
<path d="M10.8133 54.7366C13.0962 55.5702 15.3663 56.4039 17.6492 57.2247C18.2776 57.4556 18.547 56.4552 17.9185 56.2372C15.6356 55.4035 13.3655 54.5699 11.0826 53.7491C10.467 53.5182 10.1977 54.5186 10.8133 54.7366Z" fill="#2B244A"/>
<path d="M461.421 30.9457C466.166 29.8299 470.963 29.1502 475.836 28.9065C476.491 28.868 476.503 27.842 475.836 27.8804C470.873 28.137 465.999 28.8295 461.152 29.9582C460.497 30.0992 460.767 31.0868 461.421 30.9457Z" fill="#2B244A"/>
<path d="M469.895 19.3257C474.396 15.4397 478.205 10.9508 481.309 5.88486C481.655 5.32055 480.771 4.79471 480.424 5.35902C477.359 10.348 473.588 14.7599 469.164 18.5947C468.664 19.0307 469.395 19.7618 469.895 19.3257Z" fill="#2B244A"/>
<path d="M474.547 23.6227C477.535 20.3779 480.062 16.7869 482.101 12.8623C482.409 12.2724 481.511 11.7594 481.216 12.3365C479.228 16.1841 476.765 19.6982 473.829 22.8917C473.367 23.379 474.085 24.1101 474.547 23.6227Z" fill="#2B244A"/>
</svg>
