<svg width="494" height="584" viewBox="0 0 494 584" fill="none" xmlns="http://www.w3.org/2000/svg">
<path d="M239.592 16.3403C247.648 11.836 260.603 16.1634 267.53 19.8921C283.751 28.6151 294.597 44.2647 308.205 56.1993C316.112 63.1396 324.917 68.1203 334.864 71.5632C344.826 75.0061 355.182 77.197 365.184 80.5039C374.179 83.4841 382.875 87.4578 390.142 93.6496C397.327 99.7734 402.947 107.653 406.703 116.28C414.95 135.196 414.079 157.704 403.192 180.866C402.852 181.015 402.389 181.247 401.872 181.519L402.933 182.322C402.933 182.322 394.455 217.744 369.675 214.832C344.894 211.92 327.91 179.723 316.125 147.661C313.281 139.918 314.738 136.325 318.589 135.305C308.981 127.847 299.36 120.39 289.753 112.933C278.417 104.142 265.992 95.7045 257.365 84.0421C247.498 70.7195 246.832 54.9201 248.22 39.0799C242.79 33.8271 239.592 16.3403 239.592 16.3403Z" fill="#2B244A"/>
<path d="M0.88942 18.1778C2.7946 16.0821 7.40773 16.2454 9.96611 16.0549C13.5451 15.7963 17.1105 15.9188 20.6623 16.3407C19.247 14.8846 17.8998 13.374 16.6479 11.7546C14.8107 9.38678 12.334 6.44738 11.4087 3.56241C10.1975 -0.220725 14.5658 -0.656202 16.9881 0.704637C20.1588 2.47373 23.071 5.04571 26.0105 7.16862C29.2628 9.50926 32.5289 11.8635 35.7813 14.2042C40.9253 17.9056 46.0692 21.6071 51.2132 25.3086C90.0243 44.2107 129.693 61.9152 172.301 70.053C173.226 70.2299 172.831 71.6316 171.92 71.4546C170.885 71.2641 169.865 71.0328 168.844 70.8287C169.592 88.7373 174.015 106.21 181.895 122.296C182.371 122.377 182.847 122.472 183.323 122.554C184.249 122.704 183.854 124.105 182.942 123.956C182.67 123.915 182.412 123.861 182.139 123.806C181.84 124.16 181.241 124.255 180.983 123.724C180.956 123.684 180.942 123.629 180.915 123.588C157.753 119.438 112.383 100.4 91.943 89.0095C70.1424 76.8572 34.6109 47.8033 26.1192 40.6044C21.751 39.0123 17.6277 36.9166 14.4433 33.773C11.5039 33.4328 8.56447 32.9021 5.73392 31.9767C4.16896 31.4596 2.31824 30.6567 2.01886 28.8196C1.7603 27.241 2.84895 26.1251 4.20979 25.5399C5.70671 24.8867 7.435 24.601 9.16325 24.3696C4.08733 23.5939 -2.3902 21.7976 0.88942 18.1778Z" fill="#FFA67D"/>
<path d="M314.509 180.117C316.66 173.191 317.707 166.291 318.442 159.079C319.136 152.343 319.762 145.498 321.94 139.061C323.069 135.713 325.029 129.195 329.588 129.413C334.255 129.644 337.848 136.149 339.413 139.837C341.373 144.436 342.039 149.567 341.25 154.52C340.651 158.344 338.8 161.637 337.644 165.284C336.228 169.748 337.902 173.354 338.147 177.736C338.351 181.233 337.099 184.54 334.895 187.071C332.99 192.079 330.527 197.4 325.192 199.401C321.232 200.884 317.041 199.822 314.646 196.243C311.366 191.317 312.89 185.329 314.509 180.117Z" fill="#2B244A"/>
<path d="M296.9 156.779C300.574 161.338 304.63 165.489 308.93 169.354C310.413 155.323 315.23 141.906 323.11 130.121C323.518 129.508 325.096 128.338 325.192 128.896C325.314 128.896 332.255 126.201 332.377 126.283C365.976 150.288 448.266 212.968 461.942 225.162C468.923 231.381 473.428 235.096 480.137 241.601C483.484 244.853 486.819 248.119 490.098 251.453C491.854 253.236 494.439 255.44 493.528 258.162C492.153 262.272 466.787 252.215 458.472 248.092C458.826 248.759 461.725 253.848 462.078 254.528C462.936 256.202 464.582 258.502 464.12 260.543C463.167 264.776 458.431 261.265 456.853 259.727C450.484 253.481 446.061 248.378 441.108 241.097C420.11 232.007 399.303 222.467 378.754 212.411C359.158 202.817 339.018 193.372 321.082 180.839C317.299 178.199 313.638 175.382 310.141 172.375C310.114 172.797 310.073 173.232 310.046 173.654C309.991 174.593 308.535 174.593 308.59 173.654C308.63 172.824 308.698 171.994 308.766 171.177C304.126 167.081 299.785 162.658 295.879 157.814C295.281 157.092 296.301 156.058 296.9 156.779Z" fill="#FFA67D"/>
<path d="M162.707 67.9849C162.707 67.9712 162.721 67.9576 162.721 67.9304C162.735 67.876 162.748 67.8352 162.762 67.7671C162.776 67.7263 162.789 67.6855 162.816 67.6446C162.966 67.3861 163.238 67.182 163.619 67.2364C179.242 69.3457 194.959 70.6929 210.732 71.1828C218.216 71.4142 225.701 71.3597 233.185 71.3461C234.465 71.3461 237.282 71.1692 237.486 71.1556C256.905 69.0191 273.507 78.6538 288.503 91.0647C303.024 103.067 314.836 111.518 332.363 126.283C328.09 126.474 323.014 135.823 321.926 139.048C319.748 145.498 319.109 152.343 318.428 159.066C317.68 166.278 316.646 173.191 314.495 180.104C312.876 185.303 311.366 191.318 314.659 196.23C315.952 198.163 317.775 199.36 319.816 199.823C300.751 199.768 297.158 173.082 282.203 165.448C282.026 167.476 281.808 169.476 281.522 171.409C280.638 177.233 278.828 183.112 275.276 187.888C273.698 189.998 271.806 191.848 269.588 193.291C265.845 195.754 260.375 197.265 259.722 202.395C259.912 202.694 259.912 203.143 259.49 203.375C251.298 207.852 243.446 212.805 235.785 218.126C229.552 222.454 223.333 225.026 215.644 223.583C215.045 223.488 215.018 222.835 215.304 222.467C208.391 218.534 203.056 212.152 200.621 204.518C197.178 193.822 200.947 182.989 202.24 172.28C203.546 161.338 199.709 151.649 197.681 141.225C193.898 142.491 190.02 142.926 186.019 142.491C185.801 142.477 185.638 142.368 185.529 142.232C185.12 142.355 184.549 142.123 184.495 141.579C183.8 134.326 179.31 128.678 174.901 123.208C171.186 118.567 167.879 113.845 165.742 108.252C160.884 95.4194 161.782 81.4163 162.707 67.9849Z" fill="#F5E3D9"/>
<path d="M475.577 241.382C475.577 241.382 487.73 253.739 493.35 261.972C495.065 264.476 490.887 269.919 478.285 259.168C465.684 248.404 465.643 248.241 465.643 248.241L475.577 241.382Z" fill="#FFA67D"/>
<path d="M471.019 240.661C471.019 240.661 479.388 255.848 482.572 265.279C483.538 268.15 480.123 274.437 469.576 261.468C458.553 247.914 452.484 241.192 452.484 241.192L471.019 240.661Z" fill="#FFA67D"/>
<path d="M481.32 261.755C477.646 254.978 474.039 248.146 470.529 241.288C470.202 240.662 471.154 240.104 471.467 240.73C474.992 247.588 478.585 254.42 482.259 261.197C482.599 261.809 481.66 262.367 481.32 261.755Z" fill="#2B244A"/>
<path d="M490.303 258.897C485.023 251.807 479.403 245.016 473.415 238.511C472.939 237.994 473.715 237.218 474.191 237.735C480.233 244.308 485.908 251.181 491.242 258.339C491.664 258.91 490.712 259.454 490.303 258.897Z" fill="#2B244A"/>
<path d="M28.99 26.5877C25.6015 23.1176 22.3083 19.5522 19.1239 15.8915C18.6612 15.3608 19.437 14.5851 19.8997 15.1158C23.084 18.7765 26.3773 22.3419 29.7657 25.812C30.2556 26.3156 29.4799 27.0912 28.99 26.5877Z" fill="#2B244A"/>
<path d="M20.6374 27.6628C16.7726 26.8599 12.8942 26.057 9.02942 25.2542C8.33539 25.1181 8.63473 24.0566 9.31514 24.2063C13.1799 25.0092 17.0584 25.8121 20.9231 26.615C21.6172 26.7511 21.3314 27.8125 20.6374 27.6628Z" fill="#2B244A"/>
<path d="M32.9792 30.6433C29.7541 29.7316 26.5016 29.0103 23.2356 28.2891C21.7115 27.9489 20.1738 27.4998 18.6089 27.3773C17.0167 27.2549 15.9415 27.1868 14.744 28.3571C13.56 28.8606 13.3152 29.6771 14.0092 30.8338C13.9412 31.8 14.2541 32.6029 14.9481 33.2425C15.3836 33.8005 14.4311 34.3448 14.0092 33.8005C11.6414 30.725 12.2401 26.7786 16.4859 26.2478C18.6768 25.9757 20.8814 26.6561 22.9907 27.1188C26.4337 27.8944 29.8629 28.6293 33.265 29.5955C33.9454 29.7724 33.6597 30.8338 32.9792 30.6433Z" fill="#2B244A"/>
<path d="M221.222 372.091C221.984 372.799 222.76 373.506 223.522 374.214C222.366 368.526 222.978 362.102 223.604 356.618C225.318 341.84 227.033 327.074 228.748 312.296C229.632 304.675 230.503 297.041 231.402 289.42C231.905 285.174 232.232 280.275 235.348 277.023C241.962 270.137 252.209 277.227 260.115 274.532C259.571 272.586 259.04 270.64 258.496 268.708C258.251 267.796 259.652 267.415 259.897 268.327L261.462 273.975C261.721 273.838 261.979 273.702 262.224 273.539C263.014 273.036 263.749 274.301 262.959 274.791C262.592 275.022 262.225 275.199 261.857 275.376L284.256 356.264C324.496 384.597 351.482 428.062 382.455 465.689C389.844 474.671 397.573 483.38 405.806 491.586C418 495.396 430.533 499.438 440.862 507.209C451.204 514.993 453.885 522.504 461.533 535.432C464.404 540.291 478.394 565.466 479.605 572.025C480.176 575.101 480.789 579.006 478.475 581.538C473.454 586.981 465.752 582.123 461.342 578.598C450.796 570.202 440.236 561.792 429.689 553.396C419.211 545.054 408.297 537.052 398.186 528.274C378.821 511.454 358.572 495.519 339.017 478.876C326.184 467.962 313.433 456.953 300.763 445.862C275.724 423.939 251.025 401.648 226.611 379.045C228.027 381.671 230.177 383.889 233.361 385.414C234.205 385.822 233.47 387.074 232.626 386.666C228.081 384.475 225.55 380.936 224.203 376.813C222.869 375.575 221.522 374.35 220.188 373.098C219.494 372.486 220.528 371.451 221.222 372.091Z" fill="#FFA67D"/>
<path d="M266.691 383.059C270.57 379.426 274.666 376.037 278.762 372.69C282.722 369.437 286.723 366.103 291.309 363.803C291.921 363.504 292.534 363.218 293.16 362.973C305.298 372.621 316.239 383.631 326.527 395.348C307.87 400.913 291.445 412.889 274.013 422.197C266.555 415.529 259.098 408.82 251.681 402.084C255.519 394.939 260.949 388.448 266.691 383.059Z" fill="#2B244A"/>
<path d="M160.91 413.066C161.345 398.396 163.291 383.645 165.332 369.125C167.537 353.557 170.381 338.07 174.015 322.761C181.867 289.624 191.461 259.06 207.546 229.013C211.832 226.55 262.769 204.518 267.096 203.47C284.76 243.492 284.732 290.468 267.912 330.817C263.748 340.806 258.55 350.304 252.399 359.19C276.935 349.964 300.586 338.492 323.026 324.938C323.448 324.271 323.911 323.632 324.401 323.006C327.925 318.61 333.219 316.433 338.608 315.303C345.29 313.915 352.23 313.589 359.021 312.908C367.104 312.105 375.187 311.303 383.257 310.486C387.054 310.105 390.864 309.724 394.661 309.343C396.825 309.125 399.859 308.717 401.805 310.159C406.201 313.412 403.942 318.583 400.104 320.924C389.34 327.497 351.386 345.882 342.99 350.359C318.685 371.574 305.063 384.026 284.542 400.71C272.811 410.236 258.958 423.83 246.316 432.131C234.109 440.147 221.14 448.774 206.838 452.449C195.339 455.402 182.03 454.504 172.477 446.815C162.366 438.704 160.542 425.273 160.91 413.066Z" fill="#FFA67D"/>
<path d="M164.571 390.463C178.247 373.833 204.784 360.565 222.134 347.583C230.286 341.486 239.172 336.288 248.698 332.654C258.537 328.899 268.961 327.143 279.344 325.619C283.603 324.993 287.89 324.394 292.136 323.687C291.864 326.953 296.885 336.002 289.101 343.174C281.372 350.291 244.547 374.024 213.888 386.367C202.457 390.966 178.03 394.845 164.721 395.294C164.027 395.321 164.067 391.062 164.571 390.463Z" fill="#2B244A"/>
<path d="M310.591 332.178C314.769 329.837 318.906 327.429 323.016 324.952C323.451 324.285 323.901 323.645 324.404 323.019C327.929 318.624 333.222 316.447 338.611 315.331C345.293 313.929 352.233 313.616 359.024 312.936C367.093 312.119 375.163 311.316 383.26 310.513C387.057 310.132 390.867 309.751 394.664 309.37C396.841 309.153 399.849 308.744 401.809 310.187C406.204 313.439 403.945 318.61 400.121 320.951C389.357 327.524 351.389 345.909 342.993 350.372C341.278 351.869 339.591 353.325 337.985 354.754C335.631 351.447 335.141 347.229 336.788 343.432C328.609 338.465 319.791 334.682 310.591 332.178Z" fill="#F5E3D9"/>
<path d="M208.198 376.214C220.269 366.661 233.061 359.109 247.989 355.026C263.503 350.794 279.738 349.215 294.761 343.241C310.084 337.145 323.924 326.925 332.375 312.609C328.619 307.465 325.095 302.157 321.815 296.687C314.602 284.63 308.969 271.838 303.471 258.951C293.55 235.694 287.603 209.702 265.503 195.658C250.167 204.803 224.842 212.22 207.504 216.289C181.404 255.018 153.234 312.5 138.986 392.585C171.102 398.913 185.187 394.436 208.198 376.214Z" fill="#C7513C"/>
<path d="M265.505 195.658C270.377 198.747 274.473 202.435 277.998 206.531C270.064 212.301 259.477 214.955 249.774 216.112C236.955 217.609 223.986 217.336 211.262 215.377C228.327 211.158 251.23 204.15 265.505 195.658Z" fill="#2B244A"/>
<path d="M270.554 238.457C271.425 237.626 273.071 237.722 275.82 239.436C287.374 246.69 294.967 259.032 304.725 268.259C306.017 269.484 307.487 270.654 309.093 271.811C311.148 276.383 313.284 280.928 315.584 285.392C308.317 282.017 301.105 279.486 294.246 273.92C285.986 267.211 277.317 259.482 272.2 249.996C270.418 246.703 268.621 240.307 270.554 238.457Z" fill="#2B244A"/>
<path d="M406.828 508.733C408.066 502.977 407.699 497.098 405.848 491.614C418.027 495.438 430.547 499.466 440.849 507.236C451.191 515.02 453.872 522.518 461.534 535.446C464.405 540.318 478.394 565.494 479.605 572.039C480.177 575.115 480.803 579.034 478.462 581.552C473.454 587.009 465.738 582.137 461.329 578.612C450.783 570.216 440.223 561.806 429.676 553.41C419.198 545.054 408.284 537.052 398.173 528.275C395.846 526.247 393.491 524.233 391.151 522.246C393.451 515.837 397.588 512.407 406.828 508.733Z" fill="#F5E3D9"/>
<path d="M469.889 582.272C477.509 577.55 470.106 565.657 467.507 559.778C464.826 553.681 461.928 547.68 458.866 541.76C452.511 529.526 445.366 517.714 437.718 506.242C437.324 505.657 438.276 505.113 438.657 505.685C447.789 519.375 456.171 533.541 463.397 548.333C466.732 555.178 469.875 562.132 472.651 569.222C474.652 574.325 475.781 579.905 470.447 583.211C469.834 583.592 469.29 582.64 469.889 582.272Z" fill="#2B244A"/>
<path d="M403.644 315.344C377.326 317.726 350.966 319.767 324.702 322.72C324.008 322.802 324.008 321.699 324.702 321.631C350.966 318.692 377.326 316.651 403.644 314.256C404.352 314.187 404.338 315.276 403.644 315.344Z" fill="#2B244A"/>
<path d="M369.404 336.478C367.104 330.381 354.979 335.811 350.665 337.39C345.97 339.118 341.493 341.295 337.084 343.65C336.458 343.976 335.914 343.037 336.526 342.711C342.677 339.417 348.964 336.628 355.632 334.573C360.123 333.198 368.111 329.987 370.452 336.178C370.71 336.845 369.649 337.131 369.404 336.478Z" fill="#2B244A"/>
<path d="M417.58 542.781C421.023 542.074 423.037 538.413 423.541 535.174C424.153 531.228 421.69 527.581 419.336 524.628C415.144 519.388 410.504 514.476 406.108 509.414C405.646 508.883 406.421 508.107 406.884 508.638C410.177 512.421 413.498 516.177 416.791 519.96C419.417 522.981 422.302 526.043 423.854 529.799C425.922 534.793 423.813 542.618 417.866 543.829C417.185 543.979 416.9 542.931 417.58 542.781Z" fill="#2B244A"/>
<path d="M443.462 515.442C433.99 513.183 426.138 506.909 421.865 498.159C421.552 497.533 422.505 496.975 422.804 497.601C426.955 506.12 434.521 512.189 443.747 514.38C444.428 514.544 444.142 515.605 443.462 515.442Z" fill="#2B244A"/>
<path d="M460.419 545.026C450.961 546.986 454.323 558.567 456.84 564.527C458.228 567.807 459.725 571.563 456.323 574.107C455.765 574.529 455.221 573.577 455.765 573.169C456.895 572.325 457.548 569.903 457.262 568.542C457.017 567.358 456.364 566.201 455.901 565.085C455.398 563.901 454.881 562.717 454.432 561.506C453.411 558.784 452.594 555.831 452.921 552.906C453.384 548.742 455.888 544.877 460.134 543.992C460.814 543.829 461.1 544.89 460.419 545.026Z" fill="#2B244A"/>
<path d="M383.081 329.238C380.469 325.333 374.399 329.388 370.902 326.598C368.493 324.679 367.813 321.413 367.609 318.501C367.554 317.794 368.656 317.807 368.697 318.501C368.847 320.583 369.228 322.774 370.439 324.53C372.331 327.265 375.216 326.734 378.06 326.476C380.428 326.272 382.632 326.598 384.034 328.68C384.415 329.279 383.476 329.823 383.081 329.238Z" fill="#2B244A"/>
<path d="M252.673 154.411C254.333 146.586 266.88 153.976 270.377 156.044C274.759 158.643 278.747 161.828 282.217 165.502C282.04 167.516 281.822 169.503 281.536 171.435C281.373 172.497 281.182 173.558 280.951 174.633C276.161 172.184 270.5 170.904 265.642 168.89C260.457 166.754 251.19 161.447 252.673 154.411Z" fill="#2B244A"/>
<path d="M187.393 142.3C188.332 135.264 190.074 127.412 193.639 121.18C194.292 120.037 195.327 118.771 196.796 119.533C198.28 120.295 197.994 122.445 197.817 123.779C197.082 129.685 196.987 135.468 197.667 141.238C194.306 142.354 190.877 142.844 187.352 142.613C187.366 142.504 187.379 142.409 187.393 142.3Z" fill="#2B244A"/>
<path d="M229.51 55.6007L232.504 71.3456L256.033 72.6112L250.413 46.8369L229.51 55.6007Z" fill="#FFA67D"/>
<path d="M256.033 72.6111C256.033 72.6111 248.766 71.468 238.002 79.81C230.572 85.5663 218.569 107.34 218.569 107.34C218.569 107.34 213.466 82.5725 232.504 71.3456C242.86 65.249 256.033 72.6111 256.033 72.6111Z" fill="#FFA67D"/>
<path d="M264.717 35.4059C266.309 31.6499 265.642 22.6548 257.409 18.2185C249.979 14.204 241.229 12.8023 233.05 20.8041C224.885 28.8058 222.177 33.0788 219.17 40.0055C216.815 45.4216 215.359 51.8039 221.497 55.5326C228.478 59.7785 238.045 58.4857 242.889 56.3356C247.734 54.1854 258.634 49.7899 264.717 35.4059Z" fill="#FFA67D"/>
<path d="M239.595 16.341C246.385 13.075 253.925 14.8169 259.409 17.7835C267.642 22.2335 269.397 34.9573 269.016 39.0126C267.478 55.3699 256.034 72.6253 256.034 72.6253C256.034 72.6253 248.522 70.829 246.1 68.4067C239.568 61.8747 241.105 53.7913 244.562 45.1092C240.112 36.2365 238.37 26.2343 239.595 16.341Z" fill="#2B244A"/>
<path d="M250.154 44.4421C250.113 48.5246 246.765 51.7906 242.683 51.7498C238.6 51.709 235.334 48.3613 235.375 44.2788C235.416 40.1963 238.763 36.9303 242.846 36.9711C246.942 37.0119 250.208 40.3596 250.154 44.4421Z" fill="#FFA67D"/>
<path d="M230.084 24.4102C230.084 24.4102 223.185 26.5195 222.164 27.3496C221.143 28.1797 221.565 29.4725 223.375 32.5071C225.185 35.5282 230.084 24.4102 230.084 24.4102Z" fill="#FFA67D"/>
<path d="M236.123 57.3702C234.926 59.6292 233.13 61.5207 230.871 62.8544L230 58.2139C231.891 57.9009 233.742 57.3974 235.552 56.717C235.96 56.5673 236.328 56.9891 236.123 57.3702Z" fill="#2B244A"/>
<path d="M244.059 46.7826C246.182 45.1632 245.91 42.1285 243.664 40.8085C243.066 40.4547 243.61 39.5021 244.222 39.8695C247.244 41.6522 247.366 45.6258 244.617 47.7351C244.046 48.157 243.501 47.2044 244.059 46.7826Z" fill="#2B244A"/>
<path d="M230.534 22.5056C229.732 24.4516 232.113 24.506 233.542 26.5337C234.862 28.3844 236.141 29.2009 236.93 28.3436C237.883 27.3093 237.339 24.7101 234.903 22.6689C232.63 20.7637 231.133 21.0903 230.534 22.5056Z" fill="#2B244A"/>
<path d="M231.199 27.2006C232.669 27.9627 231.403 29.9903 230.695 30.7116C230.233 31.1742 229.539 31.6505 228.885 31.2967C227.919 30.7796 228.532 29.4187 228.926 28.7247C229.362 27.9627 230.233 26.6971 231.199 27.2006Z" fill="#2B244A"/>
<path d="M226.829 39.0798C225.019 39.284 223.264 38.9029 221.672 38.0048C221.059 37.6646 221.604 36.712 222.23 37.0658C223.659 37.8687 225.21 38.1681 226.843 37.9912C227.523 37.9095 227.523 39.0118 226.829 39.0798Z" fill="#2B244A"/>
<path d="M244.698 50.5251C247.937 52.512 251.176 54.4988 254.401 56.4856C255 56.853 254.455 57.792 253.843 57.4246C250.604 55.4378 247.365 53.4509 244.14 51.4641C243.555 51.0967 244.099 50.1577 244.698 50.5251Z" fill="#6FF5FD"/>
<path d="M244.971 50.9873C244.889 54.7841 244.794 58.5808 244.712 62.3776C244.698 63.0852 243.61 63.0852 243.623 62.3776C243.705 58.5808 243.8 54.7841 243.882 50.9873C243.895 50.2933 244.984 50.2933 244.971 50.9873Z" fill="#6FF5FD"/>
<path d="M254.402 57.4242C251.081 59.2341 247.761 61.044 244.44 62.8539C243.828 63.1941 243.27 62.2415 243.882 61.9149C247.203 60.105 250.523 58.2951 253.844 56.4852C254.47 56.145 255.028 57.084 254.402 57.4242Z" fill="#6FF5FD"/>
<path d="M244.698 50.5251C247.937 52.512 251.176 54.4988 254.401 56.4856C255 56.853 254.455 57.792 253.843 57.4246C250.604 55.4378 247.365 53.4509 244.14 51.4641C243.555 51.0967 244.099 50.1577 244.698 50.5251Z" fill="#6FF5FD"/>
<path d="M244.971 50.9873C244.889 54.7841 244.794 58.5808 244.712 62.3776C244.698 63.0852 243.61 63.0852 243.623 62.3776C243.705 58.5808 243.8 54.7841 243.882 50.9873C243.895 50.2933 244.984 50.2933 244.971 50.9873Z" fill="#6FF5FD"/>
<path d="M254.402 57.4242C251.081 59.2341 247.761 61.044 244.44 62.8539C243.828 63.1941 243.27 62.2415 243.882 61.9149C247.203 60.105 250.523 58.2951 253.844 56.4852C254.47 56.145 255.028 57.084 254.402 57.4242Z" fill="#6FF5FD"/>
</svg>
