<svg width="280" height="291" viewBox="0 0 280 291" fill="none" xmlns="http://www.w3.org/2000/svg">
<path d="M107.804 1.00388C113.764 -1.41841 120.296 1.58904 124.814 5.54908C130.924 10.8836 133.292 17.8783 137.375 24.5328C143.43 34.3853 157.107 41.1623 160.822 52.0626C162.414 56.7439 160.495 62.1328 155.215 62.9357C148.302 63.9835 143.009 56.9752 138.749 52.7157L118.5 32.5073C115.329 29.3365 112.118 26.193 108.974 22.995C106.388 20.3686 103.721 17.4973 102.347 13.9999C100.251 8.67904 102.469 3.18122 107.804 1.00388Z" fill="#6FF5FD"/>
<path d="M1.13152 94.9013C2.90061 92.4245 5.70391 92.4926 7.90847 94.3161C9.94972 96.0035 11.5828 98.2762 13.6241 100.195C16.0328 102.468 18.5912 104.536 20.4419 107.326C22.6873 110.714 25.164 115.695 24.3066 119.859C23.8031 122.349 21.8299 124.527 19.149 124.431C15.2706 124.282 11.8821 119.818 9.63676 117.137C6.45239 113.327 3.77152 109.081 1.78469 104.536C0.491896 101.583 -0.977783 97.8543 1.13152 94.9013Z" fill="#6FF5FD"/>
<path d="M252.599 180.744C266.207 176.321 287.749 204.626 276.55 214.574C268.235 221.95 256.94 208.75 252.449 202.966C247.7 196.842 241.549 184.35 252.599 180.744Z" fill="#6FF5FD"/>
<path d="M263.242 250.895C268.508 243.288 283.083 259.496 277.449 266.314C274.047 270.437 268.876 266.477 266.508 263.47C263.895 260.176 260.303 255.141 263.242 250.895Z" fill="#6FF5FD"/>
<path d="M22.2782 265.102C30.035 253.63 45.9567 279.69 44.4734 287.093C42.8404 295.299 31.6 286.549 28.7695 283.977C23.8977 279.567 17.733 271.824 22.2782 265.102Z" fill="#6FF5FD"/>
</svg>
