<svg width="362" height="330" viewBox="0 0 362 330" fill="none" xmlns="http://www.w3.org/2000/svg">
<path d="M5.65067 4.69167C11.4206 -1.82675 21.0825 -0.357026 26.9613 5.38571C35.9156 14.1087 35.521 26.7781 39.549 37.8281C43.2505 47.98 52.2321 52.7837 61.1728 57.6827C77.2579 66.4874 89.0836 83.0624 93.8465 100.604C94.8944 104.468 95.6156 108.592 94.5406 112.443C92.9484 118.131 87.1376 122.35 81.2315 122.091C76.0195 121.86 71.3383 118.512 68.222 114.307C62.0846 106.006 59.9345 95.6502 56.0017 86.2876C52.7493 78.5308 44.938 73.659 40.8147 66.4193C32.1598 51.2052 17.0816 41.2302 4.72523 29.6631C-1.75236 23.5665 -0.650009 11.8225 5.65067 4.69167Z" fill="#8853F7"/>
<path d="M129.882 266.096C132.849 261.524 138.673 260.476 143.423 262.667C149.928 265.661 153.017 272.492 156.051 278.52C158.242 282.875 160.814 286.754 164.325 290.142C168.966 294.633 202.211 322.067 187.65 328.49C181.839 331.049 175.212 327.81 170.19 322.625C163.549 315.78 160.529 307.397 153.997 300.444C147.628 293.667 141.259 289.57 134.89 282.793C131.243 278.929 126.263 271.675 129.882 266.096Z" fill="#8853F7"/>
<path d="M261.856 63.9705C273.45 62.7321 283.33 69.9173 290.066 78.6131C294.23 83.9884 297.659 89.8672 301.783 95.2698C306.668 101.693 312.669 106.565 319.678 110.538C345.887 125.44 365.089 143.158 360.734 176.253C359.931 182.35 357.305 189.304 351.344 190.828C346.758 191.998 342.118 189.413 338.212 186.745C312.873 169.435 298.748 135.292 268.809 121.126C256.698 115.397 249.989 99.6108 247.567 86.0433C245.675 75.6193 250.533 65.1816 261.856 63.9705Z" fill="#8853F7"/>
</svg>
