<svg width="400" height="407" viewBox="0 0 400 407" fill="none" xmlns="http://www.w3.org/2000/svg">
<mask id="mask0" mask-type="alpha" maskUnits="userSpaceOnUse" x="0" y="0" width="400" height="407">
<rect width="400" height="407" fill="#C4C4C4"/>
</mask>
<g mask="url(#mask0)">
<path opacity="0.5" d="M4 3.5H3V403.5H4V3.5Z" fill="#DEDEDE"/>
<path opacity="0.2" d="M23.552 3H22.549V404H23.552V3Z" fill="#DEDEDE"/>
<path opacity="0.2" d="M43.602 3H42.599V404H43.602V3Z" fill="#DEDEDE"/>
<path opacity="0.2" d="M63.652 3H62.649V404H63.652V3Z" fill="#DEDEDE"/>
<path opacity="0.2" d="M83.701 3H82.699V404H83.701V3Z" fill="#DEDEDE"/>
<path opacity="0.5" d="M103.751 3H102.748V404H103.751V3Z" fill="#DEDEDE"/>
<path opacity="0.2" d="M123.801 3H122.799V404H123.801V3Z" fill="#DEDEDE"/>
<path opacity="0.2" d="M143.851 3H142.849V404H143.851V3Z" fill="#DEDEDE"/>
<path opacity="0.2" d="M163.901 3H162.899V404H163.901V3Z" fill="#DEDEDE"/>
<path opacity="0.2" d="M183.951 3H182.949V404H183.951V3Z" fill="#DEDEDE"/>
<path opacity="0.5" d="M204.001 3H202.998V404H204.001V3Z" fill="#DEDEDE"/>
<path opacity="0.2" d="M224.051 3H223.049V404H224.051V3Z" fill="#DEDEDE"/>
<path opacity="0.2" d="M244.102 3H243.099V404H244.102V3Z" fill="#DEDEDE"/>
<path opacity="0.2" d="M264.151 3H263.148V404H264.151V3Z" fill="#DEDEDE"/>
<path opacity="0.2" d="M284.201 3H283.199V404H284.201V3Z" fill="#DEDEDE"/>
<path opacity="0.5" d="M304.251 3H303.249V404H304.251V3Z" fill="#DEDEDE"/>
<path opacity="0.2" d="M324.301 3H323.299V404H324.301V3Z" fill="#DEDEDE"/>
<path opacity="0.2" d="M344.352 3H343.349V404H344.352V3Z" fill="#DEDEDE"/>
<path opacity="0.2" d="M364.401 3H363.398V404H364.401V3Z" fill="#DEDEDE"/>
<path opacity="0.2" d="M384.451 3H383.449V404H384.451V3Z" fill="#DEDEDE"/>
<path opacity="0.5" d="M403.5 3H3.5V4H403.5V3Z" fill="#DEDEDE"/>
<path opacity="0.2" d="M404 22.5488H3V23.5518H404V22.5488Z" fill="#DEDEDE"/>
<path opacity="0.2" d="M404 42.5986H3V43.6016H404V42.5986Z" fill="#DEDEDE"/>
<path opacity="0.2" d="M404 62.6494H3V63.6524H404V62.6494Z" fill="#DEDEDE"/>
<path opacity="0.2" d="M404 82.6992H3V83.7022H404V82.6992Z" fill="#DEDEDE"/>
<path opacity="0.5" d="M404 102.748H3V103.751H404V102.748Z" fill="#DEDEDE"/>
<path opacity="0.2" d="M404 122.799H3V123.802H404V122.799Z" fill="#DEDEDE"/>
<path opacity="0.2" d="M404 142.849H3V143.852H404V142.849Z" fill="#DEDEDE"/>
<path opacity="0.2" d="M404 162.899H3V163.902H404V162.899Z" fill="#DEDEDE"/>
<path opacity="0.2" d="M404 182.949H3V183.952H404V182.949Z" fill="#DEDEDE"/>
<path opacity="0.5" d="M404 202.999H3V204.002H404V202.999Z" fill="#DEDEDE"/>
<path opacity="0.2" d="M404 223.049H3V224.051H404V223.049Z" fill="#DEDEDE"/>
<path opacity="0.2" d="M404 243.099H3V244.102H404V243.099Z" fill="#DEDEDE"/>
<path opacity="0.2" d="M404 263.148H3V264.151H404V263.148Z" fill="#DEDEDE"/>
<path opacity="0.2" d="M404 283.199H3V284.201H404V283.199Z" fill="#DEDEDE"/>
<path opacity="0.5" d="M404 303.249H3V304.251H404V303.249Z" fill="#DEDEDE"/>
<path opacity="0.2" d="M404 323.299H3V324.301H404V323.299Z" fill="#DEDEDE"/>
<path opacity="0.2" d="M404 343.349H3V344.352H404V343.349Z" fill="#DEDEDE"/>
<path opacity="0.2" d="M404 363.398H3V364.401H404V363.398Z" fill="#DEDEDE"/>
<path opacity="0.2" d="M404 383.449H3V384.451H404V383.449Z" fill="#DEDEDE"/>
<path opacity="0.5" d="M403.5 403H3.5V404H403.5V403Z" fill="#DEDEDE"/>
<path d="M4 0H3V7H4V0Z" fill="#DEDEDE"/>
<path d="M7 3H0V4H7V3Z" fill="#DEDEDE"/>
<path d="M4 100H3V107H4V100Z" fill="#DEDEDE"/>
<path d="M7 103H0V104H7V103Z" fill="#DEDEDE"/>
<path d="M4 200H3V207H4V200Z" fill="#DEDEDE"/>
<path d="M7 203H0V204H7V203Z" fill="#DEDEDE"/>
<path d="M4 300H3V307H4V300Z" fill="#DEDEDE"/>
<path d="M7 303H0V304H7V303Z" fill="#DEDEDE"/>
<path d="M4 400H3V407H4V400Z" fill="#DEDEDE"/>
<path d="M7 403H0V404H7V403Z" fill="#DEDEDE"/>
<path d="M104 0H103V7H104V0Z" fill="#DEDEDE"/>
<path d="M107 3H100V4H107V3Z" fill="#DEDEDE"/>
<path d="M104 100H103V107H104V100Z" fill="#DEDEDE"/>
<path d="M107 103H100V104H107V103Z" fill="#DEDEDE"/>
<path d="M104 200H103V207H104V200Z" fill="#DEDEDE"/>
<path d="M107 203H100V204H107V203Z" fill="#DEDEDE"/>
<path d="M104 300H103V307H104V300Z" fill="#DEDEDE"/>
<path d="M107 303H100V304H107V303Z" fill="#DEDEDE"/>
<path d="M104 400H103V407H104V400Z" fill="#DEDEDE"/>
<path d="M107 403H100V404H107V403Z" fill="#DEDEDE"/>
<path d="M204 0H203V7H204V0Z" fill="#DEDEDE"/>
<path d="M207 3H200V4H207V3Z" fill="#DEDEDE"/>
<path d="M204 100H203V107H204V100Z" fill="#DEDEDE"/>
<path d="M207 103H200V104H207V103Z" fill="#DEDEDE"/>
<path d="M204 200H203V207H204V200Z" fill="#DEDEDE"/>
<path d="M207 203H200V204H207V203Z" fill="#DEDEDE"/>
<path d="M204 300H203V307H204V300Z" fill="#DEDEDE"/>
<path d="M207 303H200V304H207V303Z" fill="#DEDEDE"/>
<path d="M204 400H203V407H204V400Z" fill="#DEDEDE"/>
<path d="M207 403H200V404H207V403Z" fill="#DEDEDE"/>
<path d="M304 0H303V7H304V0Z" fill="#DEDEDE"/>
<path d="M307 3H300V4H307V3Z" fill="#DEDEDE"/>
<path d="M304 100H303V107H304V100Z" fill="#DEDEDE"/>
<path d="M307 103H300V104H307V103Z" fill="#DEDEDE"/>
<path d="M304 200H303V207H304V200Z" fill="#DEDEDE"/>
<path d="M307 203H300V204H307V203Z" fill="#DEDEDE"/>
<path d="M304 300H303V307H304V300Z" fill="#DEDEDE"/>
<path d="M307 303H300V304H307V303Z" fill="#DEDEDE"/>
<path d="M304 400H303V407H304V400Z" fill="#DEDEDE"/>
<path d="M307 403H300V404H307V403Z" fill="#DEDEDE"/>
<path d="M54 53H53V54H54V53Z" fill="#DEDEDE"/>
<path d="M154 53H153V54H154V53Z" fill="#DEDEDE"/>
<path d="M254 53H253V54H254V53Z" fill="#DEDEDE"/>
<path d="M354 53H353V54H354V53Z" fill="#DEDEDE"/>
<path d="M54 153H53V154H54V153Z" fill="#DEDEDE"/>
<path d="M154 153H153V154H154V153Z" fill="#DEDEDE"/>
<path d="M254 153H253V154H254V153Z" fill="#DEDEDE"/>
<path d="M354 153H353V154H354V153Z" fill="#DEDEDE"/>
<path d="M54 253H53V254H54V253Z" fill="#DEDEDE"/>
<path d="M154 253H153V254H154V253Z" fill="#DEDEDE"/>
<path d="M254 253H253V254H254V253Z" fill="#DEDEDE"/>
<path d="M354 253H353V254H354V253Z" fill="#DEDEDE"/>
<path d="M54 353H53V354H54V353Z" fill="#DEDEDE"/>
<path d="M154 353H153V354H154V353Z" fill="#DEDEDE"/>
<path d="M254 353H253V354H254V353Z" fill="#DEDEDE"/>
<path d="M354 353H353V354H354V353Z" fill="#DEDEDE"/>
</g>
</svg>
