<svg width="97" height="66" viewBox="0 0 97 66" fill="none" xmlns="http://www.w3.org/2000/svg">
<path d="M17.7554 43.4026C17.5474 43.4719 17.3394 43.5413 17.1314 43.5413C16.3687 43.5413 16.1607 42.9173 16.1607 42.0853C16.1607 41.1146 16.5074 39.9359 16.7847 38.9653C17.3394 37.024 20.2514 25.5146 23.094 17.264C23.926 14.768 24.2727 12.7573 24.2727 11.232C24.2727 7.55732 22.47 6.10133 21.014 6.03199H20.7367C11.446 6.03199 6.66204 36.816 5.20604 44.1653C4.99804 45.2746 4.85938 46.3146 4.85938 47.2159C4.85938 52.3466 7.97937 55.0506 14.566 55.0506H15.398C23.8567 54.8426 27.5313 49.0186 27.5313 44.9279C27.5313 42.9173 25.7287 42.3626 23.6487 42.3626C21.43 42.3626 18.934 42.9866 17.7554 43.4026Z" fill="white"/>
<path d="M35.3703 21.3546C32.389 21.424 30.7943 25.3066 29.893 27.664C28.2983 31.7546 26.981 36.2613 26.773 40.6986V41.3226C26.773 43.4719 27.1197 46.2453 29.269 47.2853C30.101 47.7013 31.2797 48.1866 32.3197 48.1866C32.8743 48.1866 33.3597 48.0479 33.845 47.7013C34.9543 46.9386 35.1623 45.5519 35.1623 44.3039C35.1623 43.8186 35.093 43.4026 35.093 43.0559V42.2933C35.093 40.2826 35.5783 38.1333 35.9943 36.1226C36.4797 33.9733 36.8263 31.7546 37.381 29.6053C37.7277 28.2186 38.1437 26.832 38.4903 25.4453C38.5597 25.0986 38.629 24.752 38.629 24.4746C38.629 22.464 37.1037 21.3546 35.509 21.3546H35.3703ZM36.965 10.7467C35.0237 10.7467 33.429 12.4106 33.429 14.352V14.4906C33.429 16.3626 35.093 17.9573 37.0343 17.9573H37.173C39.045 17.9573 40.6397 16.2933 40.6397 14.4213V14.2826C40.6397 12.3413 39.045 10.7467 37.1037 10.7467H36.965Z" fill="white"/>
<path d="M57.4757 9.01332C57.6144 8.59732 57.6837 8.25066 57.753 7.97332C58.169 6.37866 58.377 5.06133 58.377 4.02133C58.377 1.248 56.9904 0.277335 55.6037 0.069334C55.3957 0.069334 55.1877 0 54.9104 0C50.8891 0 49.0864 4.78399 48.1157 7.55732C47.9771 7.90399 47.8384 8.45866 47.5611 9.22132C40.9744 9.49865 36.9531 10.4693 36.8837 13.5893V13.7973C36.8837 16.848 38.0624 18.2346 40.7664 18.2346C41.3211 18.2346 41.8757 18.1653 42.4997 18.096C43.1931 18.0266 44.1637 17.9573 45.2037 17.888C43.2624 25.3066 40.9051 34.3893 40.0037 37.8559C39.6571 39.1733 39.5184 40.4906 39.5184 41.8773C39.5184 46.5919 41.4597 50.9599 44.3717 51.5146C44.6491 51.5839 44.9264 51.5839 45.2037 51.5839C48.1851 51.5839 49.0864 47.9093 49.7797 41.8079C50.3344 37.3706 52.9691 26.4853 55.1877 17.9573C58.4464 18.0266 61.6357 18.096 64.2704 18.096H65.033C70.9957 18.096 72.105 16.432 72.313 12.272V12.2027C72.313 9.49866 65.9344 9.01332 60.1104 9.01332H57.4757Z" fill="white"/>
<path d="M73.184 9.01332C73.3227 8.59732 73.392 8.25066 73.4614 7.97332C73.8774 6.37866 74.0854 5.06133 74.0854 4.02133C74.0854 1.248 72.6987 0.277335 71.312 0.069334C71.104 0.069334 70.896 0 70.6187 0C66.5974 0 64.7947 4.78399 63.824 7.55732C63.6854 7.90399 63.5467 8.45866 63.2694 9.22132C56.6827 9.49865 52.6614 10.4693 52.5921 13.5893V13.7973C52.5921 16.848 53.7707 18.2346 56.4747 18.2346C57.0294 18.2346 57.584 18.1653 58.208 18.096C58.9014 18.0266 59.872 17.9573 60.912 17.888C58.9707 25.3066 56.6134 34.3893 55.7121 37.8559C55.3654 39.1733 55.2267 40.4906 55.2267 41.8773C55.2267 46.5919 57.1681 50.9599 60.08 51.5146C60.3574 51.5839 60.6347 51.5839 60.912 51.5839C63.8934 51.5839 64.7947 47.9093 65.488 41.8079C66.0427 37.3706 68.6774 26.4853 70.896 17.9573C74.1547 18.0266 77.344 18.096 79.9787 18.096H80.7414C86.704 18.096 87.8133 16.432 88.0213 12.272V12.2027C88.0213 9.49866 81.6427 9.01332 75.8187 9.01332H73.184Z" fill="white"/>
<path d="M90.279 18.3733C87.8523 18.4426 84.1084 27.872 83.6924 29.1893C83.207 30.4373 82.583 33.9733 81.127 33.9733H80.9883C80.6417 33.904 80.503 33.5573 80.503 33.072C80.503 31.1306 82.3057 26.9013 83.1377 24.2666C83.3457 23.5733 83.4844 22.9493 83.4844 22.3946C83.4844 20.3146 82.0977 19.4826 80.4337 19.4133H80.3644C74.9564 19.4133 72.4604 28.288 71.9057 31.408C71.6977 32.5173 71.4204 34.3893 71.4204 36.3306C71.4204 40.0053 72.2524 43.9573 75.5804 43.9573H75.7884C80.919 43.6106 80.295 40.1439 81.335 40.1439H81.4737C81.8204 40.2133 82.0284 40.7679 82.0284 41.6693C82.0284 43.7493 81.1964 47.4239 80.295 50.7519C79.8097 52.4159 79.255 53.1786 78.7004 53.4559C78.215 51.9999 77.1057 50.2666 75.3724 50.2666H75.1644C72.6684 50.4053 70.311 53.3173 70.311 56.2986V56.6453C70.4497 59.6266 72.183 65.4506 78.0764 65.4506H78.5617C84.871 65.0346 86.743 57.7546 87.7137 54.2879C88.6843 50.8213 94.0923 28.496 95.895 23.5733C96.1723 22.88 96.311 22.256 96.311 21.7013C96.311 18.7893 92.9137 18.3733 90.7643 18.3733H90.279Z" fill="white"/>
<path d="M12.896 43.4028C12.688 43.4721 12.48 43.5415 12.272 43.5415C11.5093 43.5415 11.3013 42.9175 11.3013 42.0855C11.3013 41.1148 11.648 39.9361 11.9253 38.9655C12.48 37.0241 15.392 25.5148 18.2346 17.2642C19.0666 14.7682 19.4133 12.7575 19.4133 11.2322C19.4133 7.5575 17.6106 6.1015 16.1546 6.03217H15.8773C6.58666 6.03217 1.80266 36.8161 0.346666 44.1655C0.138666 45.2748 0 46.3148 0 47.2161C0 52.3468 3.12 55.0508 9.70665 55.0508H10.5387C18.9973 54.8428 22.672 49.0188 22.672 44.9281C22.672 42.9174 20.8693 42.3628 18.7893 42.3628C16.5706 42.3628 14.0746 42.9868 12.896 43.4028Z" fill="#D2395A"/>
<path d="M30.511 21.3548C27.5296 21.4241 25.935 25.3068 25.0336 27.6641C23.439 31.7548 22.1216 36.2615 21.9136 40.6988V41.3228C21.9136 43.4721 22.2603 46.2454 24.4096 47.2854C25.2416 47.7014 26.4203 48.1868 27.4603 48.1868C28.015 48.1868 28.5003 48.0481 28.9856 47.7014C30.095 46.9388 30.303 45.5521 30.303 44.3041C30.303 43.8188 30.2336 43.4028 30.2336 43.0561V42.2935C30.2336 40.2828 30.719 38.1335 31.135 36.1228C31.6203 33.9735 31.967 31.7548 32.5216 29.6055C32.8683 28.2188 33.2843 26.8321 33.631 25.4455C33.7003 25.0988 33.7696 24.7521 33.7696 24.4748C33.7696 22.4641 32.2443 21.3548 30.6496 21.3548H30.511ZM32.1056 10.7468C30.1643 10.7468 28.5696 12.4108 28.5696 14.3522V14.4908C28.5696 16.3628 30.2336 17.9575 32.175 17.9575H32.3136C34.1856 17.9575 35.7803 16.2935 35.7803 14.4215V14.2828C35.7803 12.3415 34.1856 10.7468 32.2443 10.7468H32.1056Z" fill="#D2395A"/>
<path d="M52.6163 9.0135C52.755 8.5975 52.8243 8.25083 52.8937 7.9735C53.3097 6.37883 53.5177 5.0615 53.5177 4.0215C53.5177 1.24817 52.131 0.277511 50.7443 0.0695095C50.5363 0.0695095 50.3283 0.000175476 50.051 0.000175476C46.0297 0.000175476 44.227 4.78417 43.2564 7.5575C43.1177 7.90417 42.979 8.45883 42.7017 9.2215C36.115 9.49883 32.0937 10.4695 32.0244 13.5895V13.7975C32.0244 16.8482 33.203 18.2348 35.907 18.2348C36.4617 18.2348 37.0164 18.1655 37.6404 18.0962C38.3337 18.0268 39.3044 17.9575 40.3444 17.8882C38.403 25.3068 36.0457 34.3895 35.1444 37.8561C34.7977 39.1735 34.659 40.4908 34.659 41.8775C34.659 46.5921 36.6004 50.9601 39.5124 51.5148C39.7897 51.5841 40.067 51.5841 40.3444 51.5841C43.3257 51.5841 44.227 47.9094 44.9204 41.8081C45.475 37.3708 48.1097 26.4855 50.3283 17.9575C53.587 18.0268 56.7763 18.0962 59.411 18.0962H60.1737C66.1363 18.0962 67.2457 16.4322 67.4537 12.2722V12.2028C67.4537 9.49883 61.075 9.0135 55.251 9.0135H52.6163Z" fill="#D2395A"/>
<path d="M68.3247 9.0135C68.4633 8.5975 68.5327 8.25083 68.602 7.9735C69.018 6.37883 69.226 5.0615 69.226 4.0215C69.226 1.24817 67.8393 0.277511 66.4527 0.0695095C66.2447 0.0695095 66.0367 0.000175476 65.7593 0.000175476C61.738 0.000175476 59.9353 4.78417 58.9647 7.5575C58.826 7.90417 58.6873 8.45883 58.41 9.2215C51.8233 9.49883 47.802 10.4695 47.7327 13.5895V13.7975C47.7327 16.8482 48.9114 18.2348 51.6153 18.2348C52.17 18.2348 52.7247 18.1655 53.3487 18.0962C54.042 18.0268 55.0127 17.9575 56.0527 17.8882C54.1113 25.3068 51.754 34.3895 50.8527 37.8561C50.506 39.1735 50.3673 40.4908 50.3673 41.8775C50.3673 46.5921 52.3087 50.9601 55.2207 51.5148C55.498 51.5841 55.7753 51.5841 56.0527 51.5841C59.034 51.5841 59.9353 47.9094 60.6287 41.8081C61.1833 37.3708 63.818 26.4855 66.0367 17.9575C69.2953 18.0268 72.4846 18.0962 75.1193 18.0962H75.882C81.8446 18.0962 82.954 16.4322 83.162 12.2722V12.2028C83.162 9.49883 76.7833 9.0135 70.9593 9.0135H68.3247Z" fill="#D2395A"/>
<path d="M85.4196 18.3735C82.993 18.4428 79.249 27.8721 78.833 29.1895C78.3476 30.4375 77.7236 33.9735 76.2676 33.9735H76.129C75.7823 33.9041 75.6436 33.5575 75.6436 33.0721C75.6436 31.1308 77.4463 26.9015 78.2783 24.2668C78.4863 23.5735 78.625 22.9495 78.625 22.3948C78.625 20.3148 77.2383 19.4828 75.5743 19.4135H75.505C70.097 19.4135 67.601 28.2881 67.0463 31.4081C66.8383 32.5175 66.561 34.3895 66.561 36.3308C66.561 40.0055 67.393 43.9575 70.721 43.9575H70.929C76.0596 43.6108 75.4356 40.1441 76.4756 40.1441H76.6143C76.961 40.2135 77.169 40.7681 77.169 41.6695C77.169 43.7495 76.337 47.4241 75.4356 50.7521C74.9503 52.4161 74.3956 53.1788 73.841 53.4561C73.3556 52.0001 72.2463 50.2668 70.513 50.2668H70.305C67.809 50.4054 65.4517 53.3174 65.4517 56.2988V56.6454C65.5903 59.6268 67.3237 65.4508 73.217 65.4508H73.7023C80.0116 65.0348 81.8836 57.7548 82.8543 54.2881C83.825 50.8214 89.233 28.4961 91.0356 23.5735C91.313 22.8801 91.4516 22.2561 91.4516 21.7015C91.4516 18.7895 88.0543 18.3735 85.905 18.3735H85.4196Z" fill="#D2395A"/>
</svg>
