<svg width="178" height="42" viewBox="0 0 178 42" fill="none" xmlns="http://www.w3.org/2000/svg">
<path fill-rule="evenodd" clip-rule="evenodd" d="M17.9902 0.233809C15.6997 0.511263 12.3391 1.68467 10.1483 2.97161C7.69435 4.41344 4.45342 7.6177 2.99509 10.0439C1.55945 12.4325 0.499911 15.5673 0.188793 18.3471C0.0532632 19.5572 -0.0277432 22.6266 0.00875423 25.1679L0.0752952 29.7885L4.31344 29.8481L8.55159 29.9078L9.04831 27.7299C10.5676 21.0695 15.0136 16.7332 20.4382 16.6212C22.5368 16.5781 23.8573 16.9537 25.2409 17.9876C26.859 19.1968 27.6709 20.8926 27.6709 23.0634C27.6709 24.4867 27.5814 24.8784 27.0529 25.7671C26.3783 26.9017 24.9881 27.8586 23.7176 28.0624C23.029 28.1731 22.914 28.1112 22.4925 27.4049C21.9123 26.4326 20.9026 25.9013 19.635 25.9013C17.8092 25.9013 16.4324 27.2795 16.4324 29.1066V29.8985H22.6592H28.8857L29.3052 29.0734C30.7529 26.2265 30.9087 22.7016 29.7018 20.1141C28.5889 17.7282 25.937 15.6254 23.1267 14.8999C17.3455 13.4079 11.9681 16.25 8.42941 22.6686L7.53678 24.2878L7.53367 21.5287C7.53011 18.4415 7.83722 16.8932 8.86315 14.8267C10.7425 11.0409 14.2476 8.4329 18.5376 7.62826L19.9535 7.36291L20.1001 6.2038C20.3033 4.59585 21.3762 2.58458 22.5977 1.52141C23.1581 1.03383 23.7525 0.634919 23.919 0.634919C24.0852 0.634919 24.2214 0.550208 24.2214 0.446795C24.2214 0.247671 21.7538 -0.0405644 20.4382 0.0047612C20.0098 0.019503 18.9082 0.122696 17.9902 0.233809ZM32.1725 4.75911C32.5413 6.5323 32.3886 7.31604 31.198 9.76142L30.3866 11.4283L30.8366 11.9172C31.8029 12.967 32.904 14.9054 33.4895 16.5869C34.086 18.2989 34.1051 18.5051 34.191 24.1228L34.2791 29.8985H37.9471H41.6151L41.5265 23.4627C41.4466 17.682 41.3879 16.8478 40.9488 15.2667C40.3944 13.27 39.2739 10.8151 38.2128 9.2723C36.9586 7.4485 32.6094 3.27524 31.9629 3.27524C31.9083 3.27524 32.0027 3.94302 32.1725 4.75911ZM55.7115 3.48889C51.9652 3.79473 50.0467 4.39936 48.7481 5.68322C46.978 7.43331 46.8872 8.16248 46.9666 19.9973L47.0323 29.7885H51.1494H55.2664L55.3777 25.5574L55.489 21.3263L56.1061 20.7168L56.723 20.1073H61.8315H66.94L67.5569 20.717L68.1741 21.3267L68.2853 25.5576L68.3966 29.7885H72.5137H76.6308V19.0072C76.6308 8.51035 76.6185 8.19967 76.1628 7.23573C75.2859 5.38068 73.8203 4.36548 71.2105 3.80529C69.4346 3.42398 59.0918 3.21276 55.7115 3.48889ZM120.438 3.72828C117.412 4.24886 115.467 5.49818 114.546 7.51252C114.029 8.64214 114.017 8.8208 113.947 16.1915C113.887 22.5324 113.932 23.9331 114.232 25.09C114.655 26.7235 115.364 27.7123 116.644 28.4538C118.574 29.5722 119.866 29.7313 127.906 29.8393C137.976 29.9746 140.642 29.6347 142.29 28.005C143.219 27.0868 143.504 26.1662 143.664 23.5679L143.789 21.5278L139.475 21.5877L135.16 21.6475L135.047 22.9069C134.862 24.9525 134.905 24.9362 129.533 25.0185C124.456 25.0962 123.538 24.9569 122.889 24.0112C122.514 23.464 122.469 22.8216 122.407 17.1361C122.308 7.9374 122.094 8.2626 128.323 8.1528C134.743 8.03949 135.093 8.15038 135.27 10.3529L135.383 11.7463H139.611H143.839L143.826 9.63931C143.805 6.30171 142.885 4.91885 140.076 4.00155C139.105 3.68471 137.702 3.62465 130.264 3.58152C125.491 3.5538 121.069 3.61981 120.438 3.72828ZM81.2468 3.89088C81.026 4.03478 80.9789 6.79369 81.0243 16.931L81.0817 29.7885H84.8649H88.6482L88.7742 25.718C88.96 19.7126 88.6282 19.9973 95.4434 19.9973C100.72 19.9973 100.579 19.9753 101.488 20.941C101.512 20.9665 101.587 22.9677 101.655 25.388L101.778 29.7885H105.895H110.013L110.173 27.4782C110.377 24.5459 110.084 22.1003 109.36 20.6862C108.706 19.4103 107.427 18.2934 106.402 18.1033C105.504 17.9367 105.462 17.6736 106.307 17.5066C107.401 17.2903 108.842 16.0102 109.565 14.6124C110.199 13.3868 110.234 13.1791 110.223 10.7713C110.21 7.88899 109.987 7.15784 108.685 5.73273C108.237 5.24228 107.401 4.61257 106.827 4.33313L105.784 3.82531L93.6555 3.76678C86.9847 3.73466 81.4008 3.79055 81.2468 3.89088ZM148.223 3.97933C147.803 4.3954 147.842 29.3104 148.264 29.6567C148.476 29.8307 149.803 29.8902 152.548 29.8488L156.524 29.7885L156.636 24.9479C156.757 19.6761 156.837 19.3209 157.999 18.9203C158.94 18.5959 167.018 18.5966 167.959 18.9209C169.201 19.3491 169.321 19.8844 169.321 25.0234C169.321 29.0224 169.367 29.649 169.673 29.765C170.131 29.939 177.189 29.939 177.648 29.765C177.963 29.6453 178 28.3097 178 16.9374C178 7.35762 177.935 4.17867 177.733 3.97933C177.358 3.60836 169.963 3.60836 169.588 3.97933C169.4 4.16547 169.321 5.42755 169.321 8.25181C169.321 10.4565 169.258 12.4207 169.183 12.6165C168.847 13.4812 167.992 13.6165 162.861 13.6165H157.937L157.286 12.9734L156.636 12.3302V8.2868C156.636 5.43525 156.557 4.16547 156.369 3.97933C155.993 3.60836 148.599 3.60836 148.223 3.97933ZM67.4448 9.19573C68.128 9.79926 68.1734 9.9337 68.2486 11.572C68.3488 13.7516 67.9918 14.7109 66.8882 15.2289C65.8238 15.7281 58.0111 15.7712 56.8318 15.2841C55.671 14.8044 55.3196 13.9171 55.4118 11.6979C55.4857 9.91896 55.5199 9.81269 56.2158 9.19793L56.9427 8.55589H61.8315H66.7204L67.4448 9.19573ZM100.402 8.80166C101.444 9.32841 101.657 9.86483 101.662 11.9723C101.671 15.3626 101.261 15.5968 95.3245 15.5968C89.3877 15.5968 88.9785 15.3626 88.9869 11.9723C88.9923 9.88838 89.1957 9.36053 90.206 8.81134C90.8189 8.478 99.7454 8.46964 100.402 8.80166ZM9.08837 38.6996C9.08837 41.6167 9.11151 41.78 9.52633 41.78C9.93359 41.78 9.96875 41.5984 10.0271 39.2092L10.0898 36.6386L11.8702 39.2096C13.2275 41.1701 13.7545 41.7677 14.0881 41.7254C14.3631 41.6906 15.1892 40.7304 16.3135 39.1396L18.1014 36.6093L18.1642 39.1947C18.2225 41.5984 18.2577 41.78 18.6649 41.78C19.0797 41.78 19.1029 41.6167 19.1029 38.6857V35.5913L18.385 35.6604C17.7498 35.7213 17.471 36.0067 15.9612 38.1416C15.023 39.4684 14.1693 40.5777 14.0643 40.607C13.959 40.6363 13.0928 39.526 12.139 38.1398C10.5845 35.8802 10.3368 35.6192 9.74666 35.6192H9.08837V38.6996ZM29.4412 36.1594C28.9412 36.6536 28.8949 36.869 28.8949 38.704C28.8949 40.9956 29.0527 41.4178 30.0361 41.7569C30.949 42.0715 34.8524 42.0715 35.7653 41.7569C36.7487 41.4178 36.9065 40.9956 36.9065 38.704C36.9065 36.869 36.8602 36.6536 36.3601 36.1594C35.8358 35.6408 35.6972 35.6192 32.9007 35.6192C30.1042 35.6192 29.9655 35.6408 29.4412 36.1594ZM46.0308 35.9341C46.0308 36.186 46.3971 36.2747 47.6443 36.3246L49.2577 36.3893L49.3203 39.0846C49.3706 41.2539 49.4451 41.78 49.7028 41.78C49.9605 41.78 50.0351 41.2539 50.0854 39.0846L50.1479 36.3893L51.7765 36.3244C52.9253 36.2786 53.3788 36.1814 53.3161 35.9944C53.2526 35.8056 52.1911 35.7118 49.6289 35.6687C46.5721 35.6175 46.0308 35.6573 46.0308 35.9341ZM63.0455 36.1594C62.5455 36.6536 62.4992 36.869 62.4992 38.704C62.4992 39.8065 62.5973 40.89 62.717 41.1113C63.0578 41.7406 64.1636 42 66.505 42C70.1298 42 70.5108 41.6737 70.5108 38.5691C70.5108 36.8773 70.4587 36.6481 69.9644 36.1594C69.4401 35.6408 69.3015 35.6192 66.505 35.6192C63.7085 35.6192 63.5698 35.6408 63.0455 36.1594ZM80.3028 38.6833C80.3028 41.6332 80.3239 41.78 80.7479 41.78C81.1391 41.78 81.1929 41.6332 81.1929 40.5698V39.3597H83.4331C86.2282 39.3597 86.534 39.5014 86.534 40.7976C86.534 41.6332 86.6006 41.78 86.9791 41.78C87.3572 41.78 87.4242 41.6332 87.4242 40.8055C87.4242 40.2132 87.2871 39.6957 87.0746 39.4853C86.7566 39.1711 86.7566 39.1082 87.0746 38.794C87.515 38.3583 87.5361 36.735 87.1089 36.1563C86.8262 35.7737 86.4561 35.7217 83.5481 35.6579L80.3028 35.5867V38.6833ZM97.7752 36.1143C97.2856 36.5332 97.1779 36.8463 97.0746 38.1495C96.9271 40.0145 97.3005 41.3089 98.1064 41.7252C98.4949 41.9258 99.4496 41.9941 101.27 41.9514C104.147 41.8836 104.442 41.7597 104.694 40.512C104.819 39.8939 104.778 39.7997 104.381 39.7997C104.078 39.7997 103.899 39.9648 103.852 40.2893C103.813 40.5586 103.531 40.9036 103.225 41.0561C102.545 41.3949 99.7594 41.4266 98.8294 41.106C98.0387 40.8334 97.8909 40.4308 97.8869 38.5346C97.8823 36.4967 98.1787 36.2784 100.944 36.2826C103.292 36.2863 103.53 36.3556 103.766 37.1044C103.852 37.3768 104.066 37.5995 104.241 37.5995C104.718 37.5995 104.634 36.5719 104.115 36.0593C103.72 35.6683 103.373 35.6192 101.012 35.6192C98.575 35.6192 98.3055 35.6604 97.7752 36.1143ZM113.907 35.7897C113.907 35.8835 114.658 36.698 115.576 37.5995L117.245 39.2387V40.5093C117.245 41.6332 117.297 41.78 117.69 41.78C118.084 41.78 118.135 41.6332 118.135 40.5194V39.2589L119.967 37.4391C121.584 35.8313 121.733 35.6192 121.24 35.6192C120.848 35.6192 120.253 36.0465 119.248 37.0498L117.814 38.4804L116.355 37.0498C115.438 36.1497 114.714 35.6192 114.402 35.6192C114.13 35.6192 113.907 35.696 113.907 35.7897ZM131.766 35.8881C131.085 36.2124 130.745 37.5726 130.879 39.4358C131.045 41.7628 131.25 41.89 134.824 41.89C138.002 41.89 138.22 41.8084 138.494 40.5148C138.625 39.8957 138.585 39.7997 138.198 39.7997C137.905 39.7997 137.726 39.9689 137.679 40.2893C137.56 41.1118 136.718 41.3681 134.411 41.2836C131.845 41.1896 131.711 41.0644 131.711 38.7676C131.711 36.4661 131.942 36.2782 134.771 36.2826C137.119 36.2863 137.357 36.3556 137.593 37.1044C137.679 37.3768 137.893 37.5995 138.068 37.5995C138.545 37.5995 138.46 36.5719 137.942 36.0593C137.545 35.6672 137.212 35.6208 134.882 35.6342C133.444 35.6423 132.041 35.7565 131.766 35.8881ZM148.179 38.6996V41.78H151.072C153.495 41.78 153.965 41.7263 153.965 41.4499C153.965 41.1767 153.545 41.1199 151.517 41.1199H149.069V38.3696C149.069 35.766 149.045 35.6192 148.624 35.6192C148.2 35.6192 148.179 35.766 148.179 38.6996ZM163.238 35.766C163.156 35.8465 163.089 37.2327 163.089 38.8464V41.78H166.205C168.826 41.78 169.321 41.7276 169.321 41.4499C169.321 41.1749 168.874 41.1199 166.638 41.1199H163.955L164.023 40.0748L164.091 39.0296L166.539 38.9966C168.587 38.9691 168.999 38.9062 169.059 38.6116C169.122 38.3049 168.797 38.2595 166.542 38.2595H163.954L164.023 37.3244L164.091 36.3893L166.706 36.3273C168.828 36.2771 169.321 36.2045 169.321 35.9422C169.321 35.6744 168.814 35.6192 166.354 35.6192C164.721 35.6192 163.319 35.6852 163.238 35.766ZM35.6667 36.625C35.9284 36.8839 36.0163 37.4303 36.0163 38.7984C36.0163 41.1947 35.9714 41.2299 32.9007 41.2299C29.8086 41.2299 29.785 41.2108 29.785 38.6835C29.785 37.0659 29.85 36.7037 30.1745 36.5169C30.3888 36.3935 31.6333 36.2896 32.9405 36.2859C34.8108 36.2806 35.3914 36.353 35.6667 36.625ZM69.271 36.625C69.5327 36.8839 69.6206 37.4303 69.6206 38.7984C69.6206 41.1947 69.5757 41.2299 66.505 41.2299C63.4129 41.2299 63.3893 41.2108 63.3893 38.6835C63.3893 37.0659 63.4543 36.7037 63.7788 36.5169C63.9929 36.3935 65.2376 36.2896 66.5448 36.2859C68.4151 36.2806 68.9957 36.353 69.271 36.625ZM85.9632 36.4938C86.4179 36.6648 86.534 36.8571 86.534 37.4399C86.534 38.5834 86.2634 38.6996 83.5964 38.6996H81.1929V37.4894V36.2793H83.2927C84.4474 36.2793 85.6492 36.3759 85.9632 36.4938Z" fill="white"/>
</svg>
