<?xml version="1.0" standalone="no"?>
<!DOCTYPE svg PUBLIC "-//W3C//DTD SVG 20010904//EN"
 "http://www.w3.org/TR/2001/REC-SVG-20010904/DTD/svg10.dtd">
<svg version="1.0" xmlns="http://www.w3.org/2000/svg"
 width="776.000000pt" height="776.000000pt" viewBox="0 0 776.000000 776.000000"
 preserveAspectRatio="xMidYMid meet">
<metadata>
Created by potrace 1.14, written by Peter Selinger 2001-2017
</metadata>
<g transform="translate(0.000000,776.000000) scale(0.100000,-0.100000)"
fill="#000000" stroke="none">
<path d="M3905 6506 c-191 -61 -320 -233 -446 -597 l-43 -126 -161 -11 c-250
-18 -421 -54 -532 -110 -34 -18 -46 -20 -79 -10 -132 36 -294 -50 -338 -180
-18 -52 -21 -158 -5 -199 47 -127 196 -210 329 -184 48 10 63 9 101 -6 53 -20
188 -22 363 -5 66 6 122 9 125 6 3 -3 -16 -87 -42 -187 -381 -1468 -387 -1491
-399 -1610 -28 -296 60 -628 206 -780 126 -132 297 -151 406 -46 84 82 140
250 180 546 61 449 179 999 391 1824 l61 236 92 -1 c50 0 150 3 222 8 88 6
133 6 137 -1 4 -6 0 -32 -8 -59 -23 -80 -402 -1544 -415 -1604 -6 -30 -14
-113 -17 -185 -15 -368 117 -705 315 -802 73 -36 175 -38 237 -6 136 72 198
241 260 710 41 312 137 759 321 1493 52 206 99 394 105 418 l12 42 486 -2
c423 -3 496 -1 562 14 187 41 268 118 303 290 22 108 21 195 -3 232 -42 63
-140 108 -309 141 -130 25 -265 35 -565 42 -287 6 -288 6 -283 27 65 242 79
439 38 530 -54 120 -117 160 -252 160 -115 0 -180 -26 -266 -106 -111 -105
-173 -212 -268 -472 l-51 -138 -230 1 c-126 1 -230 3 -232 4 -1 2 9 45 22 97
72 288 56 466 -48 556 -69 59 -188 80 -282 50z"/>
<path d="M1190 6027 c-85 -24 -145 -62 -226 -142 -176 -176 -329 -474 -485
-948 -141 -427 -245 -868 -411 -1732 -58 -300 -62 -329 -62 -465 0 -130 3
-153 26 -222 64 -193 202 -311 428 -369 120 -30 433 -38 570 -15 392 68 682
314 764 648 l22 88 36 -48 c60 -81 220 -152 341 -152 71 0 115 19 161 70 55
61 66 116 66 319 0 232 4 254 146 936 14 66 49 203 77 305 63 229 69 317 25
391 -48 82 -138 125 -242 117 -80 -7 -137 -37 -206 -108 -96 -100 -174 -260
-286 -585 -126 -366 -198 -752 -179 -967 3 -43 4 -78 0 -78 -3 0 -16 7 -28 14
-96 63 -347 59 -602 -10 -174 -47 -198 -43 -216 34 -11 53 1 137 41 282 16 58
61 224 100 370 139 514 298 1057 395 1340 65 189 96 333 102 470 6 142 -4 216
-42 299 -61 133 -185 195 -315 158z"/>
<path d="M6773 5025 c-64 -39 -162 -177 -257 -365 -113 -221 -167 -350 -238
-568 -61 -184 -96 -254 -139 -278 -36 -20 -57 -17 -76 12 -30 46 -5 153 114
504 101 296 108 320 108 395 0 62 -5 89 -21 120 -65 125 -241 157 -404 75
-246 -124 -462 -571 -520 -1079 -18 -153 -8 -444 18 -543 39 -142 92 -222 180
-265 49 -24 68 -28 137 -26 97 2 193 30 257 75 56 40 79 68 127 156 30 54 41
67 61 67 43 0 52 -34 46 -175 -7 -167 -91 -570 -156 -743 -23 -62 -74 -137
-93 -137 -6 0 -23 26 -37 58 -34 79 -119 164 -183 181 -167 47 -375 -113 -441
-338 -31 -105 -17 -279 33 -424 77 -222 238 -384 426 -428 79 -18 231 -16 300
5 229 68 393 247 516 565 41 104 113 359 204 722 285 1136 440 1714 532 1994
54 163 60 233 25 301 -54 104 -198 163 -402 164 -63 0 -82 -4 -117 -25z"/>
</g>
</svg>
