<svg width="22" height="22" viewBox="0 0 22 22" fill="none" xmlns="http://www.w3.org/2000/svg">
<g clip-path="url(#clip0_402:15661)">
<path d="M10.816 5.33361C7.83836 5.33361 5.42773 7.74686 5.42773 10.7219C5.42773 13.6995 7.84098 16.1101 10.816 16.1101C13.7936 16.1101 16.2042 13.6969 16.2042 10.7219C16.2042 7.74424 13.791 5.33361 10.816 5.33361ZM10.816 14.2192C8.88311 14.2192 7.31861 12.6539 7.31861 10.7219C7.31861 8.78986 8.88398 7.22449 10.816 7.22449C12.748 7.22449 14.3134 8.78986 14.3134 10.7219C14.3142 12.6539 12.7489 14.2192 10.816 14.2192Z" fill="black"/>
<path d="M15.1422 0.292747C13.2102 0.202622 8.42482 0.206997 6.49107 0.292747C4.79182 0.372372 3.29295 0.782747 2.08457 1.99112C0.0650738 4.01062 0.323199 6.73187 0.323199 10.7227C0.323199 14.8072 0.0956989 17.4655 2.08457 19.4544C4.11195 21.4809 6.87257 21.2157 10.8162 21.2157C14.8622 21.2157 16.2587 21.2184 17.6893 20.6645C19.6344 19.9094 21.1027 18.1707 21.2462 15.0479C21.3372 13.115 21.3319 8.3305 21.2462 6.39675C21.0729 2.71037 19.0946 0.474747 15.1422 0.292747ZM18.2003 18.1182C16.8764 19.4421 15.0398 19.324 10.7908 19.324C6.41582 19.324 4.66145 19.3887 3.38132 18.1051C1.90695 16.6377 2.17382 14.2814 2.17382 10.7087C2.17382 5.87437 1.6777 2.39275 6.52957 2.14425C7.64432 2.10487 7.97245 2.09175 10.7786 2.09175L10.8179 2.118C15.4808 2.118 19.1392 1.62975 19.3588 6.48075C19.4087 7.58762 19.4201 7.92012 19.4201 10.7219C19.4192 15.0461 19.5014 16.811 18.2003 18.1182Z" fill="black"/>
<path d="M16.4173 6.38012C17.1127 6.38012 17.6765 5.81639 17.6765 5.12099C17.6765 4.4256 17.1127 3.86187 16.4173 3.86187C15.7219 3.86187 15.1582 4.4256 15.1582 5.12099C15.1582 5.81639 15.7219 6.38012 16.4173 6.38012Z" fill="black"/>
</g>
<defs>
<clipPath id="clip0_402:15661">
<rect width="21" height="21" fill="white" transform="translate(0.3125 0.225372)"/>
</clipPath>
</defs>
</svg>
