<svg width="19" height="18" viewBox="0 0 19 18" fill="none" xmlns="http://www.w3.org/2000/svg">
<path d="M8.50349 0.92705C8.80284 0.00573941 10.1062 0.00574011 10.4056 0.927051L11.8017 5.22391C11.9356 5.63594 12.3196 5.9149 12.7528 5.9149H17.2708C18.2395 5.9149 18.6423 7.15451 17.8586 7.72391L14.2034 10.3795C13.853 10.6342 13.7063 11.0855 13.8402 11.4976L15.2363 15.7944C15.5357 16.7157 14.4812 17.4819 13.6975 16.9124L10.0423 14.2568C9.69184 14.0022 9.21725 14.0022 8.86676 14.2568L5.21163 16.9125C4.42792 17.4819 3.37344 16.7157 3.67279 15.7944L5.06892 11.4976C5.2028 11.0855 5.05614 10.6342 4.70565 10.3795L1.05052 7.72391C0.266809 7.15451 0.669586 5.9149 1.63831 5.9149H6.1563C6.58952 5.9149 6.97348 5.63594 7.10735 5.22391L8.50349 0.92705Z" fill="#D2395A"/>
</svg>
