<?xml version="1.0" standalone="no"?>
<!DOCTYPE svg PUBLIC "-//W3C//DTD SVG 20010904//EN"
 "http://www.w3.org/TR/2001/REC-SVG-20010904/DTD/svg10.dtd">
<svg version="1.0" xmlns="http://www.w3.org/2000/svg"
 width="400.000000pt" height="400.000000pt" viewBox="0 0 400.000000 400.000000"
 preserveAspectRatio="xMidYMid meet">
<metadata>
Created by potrace 1.14, written by Peter Selinger 2001-2017
</metadata>
<g transform="translate(0.000000,400.000000) scale(0.100000,-0.100000)"
fill="#000000" stroke="none">
<path d="M1809 3436 c-2 -2 -31 -6 -64 -9 -33 -3 -67 -8 -75 -11 -8 -3 -32 -7
-52 -10 -97 -14 -273 -71 -412 -132 -387 -170 -728 -489 -934 -874 -102 -192
-161 -371 -209 -640 -4 -25 -8 -295 -8 -600 l0 -555 391 -3 c428 -2 408 -5
419 58 3 19 8 47 11 62 3 15 7 40 9 57 6 44 62 235 92 311 216 552 694 857
1194 765 98 -18 220 -87 305 -170 56 -55 80 -88 112 -155 51 -108 62 -156 62
-272 1 -140 -35 -245 -113 -334 -69 -78 -180 -137 -298 -158 -36 -6 -37 -6
-63 48 -31 63 -89 119 -155 150 -72 33 -188 30 -263 -7 -58 -29 -118 -88 -143
-142 -29 -61 -38 -153 -20 -202 3 -10 130 -13 585 -13 l581 0 44 93 c96 200
130 409 100 615 -13 82 -59 227 -76 238 -5 3 -9 12 -9 19 0 36 -129 194 -228
278 -103 88 -287 174 -435 203 -106 21 -287 26 -387 10 -376 -57 -756 -383
-974 -839 -26 -53 -48 -97 -49 -97 -10 0 6 523 18 585 83 431 365 778 766 944
93 38 201 67 303 81 44 6 81 12 83 14 2 2 6 25 8 52 3 27 7 60 10 74 3 14 7
36 10 49 36 193 185 395 342 467 23 10 43 22 43 26 0 13 -150 25 -331 26 -103
1 -188 0 -190 -2z"/>
<path d="M3050 3083 c64 -206 43 -337 -97 -617 l-54 -109 34 -36 c54 -56 140
-181 186 -271 46 -89 105 -259 115 -330 3 -25 9 -56 12 -70 3 -14 7 -251 8
-528 1 -431 4 -504 16 -512 9 -6 158 -10 342 -10 302 0 328 1 336 18 5 9 8
251 7 537 -3 551 -8 634 -56 815 -11 41 -21 82 -24 91 -2 9 -10 36 -18 60
-110 321 -312 613 -592 856 -71 61 -212 163 -226 163 -4 0 1 -26 11 -57z"/>
</g>
</svg>
